<svg width="297" height="86" viewBox="0 0 297 86" fill="none" xmlns="http://www.w3.org/2000/svg">
<g filter="url(#filter0_d_1078_1085)">
<path d="M28.4957 32.1593L26.2991 30.0503L13.2427 43.5145L26.7718 56.5036L29.9805 53.1946C30.2389 53.7531 30.6042 54.2741 31.0759 54.7269C33.1136 56.6833 36.36 56.6253 38.3265 54.5974C40.293 52.5694 40.2352 49.3392 38.1975 47.3828C37.7259 46.93 37.1896 46.5854 36.6194 46.3484L39.8282 43.0394L37.6315 40.9304C35.1469 42.3407 31.922 42.0263 29.7618 39.9523C27.5991 37.8759 27.1681 34.6803 28.4957 32.1593Z" fill="#A5ED5D"/>
<path d="M29.4302 26.7736L32.7388 29.9822C32.1803 30.2406 31.6594 30.6058 31.2066 31.0774C29.2505 33.115 29.3085 36.3612 31.3362 38.3275C33.3638 40.2939 36.5937 40.2362 38.5498 38.1986C39.0026 37.727 39.3471 37.1907 39.5841 36.6206L42.8927 39.8291L45.1015 37.5284C43.9422 35.106 44.3294 32.108 46.293 30.0626C48.2566 28.0173 51.2238 27.5212 53.6739 28.5991L55.8827 26.2984L42.4202 13.2429L29.4302 26.7736Z" fill="#A5ED5D"/>
<path d="M56.0549 32.6336C55.8197 32.2275 55.526 31.8454 55.1691 31.5052C53.1314 29.5488 49.885 29.6069 47.9185 31.6348C45.952 33.6627 46.0097 36.8929 48.0474 38.8493C48.4044 39.1921 48.7961 39.4705 49.2123 39.6898L46.1041 42.8951L48.6135 45.3043C51.0981 43.894 54.323 44.2084 56.4831 46.2823C58.6433 48.3563 59.0743 51.5493 57.7467 54.0729L59.6332 55.8842L72.6896 42.42L59.1605 29.4309L56.0549 32.6336Z" fill="#A5ED5D"/>
<path d="M47.7121 48.0377C47.2587 48.5094 46.9136 49.0458 46.6763 49.6161L43.0519 46.1052L40.9404 48.3022C42.3523 50.7871 42.0375 54.0123 39.961 56.1728C37.8846 58.3333 34.6878 58.7644 32.1612 57.4366L30.0496 59.6336L43.5296 72.6913L56.5344 59.1603L53.533 56.253C54.0923 55.9946 54.6139 55.6292 55.0672 55.1575C57.026 53.1195 56.968 49.8727 54.9377 47.906C52.9049 45.9419 49.6708 45.9997 47.7121 48.0377Z" fill="#A5ED5D"/>
</g>
<g filter="url(#filter1_d_1078_1085)">
<path d="M93.036 64C93.344 64 93.63 63.692 93.894 63.076C94.202 62.46 94.356 61.448 94.356 60.04V37.072C94.356 35.664 94.202 34.674 93.894 34.102C93.63 33.486 93.344 33.156 93.036 33.112H101.088V60.04C101.088 61.448 101.22 62.46 101.484 63.076C101.792 63.692 102.1 64 102.408 64H93.036ZM97.062 26.776C95.786 26.776 94.796 26.424 94.092 25.72C93.388 24.972 93.036 24.114 93.036 23.146C93.036 22.134 93.366 21.276 94.026 20.572C94.73 19.868 95.742 19.516 97.062 19.516C98.382 19.516 99.372 19.868 100.032 20.572C100.736 21.276 101.088 22.134 101.088 23.146C101.088 24.114 100.736 24.972 100.032 25.72C99.328 26.424 98.338 26.776 97.062 26.776ZM129.702 64.66C124.906 64.66 120.66 64.44 116.964 64C113.268 63.56 110.606 63.12 108.978 62.68V61.36L107.658 54.298C108.274 55.002 109.44 55.75 111.156 56.542C112.916 57.334 115.248 58.016 118.152 58.588C121.056 59.116 124.51 59.38 128.514 59.38C132.122 59.38 134.85 59.138 136.698 58.654C138.59 58.126 139.866 57.422 140.526 56.542C141.23 55.618 141.582 54.562 141.582 53.374C141.582 51.966 141.01 50.844 139.866 50.008C138.722 49.172 137.006 48.512 134.718 48.028C132.474 47.5 129.68 47.038 126.336 46.642C121.98 46.07 118.482 45.322 115.842 44.398C113.202 43.43 111.288 42.154 110.1 40.57C108.912 38.986 108.318 36.984 108.318 34.564C108.318 32.496 108.934 30.648 110.166 29.02C111.442 27.392 113.356 26.116 115.908 25.192C118.46 24.224 121.716 23.74 125.676 23.74C130.252 23.74 134.234 23.96 137.622 24.4C141.01 24.84 143.408 25.28 144.816 25.72V27.04L146.796 32.98C145.872 32.408 144.442 31.814 142.506 31.198C140.614 30.582 138.326 30.076 135.642 29.68C132.958 29.24 129.966 29.02 126.666 29.02C123.938 29.02 121.76 29.218 120.132 29.614C118.548 30.01 117.404 30.604 116.7 31.396C116.04 32.144 115.71 33.068 115.71 34.168C115.71 35.62 116.238 36.786 117.294 37.666C118.394 38.546 119.978 39.228 122.046 39.712C124.158 40.196 126.71 40.614 129.702 40.966C134.454 41.494 138.238 42.242 141.054 43.21C143.87 44.178 145.894 45.476 147.126 47.104C148.358 48.732 148.974 50.844 148.974 53.44C148.974 55.156 148.556 56.718 147.72 58.126C146.928 59.49 145.718 60.678 144.09 61.69C142.462 62.658 140.438 63.406 138.018 63.934C135.642 64.418 132.87 64.66 129.702 64.66ZM167.259 64.66C162.463 64.66 159.097 63.802 157.161 62.086C155.225 60.326 154.257 57.972 154.257 55.024C154.257 52.956 154.763 51.196 155.775 49.744C156.831 48.248 158.393 47.104 160.461 46.312C162.573 45.52 165.235 45.124 168.447 45.124C170.735 45.124 172.715 45.3 174.387 45.652C176.103 45.96 177.489 46.334 178.545 46.774C179.645 47.214 180.415 47.588 180.855 47.896C180.855 45.3 180.525 43.21 179.865 41.626C179.249 40.042 178.237 38.898 176.829 38.194C175.421 37.446 173.507 37.072 171.087 37.072C168.491 37.072 166.159 37.38 164.091 37.996C162.067 38.568 160.439 39.206 159.207 39.91C157.975 40.57 157.205 41.054 156.897 41.362V40.042L156.237 35.092C156.633 34.916 157.491 34.63 158.811 34.234C160.131 33.794 161.869 33.398 164.025 33.046C166.181 32.65 168.711 32.452 171.615 32.452C175.311 32.452 178.325 32.98 180.657 34.036C183.033 35.048 184.771 36.632 185.871 38.788C187.015 40.9 187.587 43.584 187.587 46.84V60.04C187.587 61.272 187.719 62.174 187.983 62.746C188.291 63.274 188.599 63.692 188.907 64H180.855V62.02L180.987 60.766L180.855 60.7C180.151 61.36 179.315 61.932 178.347 62.416C177.379 62.9 176.323 63.318 175.179 63.67C174.035 63.978 172.781 64.22 171.417 64.396C170.097 64.572 168.711 64.66 167.259 64.66ZM169.437 59.974C171.813 59.974 173.859 59.732 175.575 59.248C177.291 58.764 178.589 58.126 179.469 57.334C180.393 56.498 180.855 55.552 180.855 54.496C180.855 53.176 179.975 52.054 178.215 51.13C176.499 50.206 173.815 49.744 170.163 49.744C166.775 49.744 164.377 50.184 162.969 51.064C161.605 51.944 160.923 53.264 160.923 55.024C160.923 56.74 161.583 57.994 162.903 58.786C164.267 59.578 166.445 59.974 169.437 59.974ZM203.434 64C203.742 64 203.94 63.714 204.028 63.142C204.16 62.526 203.962 61.492 203.434 60.04C203.214 59.468 202.796 58.456 202.18 57.004C201.564 55.552 200.838 53.88 200.002 51.988C199.166 50.052 198.308 48.116 197.428 46.18C196.548 44.2 195.734 42.418 194.986 40.834C194.238 39.206 193.644 37.996 193.204 37.204C192.456 35.796 191.774 34.784 191.158 34.168C190.542 33.508 190.102 33.156 189.838 33.112H200.596C200.2 33.112 199.936 33.42 199.804 34.036C199.672 34.652 199.936 35.708 200.596 37.204C200.948 37.952 201.432 39.096 202.048 40.636C202.664 42.132 203.346 43.87 204.094 45.85C204.886 47.786 205.678 49.766 206.47 51.79C207.306 53.814 208.054 55.706 208.714 57.466H208.78C209.484 55.662 210.254 53.748 211.09 51.724C211.926 49.656 212.74 47.632 213.532 45.652C214.324 43.672 215.028 41.934 215.644 40.438C216.304 38.898 216.788 37.776 217.096 37.072C217.712 35.664 217.954 34.652 217.822 34.036C217.69 33.42 217.448 33.112 217.096 33.112H227.458C227.194 33.112 226.776 33.42 226.204 34.036C225.676 34.608 225.06 35.598 224.356 37.006C223.96 37.754 223.388 38.898 222.64 40.438C221.892 41.978 221.056 43.716 220.132 45.652C219.252 47.544 218.372 49.436 217.492 51.328C216.656 53.22 215.908 54.958 215.248 56.542C214.632 58.082 214.214 59.248 213.994 60.04C213.598 61.492 213.444 62.526 213.532 63.142C213.62 63.714 213.774 64 213.994 64H203.434ZM245.082 64.66C241.606 64.66 238.746 64.264 236.502 63.472C234.258 62.636 232.498 61.492 231.222 60.04C229.946 58.588 229.044 56.894 228.516 54.958C228.032 53.022 227.79 50.91 227.79 48.622C227.79 43.65 229.198 39.712 232.014 36.808C234.874 33.904 239.098 32.452 244.686 32.452C247.942 32.452 250.56 32.892 252.54 33.772C254.564 34.652 256.082 35.818 257.094 37.27C258.15 38.722 258.854 40.306 259.206 42.022C259.602 43.694 259.8 45.344 259.8 46.972V50.074C259.8 49.942 259.184 49.81 257.952 49.678C256.764 49.502 254.74 49.414 251.88 49.414H234.522C234.522 52.67 235.49 55.244 237.426 57.136C239.362 59.028 242.244 59.974 246.072 59.974C249.372 59.974 252.078 59.578 254.19 58.786C256.346 57.95 257.776 57.136 258.48 56.344V57.664L259.14 62.02C258.172 62.592 256.456 63.186 253.992 63.802C251.572 64.374 248.602 64.66 245.082 64.66ZM237.162 45.058H253.2C253.2 43.914 252.958 42.726 252.474 41.494C251.99 40.262 251.132 39.228 249.9 38.392C248.668 37.512 246.93 37.072 244.686 37.072C242.794 37.072 241.144 37.402 239.736 38.062C238.328 38.678 237.228 39.492 236.436 40.504C235.688 41.516 235.314 42.594 235.314 43.738C235.314 44.178 235.446 44.508 235.71 44.728C235.974 44.948 236.458 45.058 237.162 45.058ZM265.448 64C265.756 64 266.042 63.692 266.306 63.076C266.614 62.46 266.768 61.448 266.768 60.04V37.732C266.768 36.324 266.614 35.334 266.306 34.762C266.042 34.146 265.756 33.816 265.448 33.772C267.384 33.772 269.056 33.64 270.464 33.376C271.916 33.068 272.928 32.76 273.5 32.452V35.752L273.368 36.874L273.5 37.006C274.16 36.126 274.952 35.356 275.876 34.696C276.844 33.992 277.944 33.442 279.176 33.046C280.408 32.65 281.816 32.452 283.4 32.452C285.468 32.452 287.25 32.76 288.746 33.376C290.286 33.948 291.386 34.542 292.046 35.158L290.726 40.702V42.682C290.154 41.978 289.318 41.252 288.218 40.504C287.162 39.712 285.952 39.052 284.588 38.524C283.224 37.996 281.772 37.732 280.232 37.732C278.472 37.732 276.91 38.436 275.546 39.844C274.182 41.252 273.5 43.584 273.5 46.84V60.04C273.5 61.448 273.632 62.46 273.896 63.076C274.204 63.692 274.512 64 274.82 64H265.448Z" fill="white"/>
</g>
<defs>
<filter id="filter0_d_1078_1085" x="9.24268" y="13.2429" width="67.4469" height="67.4485" filterUnits="userSpaceOnUse" color-interpolation-filters="sRGB">
<feFlood flood-opacity="0" result="BackgroundImageFix"/>
<feColorMatrix in="SourceAlpha" type="matrix" values="0 0 0 0 0 0 0 0 0 0 0 0 0 0 0 0 0 0 127 0" result="hardAlpha"/>
<feOffset dy="4"/>
<feGaussianBlur stdDeviation="2"/>
<feComposite in2="hardAlpha" operator="out"/>
<feColorMatrix type="matrix" values="0 0 0 0 0 0 0 0 0 0 0 0 0 0 0 0 0 0 0.25 0"/>
<feBlend mode="normal" in2="BackgroundImageFix" result="effect1_dropShadow_1078_1085"/>
<feBlend mode="normal" in="SourceGraphic" in2="effect1_dropShadow_1078_1085" result="shape"/>
</filter>
<filter id="filter1_d_1078_1085" x="89.036" y="19.5161" width="207.01" height="53.1438" filterUnits="userSpaceOnUse" color-interpolation-filters="sRGB">
<feFlood flood-opacity="0" result="BackgroundImageFix"/>
<feColorMatrix in="SourceAlpha" type="matrix" values="0 0 0 0 0 0 0 0 0 0 0 0 0 0 0 0 0 0 127 0" result="hardAlpha"/>
<feOffset dy="4"/>
<feGaussianBlur stdDeviation="2"/>
<feComposite in2="hardAlpha" operator="out"/>
<feColorMatrix type="matrix" values="0 0 0 0 0 0 0 0 0 0 0 0 0 0 0 0 0 0 0.25 0"/>
<feBlend mode="normal" in2="BackgroundImageFix" result="effect1_dropShadow_1078_1085"/>
<feBlend mode="normal" in="SourceGraphic" in2="effect1_dropShadow_1078_1085" result="shape"/>
</filter>
</defs>
</svg>
