<svg width="401" height="86" viewBox="0 0 401 86" fill="none" xmlns="http://www.w3.org/2000/svg">
<g filter="url(#filter0_d_1078_1085)">
<path d="M28.4957 32.1593L26.2991 30.0503L13.2427 43.5145L26.7718 56.5036L29.9805 53.1946C30.2389 53.7531 30.6042 54.2741 31.0759 54.7269C33.1136 56.6833 36.36 56.6253 38.3265 54.5974C40.293 52.5694 40.2352 49.3392 38.1975 47.3828C37.7259 46.93 37.1896 46.5854 36.6194 46.3484L39.8282 43.0394L37.6315 40.9304C35.1469 42.3407 31.922 42.0263 29.7618 39.9523C27.5991 37.8759 27.1681 34.6803 28.4957 32.1593Z" fill="#A5ED5D"/>
<path d="M29.4302 26.7736L32.7388 29.9822C32.1803 30.2406 31.6594 30.6058 31.2066 31.0774C29.2505 33.115 29.3085 36.3612 31.3362 38.3275C33.3638 40.2939 36.5937 40.2362 38.5498 38.1986C39.0026 37.727 39.3471 37.1907 39.5841 36.6206L42.8927 39.8291L45.1015 37.5284C43.9422 35.106 44.3294 32.108 46.293 30.0626C48.2566 28.0173 51.2238 27.5212 53.6739 28.5991L55.8827 26.2984L42.4202 13.2429L29.4302 26.7736Z" fill="#A5ED5D"/>
<path d="M56.0549 32.6336C55.8197 32.2275 55.526 31.8454 55.1691 31.5052C53.1314 29.5488 49.885 29.6069 47.9185 31.6348C45.952 33.6627 46.0097 36.8929 48.0474 38.8493C48.4044 39.1921 48.7961 39.4705 49.2123 39.6898L46.1041 42.8951L48.6135 45.3043C51.0981 43.894 54.323 44.2084 56.4831 46.2823C58.6433 48.3563 59.0743 51.5493 57.7467 54.0729L59.6332 55.8842L72.6896 42.42L59.1605 29.4309L56.0549 32.6336Z" fill="#A5ED5D"/>
<path d="M47.7121 48.0377C47.2587 48.5094 46.9136 49.0458 46.6763 49.6161L43.0519 46.1052L40.9404 48.3022C42.3523 50.7871 42.0375 54.0123 39.961 56.1728C37.8846 58.3333 34.6878 58.7644 32.1612 57.4366L30.0496 59.6336L43.5296 72.6913L56.5344 59.1603L53.533 56.253C54.0923 55.9946 54.6139 55.6292 55.0672 55.1575C57.026 53.1195 56.968 49.8727 54.9377 47.906C52.9049 45.9419 49.6708 45.9997 47.7121 48.0377Z" fill="#A5ED5D"/>
</g>
<g filter="url(#filter1_d_1078_1085)">
<path d="M92.576 53C92.8373 53 93.08 52.7387 93.304 52.216C93.5653 51.6933 93.696 50.8347 93.696 49.64V30.152C93.696 28.9573 93.5653 28.1173 93.304 27.632C93.08 27.1093 92.8373 26.8293 92.576 26.792H99.408V49.64C99.408 50.8347 99.52 51.6933 99.744 52.216C100.005 52.7387 100.267 53 100.528 53H92.576ZM95.992 21.416C94.9093 21.416 94.0693 21.1173 93.472 20.52C92.8747 19.8853 92.576 19.1573 92.576 18.336C92.576 17.4773 92.856 16.7493 93.416 16.152C94.0133 15.5547 94.872 15.256 95.992 15.256C97.112 15.256 97.952 15.5547 98.512 16.152C99.1093 16.7493 99.408 17.4773 99.408 18.336C99.408 19.1573 99.1093 19.8853 98.512 20.52C97.9147 21.1173 97.0747 21.416 95.992 21.416ZM123.686 53.56C119.617 53.56 116.014 53.3733 112.878 53C109.742 52.6267 107.484 52.2533 106.102 51.88V50.76L104.982 44.768C105.505 45.3653 106.494 46 107.95 46.672C109.444 47.344 111.422 47.9227 113.886 48.408C116.35 48.856 119.281 49.08 122.678 49.08C125.74 49.08 128.054 48.8747 129.622 48.464C131.228 48.016 132.31 47.4187 132.87 46.672C133.468 45.888 133.766 44.992 133.766 43.984C133.766 42.7893 133.281 41.8373 132.31 41.128C131.34 40.4187 129.884 39.8587 127.942 39.448C126.038 39 123.668 38.608 120.83 38.272C117.134 37.7867 114.166 37.152 111.926 36.368C109.686 35.5467 108.062 34.464 107.054 33.12C106.046 31.776 105.542 30.0773 105.542 28.024C105.542 26.2693 106.065 24.7013 107.11 23.32C108.193 21.9387 109.817 20.856 111.982 20.072C114.148 19.2507 116.91 18.84 120.27 18.84C124.153 18.84 127.532 19.0267 130.406 19.4C133.281 19.7733 135.316 20.1467 136.51 20.52V21.64L138.19 26.68C137.406 26.1947 136.193 25.6907 134.55 25.168C132.945 24.6453 131.004 24.216 128.726 23.88C126.449 23.5067 123.91 23.32 121.11 23.32C118.796 23.32 116.948 23.488 115.566 23.824C114.222 24.16 113.252 24.664 112.654 25.336C112.094 25.9707 111.814 26.7547 111.814 27.688C111.814 28.92 112.262 29.9093 113.158 30.656C114.092 31.4027 115.436 31.9813 117.19 32.392C118.982 32.8027 121.148 33.1573 123.686 33.456C127.718 33.904 130.929 34.5387 133.318 35.36C135.708 36.1813 137.425 37.2827 138.47 38.664C139.516 40.0453 140.038 41.8373 140.038 44.04C140.038 45.496 139.684 46.8213 138.974 48.016C138.302 49.1733 137.276 50.1813 135.894 51.04C134.513 51.8613 132.796 52.496 130.742 52.944C128.726 53.3547 126.374 53.56 123.686 53.56ZM155.553 53.56C151.484 53.56 148.628 52.832 146.985 51.376C145.343 49.8827 144.521 47.8853 144.521 45.384C144.521 43.6293 144.951 42.136 145.809 40.904C146.705 39.6347 148.031 38.664 149.785 37.992C151.577 37.32 153.836 36.984 156.561 36.984C158.503 36.984 160.183 37.1333 161.601 37.432C163.057 37.6933 164.233 38.0107 165.129 38.384C166.063 38.7573 166.716 39.0747 167.089 39.336C167.089 37.1333 166.809 35.36 166.249 34.016C165.727 32.672 164.868 31.7013 163.673 31.104C162.479 30.4693 160.855 30.152 158.801 30.152C156.599 30.152 154.62 30.4133 152.865 30.936C151.148 31.4213 149.767 31.9627 148.721 32.56C147.676 33.12 147.023 33.5307 146.761 33.792V32.672L146.201 28.472C146.537 28.3227 147.265 28.08 148.385 27.744C149.505 27.3707 150.98 27.0347 152.809 26.736C154.639 26.4 156.785 26.232 159.249 26.232C162.385 26.232 164.943 26.68 166.921 27.576C168.937 28.4347 170.412 29.7787 171.345 31.608C172.316 33.4 172.801 35.6773 172.801 38.44V49.64C172.801 50.6853 172.913 51.4507 173.137 51.936C173.399 52.384 173.66 52.7387 173.921 53H167.089V51.32L167.201 50.256L167.089 50.2C166.492 50.76 165.783 51.2453 164.961 51.656C164.14 52.0667 163.244 52.4213 162.273 52.72C161.303 52.9813 160.239 53.1867 159.081 53.336C157.961 53.4853 156.785 53.56 155.553 53.56ZM157.401 49.584C159.417 49.584 161.153 49.3787 162.609 48.968C164.065 48.5573 165.167 48.016 165.913 47.344C166.697 46.6347 167.089 45.832 167.089 44.936C167.089 43.816 166.343 42.864 164.849 42.08C163.393 41.296 161.116 40.904 158.017 40.904C155.143 40.904 153.108 41.2773 151.913 42.024C150.756 42.7707 150.177 43.8907 150.177 45.384C150.177 46.84 150.737 47.904 151.857 48.576C153.015 49.248 154.863 49.584 157.401 49.584ZM186.247 53C186.508 53 186.676 52.7573 186.751 52.272C186.863 51.7493 186.695 50.872 186.247 49.64C186.06 49.1547 185.706 48.296 185.183 47.064C184.66 45.832 184.044 44.4133 183.335 42.808C182.626 41.1653 181.898 39.5227 181.151 37.88C180.404 36.2 179.714 34.688 179.079 33.344C178.444 31.9627 177.94 30.936 177.567 30.264C176.932 29.0693 176.354 28.2107 175.831 27.688C175.308 27.128 174.935 26.8293 174.711 26.792H183.839C183.503 26.792 183.279 27.0533 183.167 27.576C183.055 28.0987 183.279 28.9947 183.839 30.264C184.138 30.8987 184.548 31.8693 185.071 33.176C185.594 34.4453 186.172 35.92 186.807 37.6C187.479 39.2427 188.151 40.9227 188.823 42.64C189.532 44.3573 190.167 45.9627 190.727 47.456H190.783C191.38 45.9253 192.034 44.3013 192.743 42.584C193.452 40.8293 194.143 39.112 194.815 37.432C195.487 35.752 196.084 34.2773 196.607 33.008C197.167 31.7013 197.578 30.7493 197.839 30.152C198.362 28.9573 198.567 28.0987 198.455 27.576C198.343 27.0533 198.138 26.792 197.839 26.792H206.631C206.407 26.792 206.052 27.0533 205.567 27.576C205.119 28.0613 204.596 28.9013 203.999 30.096C203.663 30.7307 203.178 31.7013 202.543 33.008C201.908 34.3147 201.199 35.7893 200.415 37.432C199.668 39.0373 198.922 40.6427 198.175 42.248C197.466 43.8533 196.831 45.328 196.271 46.672C195.748 47.9787 195.394 48.968 195.207 49.64C194.871 50.872 194.74 51.7493 194.815 52.272C194.89 52.7573 195.02 53 195.207 53H186.247ZM221.585 53.56C218.636 53.56 216.209 53.224 214.305 52.552C212.401 51.8427 210.908 50.872 209.825 49.64C208.742 48.408 207.977 46.9707 207.529 45.328C207.118 43.6853 206.913 41.8933 206.913 39.952C206.913 35.7333 208.108 32.392 210.497 29.928C212.924 27.464 216.508 26.232 221.249 26.232C224.012 26.232 226.233 26.6053 227.913 27.352C229.63 28.0987 230.918 29.088 231.777 30.32C232.673 31.552 233.27 32.896 233.569 34.352C233.905 35.7707 234.073 37.1707 234.073 38.552V41.184C234.073 41.072 233.55 40.96 232.505 40.848C231.497 40.6987 229.78 40.624 227.353 40.624H212.625C212.625 43.3867 213.446 45.5707 215.089 47.176C216.732 48.7813 219.177 49.584 222.425 49.584C225.225 49.584 227.521 49.248 229.313 48.576C231.142 47.8667 232.356 47.176 232.953 46.504V47.624L233.513 51.32C232.692 51.8053 231.236 52.3093 229.145 52.832C227.092 53.3173 224.572 53.56 221.585 53.56ZM214.865 36.928H228.473C228.473 35.9573 228.268 34.9493 227.857 33.904C227.446 32.8587 226.718 31.9813 225.673 31.272C224.628 30.5253 223.153 30.152 221.249 30.152C219.644 30.152 218.244 30.432 217.049 30.992C215.854 31.5147 214.921 32.2053 214.249 33.064C213.614 33.9227 213.297 34.8373 213.297 35.808C213.297 36.1813 213.409 36.4613 213.633 36.648C213.857 36.8347 214.268 36.928 214.865 36.928ZM238.865 53C239.126 53 239.369 52.7387 239.593 52.216C239.854 51.6933 239.985 50.8347 239.985 49.64V30.712C239.985 29.5173 239.854 28.6773 239.593 28.192C239.369 27.6693 239.126 27.3893 238.865 27.352C240.508 27.352 241.926 27.24 243.121 27.016C244.353 26.7547 245.212 26.4933 245.697 26.232V29.032L245.585 29.984L245.697 30.096C246.257 29.3493 246.929 28.696 247.713 28.136C248.534 27.5387 249.468 27.072 250.513 26.736C251.558 26.4 252.753 26.232 254.097 26.232C255.852 26.232 257.364 26.4933 258.633 27.016C259.94 27.5013 260.873 28.0053 261.433 28.528L260.313 33.232V34.912C259.828 34.3147 259.118 33.6987 258.185 33.064C257.289 32.392 256.262 31.832 255.105 31.384C253.948 30.936 252.716 30.712 251.409 30.712C249.916 30.712 248.59 31.3093 247.433 32.504C246.276 33.6987 245.697 35.6773 245.697 38.44V49.64C245.697 50.8347 245.809 51.6933 246.033 52.216C246.294 52.7387 246.556 53 246.817 53H238.865Z" fill="white"/>
</g>
<path d="M93.684 76.072C93.06 76.072 92.46 75.972 91.884 75.772C91.316 75.564 90.876 75.3 90.564 74.98L90.912 74.296C91.208 74.584 91.604 74.828 92.1 75.028C92.604 75.22 93.132 75.316 93.684 75.316C94.212 75.316 94.64 75.252 94.968 75.124C95.304 74.988 95.548 74.808 95.7 74.584C95.86 74.36 95.94 74.112 95.94 73.84C95.94 73.512 95.844 73.248 95.652 73.048C95.468 72.848 95.224 72.692 94.92 72.58C94.616 72.46 94.28 72.356 93.912 72.268C93.544 72.18 93.176 72.088 92.808 71.992C92.44 71.888 92.1 71.752 91.788 71.584C91.484 71.416 91.236 71.196 91.044 70.924C90.86 70.644 90.768 70.28 90.768 69.832C90.768 69.416 90.876 69.036 91.092 68.692C91.316 68.34 91.656 68.06 92.112 67.852C92.568 67.636 93.152 67.528 93.864 67.528C94.336 67.528 94.804 67.596 95.268 67.732C95.732 67.86 96.132 68.04 96.468 68.272L96.168 68.98C95.808 68.74 95.424 68.564 95.016 68.452C94.616 68.34 94.228 68.284 93.852 68.284C93.348 68.284 92.932 68.352 92.604 68.488C92.276 68.624 92.032 68.808 91.872 69.04C91.72 69.264 91.644 69.52 91.644 69.808C91.644 70.136 91.736 70.4 91.92 70.6C92.112 70.8 92.36 70.956 92.664 71.068C92.976 71.18 93.316 71.28 93.684 71.368C94.052 71.456 94.416 71.552 94.776 71.656C95.144 71.76 95.48 71.896 95.784 72.064C96.096 72.224 96.344 72.44 96.528 72.712C96.72 72.984 96.816 73.34 96.816 73.78C96.816 74.188 96.704 74.568 96.48 74.92C96.256 75.264 95.912 75.544 95.448 75.76C94.992 75.968 94.404 76.072 93.684 76.072ZM103.983 76.072C103.351 76.072 102.763 75.968 102.219 75.76C101.683 75.544 101.215 75.244 100.815 74.86C100.423 74.468 100.115 74.016 99.8908 73.504C99.6748 72.984 99.5668 72.416 99.5668 71.8C99.5668 71.184 99.6748 70.62 99.8908 70.108C100.115 69.588 100.423 69.136 100.815 68.752C101.215 68.36 101.683 68.06 102.219 67.852C102.755 67.636 103.343 67.528 103.983 67.528C104.615 67.528 105.199 67.636 105.735 67.852C106.271 68.06 106.735 68.356 107.127 68.74C107.527 69.124 107.835 69.576 108.051 70.096C108.275 70.616 108.387 71.184 108.387 71.8C108.387 72.416 108.275 72.984 108.051 73.504C107.835 74.024 107.527 74.476 107.127 74.86C106.735 75.244 106.271 75.544 105.735 75.76C105.199 75.968 104.615 76.072 103.983 76.072ZM103.983 75.28C104.487 75.28 104.951 75.196 105.375 75.028C105.807 74.852 106.179 74.608 106.491 74.296C106.811 73.976 107.059 73.608 107.235 73.192C107.411 72.768 107.499 72.304 107.499 71.8C107.499 71.296 107.411 70.836 107.235 70.42C107.059 69.996 106.811 69.628 106.491 69.316C106.179 68.996 105.807 68.752 105.375 68.584C104.951 68.408 104.487 68.32 103.983 68.32C103.479 68.32 103.011 68.408 102.579 68.584C102.147 68.752 101.771 68.996 101.451 69.316C101.139 69.628 100.891 69.996 100.707 70.42C100.531 70.836 100.443 71.296 100.443 71.8C100.443 72.296 100.531 72.756 100.707 73.18C100.891 73.604 101.139 73.976 101.451 74.296C101.771 74.608 102.147 74.852 102.579 75.028C103.011 75.196 103.479 75.28 103.983 75.28ZM111.937 76V67.6H112.669L116.509 74.152H116.125L119.929 67.6H120.661V76H119.809V68.932H120.013L116.509 74.932H116.089L112.561 68.932H112.789V76H111.937ZM125.75 71.356H130.19V72.112H125.75V71.356ZM125.846 75.232H130.898V76H124.958V67.6H130.718V68.368H125.846V75.232ZM138.194 76.072C137.562 76.072 136.974 75.968 136.43 75.76C135.894 75.544 135.426 75.244 135.026 74.86C134.634 74.468 134.326 74.016 134.102 73.504C133.886 72.984 133.778 72.416 133.778 71.8C133.778 71.184 133.886 70.62 134.102 70.108C134.326 69.588 134.634 69.136 135.026 68.752C135.426 68.36 135.894 68.06 136.43 67.852C136.966 67.636 137.554 67.528 138.194 67.528C138.826 67.528 139.41 67.636 139.946 67.852C140.482 68.06 140.946 68.356 141.338 68.74C141.738 69.124 142.046 69.576 142.262 70.096C142.486 70.616 142.598 71.184 142.598 71.8C142.598 72.416 142.486 72.984 142.262 73.504C142.046 74.024 141.738 74.476 141.338 74.86C140.946 75.244 140.482 75.544 139.946 75.76C139.41 75.968 138.826 76.072 138.194 76.072ZM138.194 75.28C138.698 75.28 139.162 75.196 139.586 75.028C140.018 74.852 140.39 74.608 140.702 74.296C141.022 73.976 141.27 73.608 141.446 73.192C141.622 72.768 141.71 72.304 141.71 71.8C141.71 71.296 141.622 70.836 141.446 70.42C141.27 69.996 141.022 69.628 140.702 69.316C140.39 68.996 140.018 68.752 139.586 68.584C139.162 68.408 138.698 68.32 138.194 68.32C137.69 68.32 137.222 68.408 136.79 68.584C136.358 68.752 135.982 68.996 135.662 69.316C135.35 69.628 135.102 69.996 134.918 70.42C134.742 70.836 134.654 71.296 134.654 71.8C134.654 72.296 134.742 72.756 134.918 73.18C135.102 73.604 135.35 73.976 135.662 74.296C135.982 74.608 136.358 74.852 136.79 75.028C137.222 75.196 137.69 75.28 138.194 75.28ZM146.148 76V67.6H146.88L152.676 74.896H152.292V67.6H153.168V76H152.436L146.652 68.704H147.036V76H146.148ZM158.262 71.356H162.702V72.112H158.262V71.356ZM158.358 75.232H163.41V76H157.47V67.6H163.23V68.368H158.358V75.232ZM173.666 76L170.834 67.6H171.746L174.398 75.508H173.942L176.678 67.6H177.494L180.194 75.508H179.762L182.438 67.6H183.29L180.458 76H179.522L176.942 68.5H177.182L174.59 76H173.666ZM192.622 67.6H193.498V76H192.622V67.6ZM187.366 76H186.478V67.6H187.366V76ZM192.706 72.124H187.27V71.344H192.706V72.124ZM201.472 76.072C200.84 76.072 200.252 75.968 199.708 75.76C199.172 75.544 198.704 75.244 198.304 74.86C197.912 74.468 197.604 74.016 197.38 73.504C197.164 72.984 197.056 72.416 197.056 71.8C197.056 71.184 197.164 70.62 197.38 70.108C197.604 69.588 197.912 69.136 198.304 68.752C198.704 68.36 199.172 68.06 199.708 67.852C200.244 67.636 200.832 67.528 201.472 67.528C202.104 67.528 202.688 67.636 203.224 67.852C203.76 68.06 204.224 68.356 204.616 68.74C205.016 69.124 205.324 69.576 205.54 70.096C205.764 70.616 205.876 71.184 205.876 71.8C205.876 72.416 205.764 72.984 205.54 73.504C205.324 74.024 205.016 74.476 204.616 74.86C204.224 75.244 203.76 75.544 203.224 75.76C202.688 75.968 202.104 76.072 201.472 76.072ZM201.472 75.28C201.976 75.28 202.44 75.196 202.864 75.028C203.296 74.852 203.668 74.608 203.98 74.296C204.3 73.976 204.548 73.608 204.724 73.192C204.9 72.768 204.988 72.304 204.988 71.8C204.988 71.296 204.9 70.836 204.724 70.42C204.548 69.996 204.3 69.628 203.98 69.316C203.668 68.996 203.296 68.752 202.864 68.584C202.44 68.408 201.976 68.32 201.472 68.32C200.968 68.32 200.5 68.408 200.068 68.584C199.636 68.752 199.26 68.996 198.94 69.316C198.628 69.628 198.38 69.996 198.196 70.42C198.02 70.836 197.932 71.296 197.932 71.8C197.932 72.296 198.02 72.756 198.196 73.18C198.38 73.604 198.628 73.976 198.94 74.296C199.26 74.608 199.636 74.852 200.068 75.028C200.5 75.196 200.968 75.28 201.472 75.28ZM216.443 76.072C215.819 76.072 215.219 75.972 214.643 75.772C214.075 75.564 213.635 75.3 213.323 74.98L213.671 74.296C213.967 74.584 214.363 74.828 214.859 75.028C215.363 75.22 215.891 75.316 216.443 75.316C216.971 75.316 217.399 75.252 217.727 75.124C218.063 74.988 218.307 74.808 218.459 74.584C218.619 74.36 218.699 74.112 218.699 73.84C218.699 73.512 218.603 73.248 218.411 73.048C218.227 72.848 217.983 72.692 217.679 72.58C217.375 72.46 217.039 72.356 216.671 72.268C216.303 72.18 215.935 72.088 215.567 71.992C215.199 71.888 214.859 71.752 214.547 71.584C214.243 71.416 213.995 71.196 213.803 70.924C213.619 70.644 213.527 70.28 213.527 69.832C213.527 69.416 213.635 69.036 213.851 68.692C214.075 68.34 214.415 68.06 214.871 67.852C215.327 67.636 215.911 67.528 216.623 67.528C217.095 67.528 217.563 67.596 218.027 67.732C218.491 67.86 218.891 68.04 219.227 68.272L218.927 68.98C218.567 68.74 218.183 68.564 217.775 68.452C217.375 68.34 216.987 68.284 216.611 68.284C216.107 68.284 215.691 68.352 215.363 68.488C215.035 68.624 214.791 68.808 214.631 69.04C214.479 69.264 214.403 69.52 214.403 69.808C214.403 70.136 214.495 70.4 214.679 70.6C214.871 70.8 215.119 70.956 215.423 71.068C215.735 71.18 216.075 71.28 216.443 71.368C216.811 71.456 217.175 71.552 217.535 71.656C217.903 71.76 218.239 71.896 218.543 72.064C218.855 72.224 219.103 72.44 219.287 72.712C219.479 72.984 219.575 73.34 219.575 73.78C219.575 74.188 219.463 74.568 219.239 74.92C219.015 75.264 218.671 75.544 218.207 75.76C217.751 75.968 217.163 76.072 216.443 76.072ZM221.726 76L225.566 67.6H226.442L230.282 76H229.346L225.818 68.116H226.178L222.65 76H221.726ZM223.238 73.756L223.502 73.036H228.386L228.65 73.756H223.238ZM235.186 76L231.466 67.6H232.426L235.906 75.508H235.378L238.882 67.6H239.782L236.062 76H235.186ZM243.353 71.356H247.793V72.112H243.353V71.356ZM243.449 75.232H248.501V76H242.561V67.6H248.321V68.368H243.449V75.232ZM254.464 76.072C253.84 76.072 253.24 75.972 252.664 75.772C252.096 75.564 251.656 75.3 251.344 74.98L251.692 74.296C251.988 74.584 252.384 74.828 252.88 75.028C253.384 75.22 253.912 75.316 254.464 75.316C254.992 75.316 255.42 75.252 255.748 75.124C256.084 74.988 256.328 74.808 256.48 74.584C256.64 74.36 256.72 74.112 256.72 73.84C256.72 73.512 256.624 73.248 256.432 73.048C256.248 72.848 256.004 72.692 255.7 72.58C255.396 72.46 255.06 72.356 254.692 72.268C254.324 72.18 253.956 72.088 253.588 71.992C253.22 71.888 252.88 71.752 252.568 71.584C252.264 71.416 252.016 71.196 251.824 70.924C251.64 70.644 251.548 70.28 251.548 69.832C251.548 69.416 251.656 69.036 251.872 68.692C252.096 68.34 252.436 68.06 252.892 67.852C253.348 67.636 253.932 67.528 254.644 67.528C255.116 67.528 255.584 67.596 256.048 67.732C256.512 67.86 256.912 68.04 257.248 68.272L256.948 68.98C256.588 68.74 256.204 68.564 255.796 68.452C255.396 68.34 255.008 68.284 254.632 68.284C254.128 68.284 253.712 68.352 253.384 68.488C253.056 68.624 252.812 68.808 252.652 69.04C252.5 69.264 252.424 69.52 252.424 69.808C252.424 70.136 252.516 70.4 252.7 70.6C252.892 70.8 253.14 70.956 253.444 71.068C253.756 71.18 254.096 71.28 254.464 71.368C254.832 71.456 255.196 71.552 255.556 71.656C255.924 71.76 256.26 71.896 256.564 72.064C256.876 72.224 257.124 72.44 257.308 72.712C257.5 72.984 257.596 73.34 257.596 73.78C257.596 74.188 257.484 74.568 257.26 74.92C257.036 75.264 256.692 75.544 256.228 75.76C255.772 75.968 255.184 76.072 254.464 76.072ZM265.792 76V67.6H266.524L270.364 74.152H269.98L273.784 67.6H274.516V76H273.664V68.932H273.868L270.364 74.932H269.944L266.416 68.932H266.644V76H265.792ZM282.485 76.072C281.853 76.072 281.265 75.968 280.721 75.76C280.185 75.544 279.717 75.244 279.317 74.86C278.925 74.468 278.617 74.016 278.393 73.504C278.177 72.984 278.069 72.416 278.069 71.8C278.069 71.184 278.177 70.62 278.393 70.108C278.617 69.588 278.925 69.136 279.317 68.752C279.717 68.36 280.185 68.06 280.721 67.852C281.257 67.636 281.845 67.528 282.485 67.528C283.117 67.528 283.701 67.636 284.237 67.852C284.773 68.06 285.237 68.356 285.629 68.74C286.029 69.124 286.337 69.576 286.553 70.096C286.777 70.616 286.889 71.184 286.889 71.8C286.889 72.416 286.777 72.984 286.553 73.504C286.337 74.024 286.029 74.476 285.629 74.86C285.237 75.244 284.773 75.544 284.237 75.76C283.701 75.968 283.117 76.072 282.485 76.072ZM282.485 75.28C282.989 75.28 283.453 75.196 283.877 75.028C284.309 74.852 284.681 74.608 284.993 74.296C285.313 73.976 285.561 73.608 285.737 73.192C285.913 72.768 286.001 72.304 286.001 71.8C286.001 71.296 285.913 70.836 285.737 70.42C285.561 69.996 285.313 69.628 284.993 69.316C284.681 68.996 284.309 68.752 283.877 68.584C283.453 68.408 282.989 68.32 282.485 68.32C281.981 68.32 281.513 68.408 281.081 68.584C280.649 68.752 280.273 68.996 279.953 69.316C279.641 69.628 279.393 69.996 279.209 70.42C279.033 70.836 278.945 71.296 278.945 71.8C278.945 72.296 279.033 72.756 279.209 73.18C279.393 73.604 279.641 73.976 279.953 74.296C280.273 74.608 280.649 74.852 281.081 75.028C281.513 75.196 281.981 75.28 282.485 75.28ZM290.439 76V67.6H291.171L296.967 74.896H296.583V67.6H297.459V76H296.727L290.943 68.704H291.327V76H290.439ZM302.553 71.356H306.993V72.112H302.553V71.356ZM302.649 75.232H307.701V76H301.761V67.6H307.521V68.368H302.649V75.232ZM313.247 76V72.88L313.451 73.432L309.887 67.6H310.835L313.967 72.724H313.463L316.595 67.6H317.483L313.919 73.432L314.123 72.88V76H313.247ZM325.121 76V67.6H326.009V76H325.121ZM330.302 76V67.6H331.034L336.83 74.896H336.446V67.6H337.322V76H336.59L330.806 68.704H331.19V76H330.302ZM344.98 76L348.82 67.6H349.696L353.536 76H352.6L349.072 68.116H349.432L345.904 76H344.98ZM346.492 73.756L346.756 73.036H351.64L351.904 73.756H346.492ZM361.186 76V67.6H364.81C365.746 67.6 366.47 67.788 366.982 68.164C367.502 68.54 367.762 69.072 367.762 69.76C367.762 70.216 367.654 70.6 367.438 70.912C367.23 71.224 366.942 71.46 366.574 71.62C366.214 71.78 365.818 71.86 365.386 71.86L365.59 71.572C366.126 71.572 366.586 71.656 366.97 71.824C367.362 71.984 367.666 72.228 367.882 72.556C368.098 72.876 368.206 73.276 368.206 73.756C368.206 74.468 367.942 75.02 367.414 75.412C366.894 75.804 366.106 76 365.05 76H361.186ZM362.074 75.268H365.038C365.774 75.268 366.338 75.144 366.73 74.896C367.122 74.64 367.318 74.236 367.318 73.684C367.318 73.14 367.122 72.744 366.73 72.496C366.338 72.24 365.774 72.112 365.038 72.112H361.978V71.38H364.75C365.422 71.38 365.942 71.252 366.31 70.996C366.686 70.74 366.874 70.36 366.874 69.856C366.874 69.344 366.686 68.964 366.31 68.716C365.942 68.46 365.422 68.332 364.75 68.332H362.074V75.268ZM370.449 76L374.289 67.6H375.165L379.005 76H378.069L374.541 68.116H374.901L371.373 76H370.449ZM371.961 73.756L372.225 73.036H377.109L377.373 73.756H371.961ZM381.955 76V67.6H382.687L388.483 74.896H388.099V67.6H388.975V76H388.243L382.459 68.704H382.843V76H381.955ZM394.044 73.912L394.008 72.832L399.096 67.6H400.116L396.408 71.488L395.904 72.028L394.044 73.912ZM393.276 76V67.6H394.164V76H393.276ZM399.312 76L395.688 71.824L396.288 71.176L400.368 76H399.312Z" fill="white"/>
<defs>
<filter id="filter0_d_1078_1085" x="9.24268" y="13.2429" width="67.4469" height="67.4485" filterUnits="userSpaceOnUse" color-interpolation-filters="sRGB">
<feFlood flood-opacity="0" result="BackgroundImageFix"/>
<feColorMatrix in="SourceAlpha" type="matrix" values="0 0 0 0 0 0 0 0 0 0 0 0 0 0 0 0 0 0 127 0" result="hardAlpha"/>
<feOffset dy="4"/>
<feGaussianBlur stdDeviation="2"/>
<feComposite in2="hardAlpha" operator="out"/>
<feColorMatrix type="matrix" values="0 0 0 0 0 0 0 0 0 0 0 0 0 0 0 0 0 0 0.25 0"/>
<feBlend mode="normal" in2="BackgroundImageFix" result="effect1_dropShadow_1078_1085"/>
<feBlend mode="normal" in="SourceGraphic" in2="effect1_dropShadow_1078_1085" result="shape"/>
</filter>
<filter id="filter1_d_1078_1085" x="88.576" y="15.2561" width="176.857" height="46.304" filterUnits="userSpaceOnUse" color-interpolation-filters="sRGB">
<feFlood flood-opacity="0" result="BackgroundImageFix"/>
<feColorMatrix in="SourceAlpha" type="matrix" values="0 0 0 0 0 0 0 0 0 0 0 0 0 0 0 0 0 0 127 0" result="hardAlpha"/>
<feOffset dy="4"/>
<feGaussianBlur stdDeviation="2"/>
<feComposite in2="hardAlpha" operator="out"/>
<feColorMatrix type="matrix" values="0 0 0 0 0 0 0 0 0 0 0 0 0 0 0 0 0 0 0.25 0"/>
<feBlend mode="normal" in2="BackgroundImageFix" result="effect1_dropShadow_1078_1085"/>
<feBlend mode="normal" in="SourceGraphic" in2="effect1_dropShadow_1078_1085" result="shape"/>
</filter>
</defs>
</svg>
