<svg xmlns="http://www.w3.org/2000/svg" width="401" height="86" fill="none">
  <g fill="#A5ED5D" filter="url(#a)">
    <path d="m28.4957 32.1593-2.1966-2.109-13.0564 13.4642 13.5291 12.9891 3.2087-3.309c.2584.5585.6237 1.0795 1.0954 1.5323 2.0377 1.9564 5.2841 1.8984 7.2506-.1295 1.9665-2.028 1.9087-5.2582-.129-7.2146-.4716-.4528-1.0079-.7974-1.5781-1.0344l3.2088-3.309-2.1967-2.109c-2.4846 1.4103-5.7095 1.0959-7.8697-.9781-2.1627-2.0764-2.5937-5.272-1.2661-7.793Z"/>
    <path d="m29.4302 26.7736 3.3086 3.2086c-.5585.2584-1.0794.6236-1.5322 1.0952-1.9561 2.0376-1.8981 5.2838.1296 7.2501 2.0276 1.9664 5.2575 1.9087 7.2136-.1289.4528-.4716.7973-1.0079 1.0343-1.578l3.3086 3.2085 2.2088-2.3007c-1.1593-2.4224-.7721-5.4204 1.1915-7.4658 1.9636-2.0453 4.9308-2.5414 7.3809-1.4635l2.2088-2.3007-13.4625-13.0555-12.99 13.5307Z"/>
    <path d="M56.0549 32.6336c-.2352-.4061-.5289-.7882-.8858-1.1284-2.0377-1.9564-5.2841-1.8983-7.2506.1296-1.9665 2.0279-1.9088 5.2581.1289 7.2145.357.3428.7487.6212 1.1649.8405l-3.1082 3.2053 2.5094 2.4092c2.4846-1.4103 5.7095-1.0959 7.8696.978 2.1602 2.074 2.5912 5.267 1.2636 7.7906l1.8865 1.8113L72.6896 42.42 59.1605 29.4309l-3.1056 3.2027Z"/>
    <path d="M47.7121 48.0377c-.4534.4717-.7985 1.0081-1.0358 1.5784l-3.6244-3.5109-2.1115 2.197c1.4119 2.4849 1.0971 5.7101-.9794 7.8706-2.0764 2.1605-5.2732 2.5916-7.7998 1.2638l-2.1116 2.197 13.48 13.0577 13.0048-13.531-3.0014-2.9073c.5593-.2584 1.0809-.6238 1.5342-1.0955 1.9588-2.038 1.9008-5.2848-.1295-7.2515-2.0328-1.9641-5.2669-1.9063-7.2256.1317Z"/>
  </g>
  <g filter="url(#b)">
    <path fill="#fff" d="M92.576 53c.2613 0 .504-.2613.728-.784.2613-.5227.392-1.3813.392-2.576V30.152c0-1.1947-.1307-2.0347-.392-2.52-.224-.5227-.4667-.8027-.728-.84h6.832V49.64c0 1.1947.112 2.0533.336 2.576.261.5227.523.784.784.784h-7.952Zm3.416-31.584c-1.0827 0-1.9227-.2987-2.52-.896-.5973-.6347-.896-1.3627-.896-2.184 0-.8587.28-1.5867.84-2.184.5973-.5973 1.456-.896 2.576-.896s1.96.2987 2.52.896c.5973.5973.896 1.3253.896 2.184 0 .8213-.2987 1.5493-.896 2.184-.5973.5973-1.4373.896-2.52.896Zm27.694 32.144c-4.069 0-7.672-.1867-10.808-.56-3.136-.3733-5.394-.7467-6.776-1.12v-1.12l-1.12-5.992c.523.5973 1.512 1.232 2.968 1.904 1.494.672 3.472 1.2507 5.936 1.736 2.464.448 5.395.672 8.792.672 3.062 0 5.376-.2053 6.944-.616 1.606-.448 2.688-1.0453 3.248-1.792.598-.784.896-1.68.896-2.688 0-1.1947-.485-2.1467-1.456-2.856-.97-.7093-2.426-1.2693-4.368-1.68-1.904-.448-4.274-.84-7.112-1.176-3.696-.4853-6.664-1.12-8.904-1.904-2.24-.8213-3.864-1.904-4.872-3.248-1.008-1.344-1.512-3.0427-1.512-5.096 0-1.7547.523-3.3227 1.568-4.704 1.083-1.3813 2.707-2.464 4.872-3.248 2.166-.8213 4.928-1.232 8.288-1.232 3.883 0 7.262.1867 10.136.56 2.875.3733 4.91.7467 6.104 1.12v1.12l1.68 5.04c-.784-.4853-1.997-.9893-3.64-1.512-1.605-.5227-3.546-.952-5.824-1.288-2.277-.3733-4.816-.56-7.616-.56-2.314 0-4.162.168-5.544.504-1.344.336-2.314.84-2.912 1.512-.56.6347-.84 1.4187-.84 2.352 0 1.232.448 2.2213 1.344 2.968.934.7467 2.278 1.3253 4.032 1.736 1.792.4107 3.958.7653 6.496 1.064 4.032.448 7.243 1.0827 9.632 1.904 2.39.8213 4.107 1.9227 5.152 3.304 1.046 1.3813 1.568 3.1733 1.568 5.376 0 1.456-.354 2.7813-1.064 3.976-.672 1.1573-1.698 2.1653-3.08 3.024-1.381.8213-3.098 1.456-5.152 1.904-2.016.4107-4.368.616-7.056.616Zm31.867 0c-4.069 0-6.925-.728-8.568-2.184-1.642-1.4933-2.464-3.4907-2.464-5.992 0-1.7547.43-3.248 1.288-4.48.896-1.2693 2.222-2.24 3.976-2.912 1.792-.672 4.051-1.008 6.776-1.008 1.942 0 3.622.1493 5.04.448 1.456.2613 2.632.5787 3.528.952.934.3733 1.587.6907 1.96.952 0-2.2027-.28-3.976-.84-5.32-.522-1.344-1.381-2.3147-2.576-2.912-1.194-.6347-2.818-.952-4.872-.952-2.202 0-4.181.2613-5.936.784-1.717.4853-3.098 1.0267-4.144 1.624-1.045.56-1.698.9707-1.96 1.232v-1.12l-.56-4.2c.336-.1493 1.064-.392 2.184-.728 1.12-.3733 2.595-.7093 4.424-1.008 1.83-.336 3.976-.504 6.44-.504 3.136 0 5.694.448 7.672 1.344 2.016.8587 3.491 2.2027 4.424 4.032.971 1.792 1.456 4.0693 1.456 6.832v11.2c0 1.0453.112 1.8107.336 2.296.262.448.523.8027.784 1.064h-6.832v-1.68l.112-1.064-.112-.056c-.597.56-1.306 1.0453-2.128 1.456-.821.4107-1.717.7653-2.688 1.064-.97.2613-2.034.4667-3.192.616-1.12.1493-2.296.224-3.528.224Zm1.848-3.976c2.016 0 3.752-.2053 5.208-.616 1.456-.4107 2.558-.952 3.304-1.624.784-.7093 1.176-1.512 1.176-2.408 0-1.12-.746-2.072-2.24-2.856-1.456-.784-3.733-1.176-6.832-1.176-2.874 0-4.909.3733-6.104 1.12-1.157.7467-1.736 1.8667-1.736 3.36 0 1.456.56 2.52 1.68 3.192 1.158.672 3.006 1.008 5.544 1.008ZM186.247 53c.261 0 .429-.2427.504-.728.112-.5227-.056-1.4-.504-2.632-.187-.4853-.541-1.344-1.064-2.576s-1.139-2.6507-1.848-4.256c-.709-1.6427-1.437-3.2853-2.184-4.928-.747-1.68-1.437-3.192-2.072-4.536-.635-1.3813-1.139-2.408-1.512-3.08-.635-1.1947-1.213-2.0533-1.736-2.576-.523-.56-.896-.8587-1.12-.896h9.128c-.336 0-.56.2613-.672.784-.112.5227.112 1.4187.672 2.688.299.6347.709 1.6053 1.232 2.912.523 1.2693 1.101 2.744 1.736 4.424.672 1.6427 1.344 3.3227 2.016 5.04.709 1.7173 1.344 3.3227 1.904 4.816h.056c.597-1.5307 1.251-3.1547 1.96-4.872.709-1.7547 1.4-3.472 2.072-5.152.672-1.68 1.269-3.1547 1.792-4.424.56-1.3067.971-2.2587 1.232-2.856.523-1.1947.728-2.0533.616-2.576-.112-.5227-.317-.784-.616-.784h8.792c-.224 0-.579.2613-1.064.784-.448.4853-.971 1.3253-1.568 2.52-.336.6347-.821 1.6053-1.456 2.912s-1.344 2.7813-2.128 4.424c-.747 1.6053-1.493 3.2107-2.24 4.816-.709 1.6053-1.344 3.08-1.904 4.424-.523 1.3067-.877 2.296-1.064 2.968-.336 1.232-.467 2.1093-.392 2.632.075.4853.205.728.392.728h-8.96Zm35.338.56c-2.949 0-5.376-.336-7.28-1.008-1.904-.7093-3.397-1.68-4.48-2.912-1.083-1.232-1.848-2.6693-2.296-4.312-.411-1.6427-.616-3.4347-.616-5.376 0-4.2187 1.195-7.56 3.584-10.024 2.427-2.464 6.011-3.696 10.752-3.696 2.763 0 4.984.3733 6.664 1.12 1.717.7467 3.005 1.736 3.864 2.968.896 1.232 1.493 2.576 1.792 4.032.336 1.4187.504 2.8187.504 4.2v2.632c0-.112-.523-.224-1.568-.336-1.008-.1493-2.725-.224-5.152-.224h-14.728c0 2.7627.821 4.9467 2.464 6.552 1.643 1.6053 4.088 2.408 7.336 2.408 2.8 0 5.096-.336 6.888-1.008 1.829-.7093 3.043-1.4 3.64-2.072v1.12l.56 3.696c-.821.4853-2.277.9893-4.368 1.512-2.053.4853-4.573.728-7.56.728Zm-6.72-16.632h13.608c0-.9707-.205-1.9787-.616-3.024-.411-1.0453-1.139-1.9227-2.184-2.632-1.045-.7467-2.52-1.12-4.424-1.12-1.605 0-3.005.28-4.2.84-1.195.5227-2.128 1.2133-2.8 2.072-.635.8587-.952 1.7733-.952 2.744 0 .3733.112.6533.336.84.224.1867.635.28 1.232.28Zm24 16.072c.261 0 .504-.2613.728-.784.261-.5227.392-1.3813.392-2.576V30.712c0-1.1947-.131-2.0347-.392-2.52-.224-.5227-.467-.8027-.728-.84 1.643 0 3.061-.112 4.256-.336 1.232-.2613 2.091-.5227 2.576-.784v2.8l-.112.952.112.112c.56-.7467 1.232-1.4 2.016-1.96.821-.5973 1.755-1.064 2.8-1.4 1.045-.336 2.24-.504 3.584-.504 1.755 0 3.267.2613 4.536.784 1.307.4853 2.24.9893 2.8 1.512l-1.12 4.704v1.68c-.485-.5973-1.195-1.2133-2.128-1.848-.896-.672-1.923-1.232-3.08-1.68-1.157-.448-2.389-.672-3.696-.672-1.493 0-2.819.5973-3.976 1.792s-1.736 3.1733-1.736 5.936v11.2c0 1.1947.112 2.0533.336 2.576.261.5227.523.784.784.784h-7.952Z"/>
  </g>
  <path fill="#fff" d="M93.684 76.072c-.624 0-1.224-.1-1.8-.3-.568-.208-1.008-.472-1.32-.792l.348-.684c.296.288.692.532 1.188.732.504.192 1.032.288 1.584.288.528 0 .956-.064 1.284-.192.336-.136.58-.316.732-.54.16-.224.24-.472.24-.744 0-.328-.096-.592-.288-.792-.184-.2-.428-.356-.732-.468-.304-.12-.64-.224-1.008-.312s-.736-.18-1.104-.276c-.368-.104-.708-.24-1.02-.408-.304-.168-.552-.388-.744-.66-.184-.28-.276-.644-.276-1.092 0-.416.108-.796.324-1.14.224-.352.564-.632 1.02-.84.456-.216 1.04-.324 1.752-.324.472 0 .94.068 1.404.204.464.128.864.308 1.2.54l-.3.708c-.36-.24-.744-.416-1.152-.528-.4-.112-.788-.168-1.164-.168-.504 0-.92.068-1.248.204-.328.136-.572.32-.732.552-.152.224-.228.48-.228.768 0 .328.092.592.276.792.192.2.44.356.744.468.312.112.652.212 1.02.3s.732.184 1.092.288c.368.104.704.24 1.008.408.312.16.56.376.744.648.192.272.288.628.288 1.068 0 .408-.112.788-.336 1.14-.224.344-.568.624-1.032.84-.456.208-1.044.312-1.764.312Zm10.299 0c-.632 0-1.22-.104-1.764-.312-.536-.216-1.004-.516-1.404-.9-.392-.392-.7-.844-.9242-1.356-.216-.52-.324-1.088-.324-1.704 0-.616.108-1.18.324-1.692.2242-.52.5322-.972.9242-1.356.4-.392.868-.692 1.404-.9.536-.216 1.124-.324 1.764-.324.632 0 1.216.108 1.752.324.536.208 1 .504 1.392.888.4.384.708.836.924 1.356.224.52.336 1.088.336 1.704 0 .616-.112 1.184-.336 1.704-.216.52-.524.972-.924 1.356-.392.384-.856.684-1.392.9-.536.208-1.12.312-1.752.312Zm0-.792c.504 0 .968-.084 1.392-.252.432-.176.804-.42 1.116-.732.32-.32.568-.688.744-1.104.176-.424.264-.888.264-1.392 0-.504-.088-.964-.264-1.38-.176-.424-.424-.792-.744-1.104-.312-.32-.684-.564-1.116-.732-.424-.176-.888-.264-1.392-.264-.504 0-.972.088-1.404.264-.432.168-.808.412-1.128.732-.312.312-.56.68-.744 1.104-.176.416-.264.876-.264 1.38 0 .496.088.956.264 1.38.184.424.432.796.744 1.116.32.312.696.556 1.128.732.432.168.9.252 1.404.252Zm7.954.72v-8.4h.732l3.84 6.552h-.384l3.804-6.552h.732V76h-.852v-7.068h.204l-3.504 6h-.42l-3.528-6h.228V76h-.852Zm13.813-4.644h4.44v.756h-4.44v-.756Zm.096 3.876h5.052V76h-5.94v-8.4h5.76v.768h-4.872v6.864Zm12.348.84c-.632 0-1.22-.104-1.764-.312-.536-.216-1.004-.516-1.404-.9-.392-.392-.7-.844-.924-1.356-.216-.52-.324-1.088-.324-1.704 0-.616.108-1.18.324-1.692.224-.52.532-.972.924-1.356.4-.392.868-.692 1.404-.9.536-.216 1.124-.324 1.764-.324.632 0 1.216.108 1.752.324.536.208 1 .504 1.392.888.4.384.708.836.924 1.356.224.52.336 1.088.336 1.704 0 .616-.112 1.184-.336 1.704-.216.52-.524.972-.924 1.356-.392.384-.856.684-1.392.9-.536.208-1.12.312-1.752.312Zm0-.792c.504 0 .968-.084 1.392-.252.432-.176.804-.42 1.116-.732.32-.32.568-.688.744-1.104.176-.424.264-.888.264-1.392 0-.504-.088-.964-.264-1.38-.176-.424-.424-.792-.744-1.104-.312-.32-.684-.564-1.116-.732-.424-.176-.888-.264-1.392-.264-.504 0-.972.088-1.404.264-.432.168-.808.412-1.128.732-.312.312-.56.68-.744 1.104-.176.416-.264.876-.264 1.38 0 .496.088.956.264 1.38.184.424.432.796.744 1.116.32.312.696.556 1.128.732.432.168.9.252 1.404.252Zm7.954.72v-8.4h.732l5.796 7.296h-.384V67.6h.876V76h-.732l-5.784-7.296h.384V76h-.888Zm12.114-4.644h4.44v.756h-4.44v-.756Zm.096 3.876h5.052V76h-5.94v-8.4h5.76v.768h-4.872v6.864Zm15.308.768-2.832-8.4h.912l2.652 7.908h-.456l2.736-7.908h.816l2.7 7.908h-.432l2.676-7.908h.852l-2.832 8.4h-.936l-2.58-7.5h.24L174.59 76h-.924Zm18.956-8.4h.876V76h-.876v-8.4Zm-5.256 8.4h-.888v-8.4h.888V76Zm5.34-3.876h-5.436v-.78h5.436v.78Zm8.766 3.948c-.632 0-1.22-.104-1.764-.312-.536-.216-1.004-.516-1.404-.9-.392-.392-.7-.844-.924-1.356-.216-.52-.324-1.088-.324-1.704 0-.616.108-1.18.324-1.692.224-.52.532-.972.924-1.356.4-.392.868-.692 1.404-.9.536-.216 1.124-.324 1.764-.324.632 0 1.216.108 1.752.324.536.208 1 .504 1.392.888.4.384.708.836.924 1.356.224.52.336 1.088.336 1.704 0 .616-.112 1.184-.336 1.704-.216.52-.524.972-.924 1.356-.392.384-.856.684-1.392.9-.536.208-1.12.312-1.752.312Zm0-.792c.504 0 .968-.084 1.392-.252.432-.176.804-.42 1.116-.732.32-.32.568-.688.744-1.104.176-.424.264-.888.264-1.392 0-.504-.088-.964-.264-1.38-.176-.424-.424-.792-.744-1.104-.312-.32-.684-.564-1.116-.732-.424-.176-.888-.264-1.392-.264-.504 0-.972.088-1.404.264-.432.168-.808.412-1.128.732-.312.312-.56.68-.744 1.104-.176.416-.264.876-.264 1.38 0 .496.088.956.264 1.38.184.424.432.796.744 1.116.32.312.696.556 1.128.732.432.168.9.252 1.404.252Zm14.971.792c-.624 0-1.224-.1-1.8-.3-.568-.208-1.008-.472-1.32-.792l.348-.684c.296.288.692.532 1.188.732.504.192 1.032.288 1.584.288.528 0 .956-.064 1.284-.192.336-.136.58-.316.732-.54.16-.224.24-.472.24-.744 0-.328-.096-.592-.288-.792-.184-.2-.428-.356-.732-.468-.304-.12-.64-.224-1.008-.312s-.736-.18-1.104-.276c-.368-.104-.708-.24-1.02-.408-.304-.168-.552-.388-.744-.66-.184-.28-.276-.644-.276-1.092 0-.416.108-.796.324-1.14.224-.352.564-.632 1.02-.84.456-.216 1.04-.324 1.752-.324.472 0 .94.068 1.404.204.464.128.864.308 1.2.54l-.3.708c-.36-.24-.744-.416-1.152-.528-.4-.112-.788-.168-1.164-.168-.504 0-.92.068-1.248.204-.328.136-.572.32-.732.552-.152.224-.228.48-.228.768 0 .328.092.592.276.792.192.2.44.356.744.468.312.112.652.212 1.02.3s.732.184 1.092.288c.368.104.704.24 1.008.408.312.16.56.376.744.648.192.272.288.628.288 1.068 0 .408-.112.788-.336 1.14-.224.344-.568.624-1.032.84-.456.208-1.044.312-1.764.312Zm5.283-.072 3.84-8.4h.876l3.84 8.4h-.936l-3.528-7.884h.36L222.65 76h-.924Zm1.512-2.244.264-.72h4.884l.264.72h-5.412ZM235.186 76l-3.72-8.4h.96l3.48 7.908h-.528l3.504-7.908h.9l-3.72 8.4h-.876Zm8.167-4.644h4.44v.756h-4.44v-.756Zm.096 3.876h5.052V76h-5.94v-8.4h5.76v.768h-4.872v6.864Zm11.015.84c-.624 0-1.224-.1-1.8-.3-.568-.208-1.008-.472-1.32-.792l.348-.684c.296.288.692.532 1.188.732.504.192 1.032.288 1.584.288.528 0 .956-.064 1.284-.192.336-.136.58-.316.732-.54.16-.224.24-.472.24-.744 0-.328-.096-.592-.288-.792-.184-.2-.428-.356-.732-.468-.304-.12-.64-.224-1.008-.312s-.736-.18-1.104-.276c-.368-.104-.708-.24-1.02-.408-.304-.168-.552-.388-.744-.66-.184-.28-.276-.644-.276-1.092 0-.416.108-.796.324-1.14.224-.352.564-.632 1.02-.84.456-.216 1.04-.324 1.752-.324.472 0 .94.068 1.404.204.464.128.864.308 1.2.54l-.3.708c-.36-.24-.744-.416-1.152-.528-.4-.112-.788-.168-1.164-.168-.504 0-.92.068-1.248.204-.328.136-.572.32-.732.552-.152.224-.228.48-.228.768 0 .328.092.592.276.792.192.2.44.356.744.468.312.112.652.212 1.02.3s.732.184 1.092.288c.368.104.704.24 1.008.408.312.16.56.376.744.648.192.272.288.628.288 1.068 0 .408-.112.788-.336 1.14-.224.344-.568.624-1.032.84-.456.208-1.044.312-1.764.312ZM265.792 76v-8.4h.732l3.84 6.552h-.384l3.804-6.552h.732V76h-.852v-7.068h.204l-3.504 6h-.42l-3.528-6h.228V76h-.852Zm16.693.072c-.632 0-1.22-.104-1.764-.312-.536-.216-1.004-.516-1.404-.9-.392-.392-.7-.844-.924-1.356-.216-.52-.324-1.088-.324-1.704 0-.616.108-1.18.324-1.692.224-.52.532-.972.924-1.356.4-.392.868-.692 1.404-.9.536-.216 1.124-.324 1.764-.324.632 0 1.216.108 1.752.324.536.208 1 .504 1.392.888.4.384.708.836.924 1.356.224.52.336 1.088.336 1.704 0 .616-.112 1.184-.336 1.704-.216.52-.524.972-.924 1.356-.392.384-.856.684-1.392.9-.536.208-1.12.312-1.752.312Zm0-.792c.504 0 .968-.084 1.392-.252.432-.176.804-.42 1.116-.732.32-.32.568-.688.744-1.104.176-.424.264-.888.264-1.392 0-.504-.088-.964-.264-1.38-.176-.424-.424-.792-.744-1.104-.312-.32-.684-.564-1.116-.732-.424-.176-.888-.264-1.392-.264-.504 0-.972.088-1.404.264-.432.168-.808.412-1.128.732-.312.312-.56.68-.744 1.104-.176.416-.264.876-.264 1.38 0 .496.088.956.264 1.38.184.424.432.796.744 1.116.32.312.696.556 1.128.732.432.168.9.252 1.404.252Zm7.954.72v-8.4h.732l5.796 7.296h-.384V67.6h.876V76h-.732l-5.784-7.296h.384V76h-.888Zm12.114-4.644h4.44v.756h-4.44v-.756Zm.096 3.876h5.052V76h-5.94v-8.4h5.76v.768h-4.872v6.864Zm10.598.768v-3.12l.204.552-3.564-5.832h.948l3.132 5.124h-.504l3.132-5.124h.888l-3.564 5.832.204-.552V76h-.876Zm11.874 0v-8.4h.888V76h-.888Zm5.181 0v-8.4h.732l5.796 7.296h-.384V67.6h.876V76h-.732l-5.784-7.296h.384V76h-.888Zm14.678 0 3.84-8.4h.876l3.84 8.4h-.936l-3.528-7.884h.36L345.904 76h-.924Zm1.512-2.244.264-.72h4.884l.264.72h-5.412ZM361.186 76v-8.4h3.624c.936 0 1.66.188 2.172.564.52.376.78.908.78 1.596 0 .456-.108.84-.324 1.152-.208.312-.496.548-.864.708-.36.16-.756.24-1.188.24l.204-.288c.536 0 .996.084 1.38.252.392.16.696.404.912.732.216.32.324.72.324 1.2 0 .712-.264 1.264-.792 1.656-.52.392-1.308.588-2.364.588h-3.864Zm.888-.732h2.964c.736 0 1.3-.124 1.692-.372.392-.256.588-.66.588-1.212 0-.544-.196-.94-.588-1.188-.392-.256-.956-.384-1.692-.384h-3.06v-.732h2.772c.672 0 1.192-.128 1.56-.384.376-.256.564-.636.564-1.14 0-.512-.188-.892-.564-1.14-.368-.256-.888-.384-1.56-.384h-2.676v6.936Zm8.375.732 3.84-8.4h.876l3.84 8.4h-.936l-3.528-7.884h.36L371.373 76h-.924Zm1.512-2.244.264-.72h4.884l.264.72h-5.412ZM381.955 76v-8.4h.732l5.796 7.296h-.384V67.6h.876V76h-.732l-5.784-7.296h.384V76h-.888Zm12.089-2.088-.036-1.08 5.088-5.232h1.02l-3.708 3.888-.504.54-1.86 1.884ZM393.276 76v-8.4h.888V76h-.888Zm6.036 0-3.624-4.176.6-.648 4.08 4.824h-1.056Z"/>
  <defs>
    <filter id="a" width="67.4469" height="67.4485" x="9.24268" y="13.2429" color-interpolation-filters="sRGB" filterUnits="userSpaceOnUse">
      <feFlood flood-opacity="0" result="BackgroundImageFix"/>
      <feColorMatrix in="SourceAlpha" result="hardAlpha" values="0 0 0 0 0 0 0 0 0 0 0 0 0 0 0 0 0 0 127 0"/>
      <feOffset dy="4"/>
      <feGaussianBlur stdDeviation="2"/>
      <feComposite in2="hardAlpha" operator="out"/>
      <feColorMatrix values="0 0 0 0 0 0 0 0 0 0 0 0 0 0 0 0 0 0 0.25 0"/>
      <feBlend in2="BackgroundImageFix" result="effect1_dropShadow_1078_1085"/>
      <feBlend in="SourceGraphic" in2="effect1_dropShadow_1078_1085" result="shape"/>
    </filter>
    <filter id="b" width="176.857" height="46.304" x="88.576" y="15.2561" color-interpolation-filters="sRGB" filterUnits="userSpaceOnUse">
      <feFlood flood-opacity="0" result="BackgroundImageFix"/>
      <feColorMatrix in="SourceAlpha" result="hardAlpha" values="0 0 0 0 0 0 0 0 0 0 0 0 0 0 0 0 0 0 127 0"/>
      <feOffset dy="4"/>
      <feGaussianBlur stdDeviation="2"/>
      <feComposite in2="hardAlpha" operator="out"/>
      <feColorMatrix values="0 0 0 0 0 0 0 0 0 0 0 0 0 0 0 0 0 0 0.25 0"/>
      <feBlend in2="BackgroundImageFix" result="effect1_dropShadow_1078_1085"/>
      <feBlend in="SourceGraphic" in2="effect1_dropShadow_1078_1085" result="shape"/>
    </filter>
  </defs>
</svg>