<svg xmlns="http://www.w3.org/2000/svg" width="76" height="76" fill="none">
  <ellipse cx="38.0217" cy="38.0216" fill="url(#a)" rx="34.2873" ry="34.2882"/>
  <g fill="#A5ED5D" filter="url(#b)">
    <path d="m25.1824 28.4194-1.9412-1.8637L11.703 38.4543 23.6589 49.933l2.8357-2.9242c.2284.4936.5512.954.968 1.3541 1.8007 1.7289 4.6696 1.6777 6.4075-.1145 1.7378-1.7921 1.6868-4.6467-.114-6.3756-.4168-.4001-.8907-.7047-1.3946-.9141l2.8356-2.9243-1.9412-1.8637c-2.1957 1.2463-5.0456.9684-6.9546-.8644-1.9113-1.835-2.2922-4.6589-1.1189-6.8869Z"/>
    <path d="m26.0088 23.6606 2.9238 2.8355c-.4935.2283-.9539.5511-1.354.9679-1.7286 1.8006-1.6774 4.6693.1145 6.407 1.7919 1.7378 4.6462 1.6868 6.3749-.1139.4001-.4167.7046-.8906.914-1.3945l2.9239 2.8354 1.9519-2.0332c-1.0245-2.1407-.6823-4.7901 1.053-6.5976 1.7353-1.8076 4.3575-2.2459 6.5226-1.2934l1.952-2.0332-11.8971-11.5374-11.4795 11.9574Z"/>
    <path d="M49.5377 28.8391c-.2079-.3589-.4674-.6965-.7828-.9972-1.8008-1.7289-4.6697-1.6776-6.4075.1145-1.7379 1.7922-1.6868 4.6468.1139 6.3757.3155.3028.6616.5489 1.0295.7427l-2.7468 2.8326 2.2176 2.129c2.1957-1.2463 5.0456-.9684 6.9546.8644 1.909 1.8328 2.2898 4.6545 1.1166 6.8847L52.7 49.3861l11.5381-11.8985-11.9559-11.4788-2.7445 2.8303Z"/>
    <path d="M42.1642 42.4518c-.4006.4169-.7055.8909-.9152 1.3949l-3.203-3.1027-1.866 1.9415c1.2477 2.196.9695 5.0462-.8655 6.9555s-4.6601 2.2902-6.8929 1.1169l-1.866 1.9415 11.9125 11.5394 11.4926-11.9577-2.6523-2.5692c.4942-.2284.9551-.5513 1.3558-.9681 1.7309-1.8011 1.6797-4.6703-.1145-6.4083-1.7965-1.7357-4.6545-1.6847-6.3855.1163Z"/>
  </g>
  <defs>
    <radialGradient id="a" cx="0" cy="0" r="1" gradientTransform="matrix(42.7034 0 0 38.6778 38.0217 38.0222)" gradientUnits="userSpaceOnUse">
      <stop stop-color="#00A074"/>
      <stop offset=".202" stop-color="#00624B"/>
      <stop offset=".5244" stop-color="#004B42"/>
      <stop offset=".6308" stop-color="#003D39"/>
      <stop offset=".9516" stop-color="#002C23"/>
    </radialGradient>
    <filter id="b" width="61.5352" height="60.5361" x="11.7031" y="8.70312" color-interpolation-filters="sRGB" filterUnits="userSpaceOnUse">
      <feFlood flood-opacity="0" result="BackgroundImageFix"/>
      <feColorMatrix in="SourceAlpha" result="hardAlpha" values="0 0 0 0 0 0 0 0 0 0 0 0 0 0 0 0 0 0 127 0"/>
      <feOffset dx="5" dy="1"/>
      <feGaussianBlur stdDeviation="2"/>
      <feComposite in2="hardAlpha" operator="out"/>
      <feColorMatrix values="0 0 0 0 0 0 0 0 0 0 0 0 0 0 0 0 0 0 0.89 0"/>
      <feBlend in2="BackgroundImageFix" result="effect1_dropShadow_753_4387"/>
      <feBlend in="SourceGraphic" in2="effect1_dropShadow_753_4387" result="shape"/>
    </filter>
  </defs>
</svg>