<svg xmlns="http://www.w3.org/2000/svg" width="37" height="37" fill="none">
  <path fill="#5BC3D1" d="m12.2636 13.8409-.9444-.9067-5.6216 5.7973 5.8162 5.584 1.3815-1.4248c.111.2403.268.4643.4708.6589.876.8411 2.2727.815 3.1194-.0581.8467-.8732.8229-2.263-.0531-3.104-.2027-.1947-.4334-.3428-.6786-.4445l1.3816-1.4248-.9444-.9066c-1.0694.6076-2.4567.4734-3.3853-.4182-.9298-.8927-1.1142-2.2674-.5421-3.3525Z"/>
  <path fill="#5BC3D1" d="m12.6673 11.5233 1.4224 1.3794c-.2404.1114-.4646.2687-.6595.4717-.8423.8774-.8184 2.274.0533 3.1193.8717.8454 2.2612.8194 3.1035-.0579.1949-.203.3433-.4339.4455-.6793l1.4223 1.3794.9511-.9906c-.498-1.0418-.3304-2.3318.5151-3.2125s2.1222-1.0951 3.1759-.6322l.951-.9906-5.7875-5.61253-5.5931 5.82583Z"/>
  <path fill="#5BC3D1" d="M24.12 14.0356c-.1011-.1746-.2273-.3389-.3807-.4851-.876-.8411-2.2727-.815-3.1194.0581-.8467.8732-.823 2.263.053 3.104.1535.1473.3219.267.5009.3612l-1.3383 1.3801 1.0788 1.0357c1.0694-.6076 2.4567-.4734 3.3854.4182.9286.8916 1.113 2.2652.541 3.3514l.811.7787 5.6216-5.7973-5.8161-5.5839-1.3372 1.3789Z"/>
  <path fill="#5BC3D1" d="M20.5256 20.6659c-.1953.2031-.3439.434-.4462.6795l-1.5581-1.5094-.9091.946c.6066 1.0686.47 2.4564-.424 3.3866-.8941.9302-2.2696 1.1168-3.3561.5464l-.9092.9459 5.795 5.6135 5.5995-5.826-1.2903-1.2498c.2407-.1114.4652-.2688.6604-.4719.8434-.8775.8195-2.2743-.0533-3.1198-.8739-.8444-2.2653-.8185-3.1086.059Z"/>
</svg>