<svg xmlns="http://www.w3.org/2000/svg" width="247" height="162" fill="none">
  <g filter="url(#aqwe)">
    <path fill="currentColor" fill-rule="evenodd" d="M201 10c0-2.76142-2.239-5-5-5H16c-2.7614 0-5 2.23857-5 5v130c0 2.761 2.2386 5 5 5h180c2.761 0 5-2.239 5-5v-35.453c0-3.746 4.081-6.255 7.794-5.7593 1.049.14 2.119.2123 3.206.2123 13.255 0 24-10.7452 24-24s-10.745-24-24-24c-1.087 0-2.157.0723-3.206.2123-3.713.4957-7.794-2.0137-7.794-5.7594V10Z" clip-rule="evenodd"/>
  </g>
  <defs>
    <filter id="aqwe" width="247" height="162" x="0" y="0" color-interpolation-filters="sRGB" filterUnits="userSpaceOnUse">
      <feFlood flood-opacity="0" result="BackgroundImageFix"/>
      <feColorMatrix in="SourceAlpha" result="hardAlpha" values="0 0 0 0 0 0 0 0 0 0 0 0 0 0 0 0 0 0 127 0"/>
      <feOffset dy="6"/>
      <feGaussianBlur stdDeviation="5.5"/>
      <feComposite in2="hardAlpha" operator="out"/>
      <feColorMatrix values="0 0 0 0 0 0 0 0 0 0 0 0 0 0 0 0 0 0 0.25 0"/>
      <feBlend in2="BackgroundImageFix" result="effect1_dropShadow_1560_890"/>
      <feBlend in="SourceGraphic" in2="effect1_dropShadow_1560_890" result="shape"/>
    </filter>
  </defs>
</svg>