<svg xmlns="http://www.w3.org/2000/svg" width="251" height="162" fill="none"><path fill="currentColor" fill-rule="evenodd" d="M11 10c0-2.76142 2.2386-5 5-5h219c2.761 0 5 2.23857 5 5v40.362c0 1.4801-1.242 2.638-2.722 2.638-13.007 0-23.551 10.0736-23.551 22.5S224.271 98 237.278 98c1.474 0 2.722 1.1408 2.722 2.614V140c0 2.761-2.239 5-5 5H16c-2.7614 0-5-2.239-5-5v-39.386C11 99.1408 12.2482 98 13.7219 98c13.0071 0 23.5515-10.0736 23.5515-22.5S26.729 53 13.7219 53C12.2418 53 11 51.8421 11 50.362V10Z" clip-rule="evenodd" shape-rendering="crispEdges"/><defs><filter id="a" width="251" height="162" x="0" y="0" color-interpolation-filters="sRGB" filterUnits="userSpaceOnUse"><feFlood flood-opacity="0" result="BackgroundImageFix"/><feColorMatrix in="SourceAlpha" result="hardAlpha" values="0 0 0 0 0 0 0 0 0 0 0 0 0 0 0 0 0 0 127 0"/><feOffset dy="6"/><feGaussianBlur stdDeviation="5.5"/><feComposite in2="hardAlpha" operator="out"/><feColorMatrix values="0 0 0 0 0 0 0 0 0 0 0 0 0 0 0 0 0 0 0.25 0"/><feBlend in2="BackgroundImageFix" result="effect1_dropShadow_509_490"/><feBlend in="SourceGraphic" in2="effect1_dropShadow_509_490" result="shape"/></filter></defs></svg>