<svg xmlns="http://www.w3.org/2000/svg" width="263" height="178" fill="none"><g filter="url(#a)"><mask id="b" fill="#fff"><path fill-rule="evenodd" d="M19 15c0-2.7614 2.2386-5 5-5h180c2.761 0 5 2.2386 5 5v35.4529c0 3.7458 4.081 6.2551 7.794 5.7594 1.049-.14 2.119-.2123 3.206-.2123 13.255 0 24 10.7452 24 24s-10.745 24-24 24c-1.087 0-2.157-.072-3.206-.212-3.713-.496-7.794 2.013-7.794 5.759V145c0 2.761-2.239 5-5 5H24c-2.7614 0-5-2.239-5-5v-34.045c0-3.003 2.6269-5.299 5.6219-5.083 1.1683.085 2.1745.128 2.9947.128C41.9116 106 53.5 94.3594 53.5 80S41.9116 54 27.6166 54c-.8509 0-1.9022.0359-3.1268.1065-2.947.17-5.4898-2.1174-5.4898-5.0692V15Z" clip-rule="evenodd"/></mask><path fill="#264737" fill-opacity=".5" fill-rule="evenodd" d="M19 15c0-2.7614 2.2386-5 5-5h180c2.761 0 5 2.2386 5 5v35.4529c0 3.7458 4.081 6.2551 7.794 5.7594 1.049-.14 2.119-.2123 3.206-.2123 13.255 0 24 10.7452 24 24s-10.745 24-24 24c-1.087 0-2.157-.072-3.206-.212-3.713-.496-7.794 2.013-7.794 5.759V145c0 2.761-2.239 5-5 5H24c-2.7614 0-5-2.239-5-5v-34.045c0-3.003 2.6269-5.299 5.6219-5.083 1.1683.085 2.1745.128 2.9947.128C41.9116 106 53.5 94.3594 53.5 80S41.9116 54 27.6166 54c-.8509 0-1.9022.0359-3.1268.1065-2.947.17-5.4898-2.1174-5.4898-5.0692V15Z" clip-rule="evenodd" shape-rendering="crispEdges"/><path fill="" d="m216.794 56.2123.264 1.9824-.264-1.9824Zm0 47.5757-.265 1.982.265-1.982ZM204 8H24v4h180V8Zm7 42.4529V15h-4v35.4529h4Zm6.058 7.7418C218.02 58.0664 219.002 58 220 58v-4c-1.176 0-2.335.0782-3.471.2299l.529 3.9648ZM220 58c12.15 0 22 9.8497 22 22h4c0-14.3594-11.641-26-26-26v4Zm22 22c0 12.1503-9.85 22-22 22v4c14.359 0 26-11.6406 26-26h-4Zm-22 22c-.998 0-1.98-.066-2.942-.195l-.529 3.965c1.136.152 2.295.23 3.471.23v-4Zm-9 43v-35.453h-4V145h4Zm-187 7h180v-4H24v4Zm-7-41.045V145h4v-34.045h-4ZM27.6166 104c-.7561 0-1.7111-.04-2.8508-.122l-.2878 3.989c1.1968.087 2.2543.133 3.1386.133v-4ZM51.5 80c0 13.2633-10.7014 24-23.8834 24v4C43.0246 108 55.5 95.4555 55.5 80h-4ZM27.6166 56C40.7986 56 51.5 66.7367 51.5 80h4c0-15.4555-12.4754-28-27.8834-28v4Zm-3.0117.1032c1.2017-.0693 2.212-.1032 3.0117-.1032v-4c-.9022 0-1.9944.0379-3.242.1099l.2303 3.9933ZM17 15v34.0373h4V15h-4Zm4 95.955c0-1.765 1.564-3.226 3.478-3.088l.2878-3.989C20.6899 103.584 17 106.715 17 110.955h4ZM24 148c-1.6569 0-3-1.343-3-3h-4c0 3.866 3.134 7 7 7v-4Zm183-3c0 1.657-1.343 3-3 3v4c3.866 0 7-3.134 7-7h-4ZM24.3746 52.1099C22.5167 52.217 21 50.781 21 49.0373h-4c0 4.1598 3.569 7.2986 7.6049 7.0659l-.2303-3.9933ZM207 50.4529c0 2.6634 1.463 4.7892 3.362 6.1115 1.882 1.3109 4.331 1.9462 6.696 1.6303l-.529-3.9648c-1.347.1798-2.795-.1918-3.882-.9481-1.069-.7448-1.647-1.7465-1.647-2.8289h-4Zm10.058 51.3521c-2.365-.316-4.814.32-6.696 1.631-1.899 1.322-3.362 3.448-3.362 6.111h4c0-1.082.578-2.084 1.647-2.829 1.087-.756 2.535-1.128 3.882-.948l.529-3.965ZM24 8c-3.866 0-7 3.134-7 7h4c0-1.6569 1.3431-3 3-3V8Zm180 4c1.657 0 3 1.3431 3 3h4c0-3.866-3.134-7-7-7v4Z" mask="url(#b)"/></g><defs><filter id="a" width="263" height="178" x="0" y="0" color-interpolation-filters="sRGB" filterUnits="userSpaceOnUse"><feFlood flood-opacity="0" result="BackgroundImageFix"/><feColorMatrix in="SourceAlpha" result="hardAlpha" values="0 0 0 0 0 0 0 0 0 0 0 0 0 0 0 0 0 0 127 0"/><feOffset dy="9"/><feGaussianBlur stdDeviation="9.5"/><feComposite in2="hardAlpha" operator="out"/><feColorMatrix values="0 0 0 0 0.419608 0 0 0 0 0.788235 0 0 0 0 0.356863 0 0 0 0.33 0"/><feBlend in2="BackgroundImageFix" result="effect1_dropShadow_509_520"/><feBlend in="SourceGraphic" in2="effect1_dropShadow_509_520" result="shape"/></filter></defs></svg>