<svg xmlns="http://www.w3.org/2000/svg" width="212" height="162" fill="none">
    <g filter="url(#filter0_d_546_1229)">
        <path fill="#264737" fill-opacity=".5" fill-rule="evenodd" d="M201 10c0-2.76142-2.239-5-5-5H16c-2.7614 0-5 2.23858-5 5v34.064c0 2.9542 2.5469 5.2446 5.4956 5.0641C17.8822 49.0433 19.0622 49 20 49c14.3594 0 26 11.6406 26 26s-11.6406 26-26 26c-.9077 0-2.0422-.053-3.3713-.155-2.9968-.229-5.6287 2.07-5.6287 5.076V140c0 2.761 2.2386 5 5 5h180c2.761 0 5-2.239 5-5V10Z" clip-rule="evenodd" shape-rendering="crispEdges"/>
    </g>
    <defs>
        <filter id="filter0_d_546_1229" width="212" height="162" x="0" y="0" color-interpolation-filters="sRGB" filterUnits="userSpaceOnUse">
            <feFlood flood-opacity="0" result="BackgroundImageFix"/>
            <feColorMatrix in="SourceAlpha" result="hardAlpha" values="0 0 0 0 0 0 0 0 0 0 0 0 0 0 0 0 0 0 127 0"/>
            <feOffset dy="6"/>
            <feGaussianBlur stdDeviation="5.5"/>
            <feComposite in2="hardAlpha" operator="out"/>
            <feColorMatrix values="0 0 0 0 0 0 0 0 0 0 0 0 0 0 0 0 0 0 0.25 0"/>
            <feBlend in2="BackgroundImageFix" result="effect1_dropShadow_546_1229"/>
            <feBlend in="SourceGraphic" in2="effect1_dropShadow_546_1229" result="shape"/>
        </filter>
    </defs>
</svg>