<svg xmlns="http://www.w3.org/2000/svg" width="251" height="162" fill="none">
    <g filter="url(#filter0_d_546_1199)">
        <path fill="currentColor" fill-rule="evenodd" d="M11 10c0-2.76142 2.2386-5 5-5h219c2.761 0 5 2.23858 5 5v40.1856C240 51.7659 238.673 53 237.092 53c-13.038 0-23.608 10.0736-23.608 22.5S224.054 98 237.092 98c1.573 0 2.908 1.2151 2.908 2.788V140c0 2.761-2.239 5-5 5H16c-2.7614 0-5-2.239-5-5v-39.212C11 99.2151 12.3346 98 13.9078 98c13.0383 0 23.608-10.0736 23.608-22.5S26.9461 53 13.9078 53C12.3275 53 11 51.7659 11 50.1856V10Z" clip-rule="evenodd" shape-rendering="crispEdges"/>
    </g>
    <defs>
        <filter id="filter0_d_546_1199" width="251" height="162" x="0" y="0" color-interpolation-filters="sRGB" filterUnits="userSpaceOnUse">
            <feFlood flood-opacity="0" result="BackgroundImageFix"/>
            <feColorMatrix in="SourceAlpha" result="hardAlpha" values="0 0 0 0 0 0 0 0 0 0 0 0 0 0 0 0 0 0 127 0"/>
            <feOffset dy="6"/>
            <feGaussianBlur stdDeviation="5.5"/>
            <feComposite in2="hardAlpha" operator="out"/>
            <feColorMatrix values="0 0 0 0 0 0 0 0 0 0 0 0 0 0 0 0 0 0 0.25 0"/>
            <feBlend in2="BackgroundImageFix" result="effect1_dropShadow_546_1199"/>
            <feBlend in="SourceGraphic" in2="effect1_dropShadow_546_1199" result="shape"/>
        </filter>
    </defs>
</svg>