<svg xmlns="http://www.w3.org/2000/svg" width="212" height="162" fill="none"><path fill="currentColor" fill-rule="evenodd" d="M201 10c0-2.76142-2.239-5-5-5H16c-2.7614 0-5 2.23858-5 5v34.0373c0 2.9518 2.5428 5.2392 5.4898 5.0692C17.7144 49.0359 18.7657 49 19.6166 49 33.9116 49 45.5 60.6406 45.5 75s-11.5884 26-25.8834 26c-.8202 0-1.8264-.043-2.9947-.128-2.995-.216-5.6219 2.08-5.6219 5.083V140c0 2.761 2.2386 5 5 5h180c2.761 0 5-2.239 5-5V10Z" clip-rule="evenodd" shape-rendering="crispEdges"/><defs><filter id="a" width="212" height="162" x="0" y="0" color-interpolation-filters="sRGB" filterUnits="userSpaceOnUse"><feFlood flood-opacity="0" result="BackgroundImageFix"/><feColorMatrix in="SourceAlpha" result="hardAlpha" values="0 0 0 0 0 0 0 0 0 0 0 0 0 0 0 0 0 0 127 0"/><feOffset dy="6"/><feGaussianBlur stdDeviation="5.5"/><feComposite in2="hardAlpha" operator="out"/><feColorMatrix values="0 0 0 0 0 0 0 0 0 0 0 0 0 0 0 0 0 0 0.25 0"/><feBlend in2="BackgroundImageFix" result="effect1_dropShadow_509_513"/><feBlend in="SourceGraphic" in2="effect1_dropShadow_509_513" result="shape"/></filter></defs></svg>