<svg xmlns="http://www.w3.org/2000/svg" viewBox="0 0 16 16" fill="none">
  <path fill="currentColor" d="M16 8c0 2.1217-.8429 4.1566-2.3431 5.6569C12.1566 15.1571 10.1217 16 8 16c-2.12173 0-4.15656-.8429-5.65685-2.3431C.842855 12.1566 0 10.1217 0 8c0-2.12173.842855-4.15656 2.34315-5.65685C3.84344.842855 5.87827 0 8 0c2.1217 0 4.1566.842855 5.6569 2.34315C15.1571 3.84344 16 5.87827 16 8Zm-3.97-3.03c-.0714-.07118-.1565-.12723-.2501-.16478-.0936-.03756-.1938-.05586-.2946-.05381-.1008.00206-.2002.02442-.2921.06576-.092.04134-.1747.1008-.2432.17483L7.477 9.417 5.384 7.323c-.14217-.13248-.33022-.2046-.52452-.20117-.1943.00342-.37969.08214-.5171.21955-.13741.13741-.21613.3228-.21955.5171-.00343.1943.06869.38235.20117.52452L6.97 11.03c.07128.0712.15616.1272.24958.1649.09342.0376.19347.056.29417.0542.10069-.0019.19999-.024.29195-.0651.09196-.0411.1747-.1003.2433-.174l3.992-4.99c.1361-.1415.2113-.33072.2094-.52704-.0019-.19632-.0806-.38408-.2194-.52296h-.001Z"/>
</svg>