<svg xmlns="http://www.w3.org/2000/svg" width="30" height="24" fill="none"><path fill="#fff" d="M26.4321 1.42125c.1792-.18279.393-.328.629-.427131.2359-.099132.4893-.150194.7452-.150194.256 0 .5093.051062.7453.150194.2359.099131.4498.244341.6289.427131.7508.75863.7613 1.9845.0263 2.75625L13.6851 22.5263c-.1762.1935-.39.349-.6285.457-.2384.1081-.4963.1663-.758.1712-.2617.0049-.5216-.0436-.7639-.1426-.2423-.099-.4618-.2464-.6452-.4331L1.44476 13.008c-.36426-.3715-.568295-.871-.568295-1.3912 0-.5203.204035-1.0198.568295-1.3913.17914-.1828.39295-.328.62892-.42713.23596-.09913.48932-.15019.74526-.15019.25594 0 .50931.05106.74527.15019.23596.09913.44978.24433.62892.42713l8.01147 8.1191L26.3796 1.479c.0164-.02028.0339-.03957.0525-.05775Z"/></svg>