<svg width="30" height="24" viewBox="0 0 30 24" fill="none" xmlns="http://www.w3.org/2000/svg">
<path d="M26.4319 1.42126C26.611 1.23847 26.8248 1.09326 27.0608 0.994127C27.2968 0.894994 27.5501 0.843933 27.8061 0.843933C28.062 0.843933 28.3154 0.894994 28.5513 0.994127C28.7873 1.09326 29.0011 1.23847 29.1803 1.42126C29.931 2.17988 29.9415 3.40576 29.2065 4.17751L13.6849 22.5263C13.5087 22.7198 13.2948 22.8753 13.0564 22.9833C12.818 23.0914 12.5601 23.1496 12.2984 23.1545C12.0367 23.1594 11.7768 23.1109 11.5345 23.0119C11.2922 22.9129 11.0726 22.7655 10.8893 22.5788L1.44451 13.008C1.08026 12.6365 0.876221 12.137 0.876221 11.6168C0.876221 11.0965 1.08026 10.597 1.44451 10.2255C1.62366 10.0427 1.83747 9.89751 2.07343 9.79838C2.30939 9.69924 2.56276 9.64818 2.8187 9.64818C3.07464 9.64818 3.32801 9.69924 3.56397 9.79838C3.79993 9.89751 4.01374 10.0427 4.19289 10.2255L12.2044 18.3446L26.3794 1.47901C26.3957 1.45872 26.4132 1.43944 26.4319 1.42126Z" fill="white"/>
</svg>
