<svg xmlns="http://www.w3.org/2000/svg" width="24" height="24" fill="none">
  <path fill="currentColor" d="M19.497 7.98903 12 15.297 4.50299 7.98903c-.13394-.13084-.31376-.20408-.501-.20408-.18724 0-.36705.07324-.501.20408-.06485.06354-.11638.13939-.15155.2231a.6824386.6824386 0 0 0-.0533.2644c0 .0908.01812.18068.0533.26439.03517.08371.0867.15956.15155.22311L11.4765 16.74c.1401.1365.3279.213.5235.213.1956 0 .3834-.0765.5235-.213l7.9755-7.77447c.0653-.0636.1172-.13963.1527-.22362.0354-.08399.0537-.17422.0537-.26538 0-.09116-.0183-.1814-.0537-.26539-.0355-.08399-.0874-.16002-.1527-.22361-.134-.13084-.3138-.20408-.501-.20408-.1872 0-.3671.07324-.501.20408v.0015Z"/>
</svg>