<svg xmlns="http://www.w3.org/2000/svg" viewBox="0 0 24 24" fill="none">
  <path fill="currentColor" fill-rule="evenodd" d="M1.6001 15.1996c0 .6365.25285 1.247.70294 1.6971.45009.4501 1.06054.7029 1.69706.7029h2.4v-1.6h-2.4c-.21218 0-.41566-.0843-.56569-.2343-.15003-.15-.23431-.3535-.23431-.5657V3.99961c0-.21217.08428-.41566.23431-.56569.15003-.15003.35351-.23431.56569-.23431h11.2c.2122 0 .4157.08428.5657.23431.15.15003.2343.35352.2343.56569v2.4h-7.2c-.63652 0-1.24697.25286-1.69706.70294-.45009.45009-.70294 1.06054-.70294 1.69706V19.9996c0 .6365.25285 1.247.70294 1.6971.45009.4501 1.06054.7029 1.69706.7029h11.2c.6365 0 1.247-.2528 1.6971-.7029.45-.4501.7029-1.0606.7029-1.6971V8.79961c0-.63652-.2529-1.24697-.7029-1.69706-.4501-.45008-1.0606-.70294-1.6971-.70294h-2.4v-2.4c0-.63652-.2529-1.24697-.7029-1.69706-.4501-.45008-1.0606-.70294-1.6971-.70294h-11.2c-.63652 0-1.24697.25286-1.69706.70294-.45009.45009-.70294 1.06054-.70294 1.69706V15.1996Zm6.4-6.39999c0-.21217.08428-.41566.23431-.56569.15003-.15003.35351-.23431.56569-.23431h11.2c.2122 0 .4157.08428.5657.23431.15.15003.2343.35352.2343.56569V19.9996c0 .2122-.0843.4157-.2343.5657-.15.15-.3535.2343-.5657.2343h-11.2c-.21218 0-.41566-.0843-.56569-.2343-.15003-.15-.23431-.3535-.23431-.5657V8.79961Z" clip-rule="evenodd"/>
</svg>