<svg xmlns="http://www.w3.org/2000/svg" width="452" height="202" fill="none"><path fill="url(#a)" fill-opacity=".59" d="M53.7933 84.7726 1 58.7256V196h450V10.1516l-6.285-2.11189-33.938 42.94219-13.827-4.2238-42.738 40.1264-5.028 3.5198-43.366-47.166-13.198 7.7436-23.883-42.94219h-4.399L236.684 43.2383h-3.142l-18.855 26.7509-21.997 31.6788-5.656 4.224-12.57-16.1916-26.397-83.06863L141.782 1l-10.056 5.63177L113.5 52.3899l-6.913 6.3357L92.7598 48.87l-12.5699 3.5199-26.3966 32.3827Z"/><path stroke="#6BC95B" stroke-width="2" d="m1 58.8291 49.5377 24.5143c2.9674 1.4684 6.5713.2845 8.2151-2.5895 7.1387-12.4811 26.3599-41.8085 41.9662-26.8027 19.566 18.8116 20.706-57.85611 43.549-52.25355 11.36 2.78637 13.754 38.48965 23.983 68.27855 7.305 21.2741 10.66 32.4608 19.526 34.4958 1.959.45 3.863-.665 4.975-2.339l38.575-58.0691c.708-1.0648 2.162-1.3219 3.191-.5642 1.031.7588 2.488.4998 3.194-.5679l21.987-33.24267c2.551-3.85711 8.323-3.49989 10.379.64237l17.783 35.8282c1.535 3.0932 5.358 4.2552 8.355 2.5397l7.14-4.087c2.53-1.4481 5.735-.8684 7.597 1.3742l34.255 41.253c2.248 2.7062 6.33 2.9077 8.833.4357l40.19-39.6962c1.859-1.8368 4.694-2.2584 7.008-1.0421l4.668 2.454c2.684 1.4107 5.998.5979 7.724-1.8943l25.872-37.3482c2.074-2.99353 6.314-3.46459 8.994-.99908L451 11.4518"/><path fill="url(#b)" fill-opacity=".59" d="M53.7933 116.44 1 96.4043V202h450V59.0397l-6.285-1.6245-33.938 33.0325-13.827-3.2491-42.738 30.8664-5.028 2.708-43.366-36.282-13.198 5.9567-23.883-33.0325h-4.399L236.684 84.491h-3.142l-18.855 20.578-21.997 24.368-5.656 3.249-12.57-12.455-26.397-63.8989L141.782 52l-10.056 4.3321L113.5 91.5307l-6.913 4.8736-13.8272-7.5812-12.5699 2.7076L53.7933 116.44Z"/><path stroke="#1ADCE2" stroke-width="2" d="m1 96.4839 50.3674 19.1731c2.6479 1.008 5.6381.046 7.3266-2.229 7.0914-9.555 26.3756-32.271 42.025-20.6963 19.566 14.4703 20.706-44.5047 43.549-40.195 11.36 2.1433 13.754 29.6074 23.983 52.5223 7.429 16.641 10.772 25.258 19.98 26.608 1.725.253 3.396-.57 4.536-1.889l38.439-44.5118c.826-.9564 2.213-1.1967 3.312-.5742 1.102.6236 2.491.3813 3.316-.5785L260.21 58.09c2.614-3.0402 7.417-2.7103 9.591.6587l18.115 28.0751c1.599 2.4776 4.761 3.4264 7.46 2.2381l8.751-3.8531c2.189-.9637 4.741-.5356 6.495 1.0897l35.069 32.4865c2.137 1.98 5.388 2.139 7.708.376l41.238-31.3321c1.684-1.2797 3.918-1.5779 5.879-.7849l6.196 2.5052c2.338.9457 5.019.3274 6.707-1.5474l26.438-29.3572c2.035-2.2606 5.441-2.6399 7.924-.8827L451 60.0398"/><defs><linearGradient id="a" x1="226" x2="226" y1="1" y2="196" gradientUnits="userSpaceOnUse"><stop stop-color="#6BC95B" stop-opacity=".54"/><stop offset="1" stop-color="#0A9396" stop-opacity="0"/></linearGradient><linearGradient id="b" x1="226" x2="226" y1="52" y2="202" gradientUnits="userSpaceOnUse"><stop stop-color="#1AD3D8"/><stop offset="1" stop-color="#0A9396" stop-opacity="0"/></linearGradient></defs></svg>