<svg xmlns="http://www.w3.org/2000/svg" width="20" height="20" fill="none">
  <g clip-path="url(#a)">
    <path fill="#E17726" d="m19.5364 0-8.5818 6.77325 1.5958-3.99167L19.5364 0Z"/>
    <path fill="#E27625" d="M.483633.00805664 7.4509 2.78214l1.51531 4.044L.483633.00805664ZM16.0828 14.4049l3.793.077-1.3256 4.8035-4.6284-1.3593 2.161-3.5212Zm-12.16573 0 2.15289 3.5212-4.62055 1.3594-1.317574-4.8036 3.785234-.077Z"/>
    <path fill="#E27625" d="m8.76021 5.79591.155 5.34029-4.63835-.2251 1.31937-2.12319.01672-.02042 3.14726-2.97158Zm2.43149-.05958 3.1953 3.03133.0166.02033 1.3193 2.12321-4.6373.225.1061-5.39987ZM6.20584 14.4202l2.53265 2.105-2.94203 1.515.40938-3.62Zm7.58876-.0003.4008 3.6204-2.9338-1.5153 2.533-2.1051Z"/>
    <path fill="#D5BFB2" d="m11.3265 16.3269 2.9771 1.5377-2.7693 1.4038.0288-.9278-.2366-2.0137Zm-2.65365.0007-.22726 1.9978.01867.9419-2.77578-1.4027 2.98437-1.537Z"/>
    <path fill="#233447" d="m7.81309 11.8333.77796 1.744-2.64867-.8277 1.87071-.9163Zm4.37381.0001 1.8795.9162-2.6573.8274.7778-1.7436Z"/>
    <path fill="#CC6228" d="m6.40844 14.4026-.42813 3.7533-2.29476-3.6713 2.72289-.082Zm7.18356 0 2.723.082-2.3034 3.6715-.4196-3.7535Zm2.1982-3.7036-1.9817 2.1542-1.5279-.7447-.7315 1.6403-.4795-2.8207 4.7206-.2291Zm-11.58106 0 4.72148.2291-.47961 2.8207-.73164-1.6401-1.51976.7446-1.99047-2.1543Z"/>
    <path fill="#E27525" d="m4.07568 10.2568 2.24203 2.4267.07766 2.3958-2.31969-4.8225Zm11.85132-.0044-2.3239 4.8311.0875-2.4 2.2364-2.4311Zm-7.10593.1522.09024.6058.22297 1.5093-.14336 4.6354-.67774-3.7237-.00023-.0385.50812-2.9883Zm2.35713-.0084.5094 2.9967-.0002.0385-.6795 3.733-.0268-.9337-.106-3.7385.3031-2.096Z"/>
    <path fill="#F5841F" d="m13.8898 12.5872-.0758 2.0815-2.3652 1.9655-.4781-.3603.5359-2.9446 2.3832-.7421Zm-7.77115 0 2.37493.7421.53593 2.9446-.47812.3603-2.36524-1.9657-.0675-2.0813Z"/>
    <path fill="#C0AC9D" d="m5.23584 17.4048 3.02594 1.5293-.01281-.6531.2532-.237H11.497l.2624.2362-.0194.6526 3.0068-1.5242-1.4631 1.2897-1.7692 1.2961H8.47787L6.7099 18.693l-1.47406-1.2882Z"/>
    <path fill="#161616" d="m11.1096 16.1233.4279.3224.2507 2.1337-.3628-.3268H8.57566l-.35593.3334.2425-2.1401.42797-.3226h2.2194Z"/>
    <path fill="#763E1A" d="M18.9698.1875 20 3.48392 19.3566 6.817l.4582.37692-.62.5045.466.38383-.617.59925.3788.29258-1.0052 1.25212-4.1226-1.28037-.0357-.02041-2.9709-2.67317L18.9698.1875Zm-17.93964 0 7.68171 6.06475-2.97093 2.67317-.03571.02041-4.12265 1.28037L.577422 8.97408l.378437-.29233-.616562-.5995.465-.38342-.629219-.50591.475391-.37717L0 3.48408 1.03016.1875Z"/>
    <path fill="#F5841F" d="m14.0931 8.66578 4.3682 1.35662 1.4192 4.6655h-3.7441l-2.5797.0346 1.8761-3.9006-1.3397-2.15612Zm-8.18621 0L4.56697 10.8219l1.87633 3.9006-2.57852-.0346H.127441l1.411169-4.6655 4.36828-1.35662Zm6.85751-5.9065-1.2218 3.51991-.2593 4.75501-.0992 1.4904-.0079 3.8073H8.82377l-.00766-3.8001-.09953-1.4989-.25937-4.75371-1.22164-3.51991h5.52883Z"/>
  </g>
  <defs>
    <clipPath id="a">
      <path fill="#fff" d="M0 0h20v20H0z"/>
    </clipPath>
  </defs>
</svg>