<svg xmlns="http://www.w3.org/2000/svg" width="12" height="12" fill="none"><path fill="currentColor" d="M6.66667.666667c0-.176811-.07024-.346381-.19527-.471405C6.34638.0702379 6.17681 0 6 0c-.17681 0-.34638.0702379-.4714.195262-.12503.125024-.19527.294594-.19527.471405V5.33333H.666667c-.176811 0-.346381.07024-.471405.19527C.0702379 5.65362 0 5.82319 0 6c0 .17681.0702379.34638.195262.4714.125024.12503.294594.19527.471405.19527H5.33333v4.66663c0 .1768.07024.3464.19527.4714.12502.1251.29459.1953.4714.1953.17681 0 .34638-.0702.4714-.1953.12503-.125.19527-.2946.19527-.4714V6.66667h4.66663c.1768 0 .3464-.07024.4714-.19527C11.9298 6.34638 12 6.17681 12 6c0-.17681-.0702-.34638-.1953-.4714-.125-.12503-.2946-.19527-.4714-.19527H6.66667V.666667Z"/></svg>