<svg width="24" height="24" fill="none" xmlns="http://www.w3.org/2000/svg"><path d="M1.333 13.333a10.667 10.667 0 0 1 9.334 9.334 8 8 0 0 0 4-6.667 12 12 0 0 0 8-10.667 4 4 0 0 0-4-4A12 12 0 0 0 8 9.333a8 8 0 0 0-6.667 4" stroke="currentColor" stroke-width="2" stroke-linecap="round" stroke-linejoin="round"/><path d="M5.333 14.666a8 8 0 0 0-4 8 8 8 0 0 0 8-4M16 9.333a1.333 1.333 0 1 0 0-2.667 1.333 1.333 0 0 0 0 2.667Z" stroke="currentColor" stroke-width="2" stroke-linecap="round" stroke-linejoin="round"/></svg>