<svg width="30" height="26" fill="none" xmlns="http://www.w3.org/2000/svg"><path d="m22.733 23.423-2.896 1.517a.522.522 0 0 1-.757-.547l.553-3.214-2.342-2.276a.518.518 0 0 1 .289-.887l3.237-.47 1.448-2.923a.522.522 0 0 1 .936 0l1.448 2.924 3.238.469a.52.52 0 0 1 .289.887l-2.343 2.276.552 3.213a.519.519 0 0 1-.756.548l-2.896-1.517Zm-15.466 0L4.37 24.94a.522.522 0 0 1-.758-.547l.554-3.214-2.343-2.276a.519.519 0 0 1 .29-.887l3.237-.47 1.448-2.923a.522.522 0 0 1 .936 0l1.448 2.924 3.237.469a.52.52 0 0 1 .29.887l-2.343 2.276.552 3.213a.52.52 0 0 1-.756.548l-2.896-1.517v0ZM15 10.089l-2.896 1.518a.523.523 0 0 1-.757-.547l.553-3.215L9.557 5.57a.519.519 0 0 1 .29-.886l3.237-.47 1.448-2.924a.523.523 0 0 1 .936 0l1.448 2.924 3.237.47a.52.52 0 0 1 .29.886L18.1 7.845l.552 3.214a.52.52 0 0 1-.756.548L15 10.089Z" stroke="currentColor" stroke-width="2" stroke-linecap="round" stroke-linejoin="round"/></svg>