<svg width="22" height="26" fill="none" xmlns="http://www.w3.org/2000/svg"><path d="M7 3.667H4.333a2.667 2.667 0 0 0-2.666 2.666v16A2.667 2.667 0 0 0 4.333 25h13.334a2.667 2.667 0 0 0 2.666-2.667v-16a2.667 2.667 0 0 0-2.666-2.666H15" stroke="currentColor" stroke-width="2" stroke-linecap="round" stroke-linejoin="round"/><path d="M12.333 1H9.667a2.667 2.667 0 0 0 0 5.333h2.666a2.667 2.667 0 1 0 0-5.333ZM7 18.333h8M7 13h8-8Z" stroke="currentColor" stroke-width="2" stroke-linecap="round" stroke-linejoin="round"/></svg>