<svg width="20" height="20" viewBox="0 0 20 20" fill="none" xmlns="http://www.w3.org/2000/svg">
<circle cx="10" cy="10" r="10" fill="url(#paint0_linear_455_13921)"/>
<path d="M5.77534 7.29656C8.10874 5.02436 11.8911 5.02436 14.2275 7.29656L14.5082 7.56971C14.6259 7.68377 14.6259 7.86686 14.5082 7.98093L13.5483 8.91742C13.4909 8.97445 13.3943 8.97445 13.337 8.91742L12.9506 8.54222C11.3236 6.95738 8.68228 6.95738 7.05524 8.54222L6.64169 8.94444C6.58433 9.00147 6.48774 9.00147 6.43038 8.94444L5.46744 8.00794C5.34972 7.89388 5.34972 7.71078 5.46744 7.59672L5.77534 7.29656ZM16.2137 9.22959L17.068 10.061C17.1857 10.1751 17.1857 10.3582 17.068 10.4722L13.2132 14.2272C13.0955 14.3413 12.9083 14.3413 12.7906 14.2272L10.0527 11.5618C10.0225 11.5348 9.97726 11.5348 9.94708 11.5618L7.21221 14.2272C7.09448 14.3413 6.90733 14.3413 6.7896 14.2272L2.9318 10.4752C2.81407 10.3612 2.81407 10.1781 2.9318 10.064L3.78607 9.23259C3.9038 9.11853 4.09095 9.11853 4.20868 9.23259L6.94657 11.898C6.97675 11.925 7.02203 11.925 7.05222 11.898L9.78709 9.23259C9.90482 9.11853 10.092 9.11853 10.2097 9.23259L12.9476 11.898C12.9778 11.925 13.0231 11.925 13.0532 11.898L15.7911 9.23259C15.9058 9.11553 16.096 9.11553 16.2137 9.22959Z" fill="white"/>
<defs>
<linearGradient id="paint0_linear_455_13921" x1="17.9621" y1="15.3555" x2="1.56398" y2="4.50237" gradientUnits="userSpaceOnUse">
<stop stop-color="#2E73F6"/>
<stop offset="1" stop-color="#6395E6"/>
</linearGradient>
</defs>
</svg>
