<svg width="24" height="24" fill="none" xmlns="http://www.w3.org/2000/svg"><path d="M21.333 17.333v4A1.334 1.334 0 0 1 20 22.667H4A2.667 2.667 0 0 1 1.333 20V4m17.334 2.667v-4a1.333 1.333 0 0 0-1.334-1.334H4a2.667 2.667 0 0 0 0 5.334h16A1.333 1.333 0 0 1 21.333 8v4l-2.666-5.333Z" stroke="currentColor" stroke-width="2" stroke-linecap="round" stroke-linejoin="round"/><path d="M22.667 12v5.333h-5.334a2.666 2.666 0 1 1 0-5.333h5.334Z" stroke="currentColor" stroke-width="2" stroke-linecap="round" stroke-linejoin="round"/></svg>