<svg xmlns="http://www.w3.org/2000/svg" viewBox="0 0 20 20" fill="none">
  <path fill="currentColor" d="M16 5.99999H3.5v-.5l11-.88v.88H16v-1.5c0-1.1-.891-1.872-1.979-1.717L3.98 3.71699c-1.089.156-1.98 1.183-1.98 2.283V16c0 .5304.21071 1.0391.58579 1.4142C2.96086 17.7893 3.46957 18 4 18h12c.5304 0 1.0391-.2107 1.4142-.5858S18 16.5304 18 16V7.99999c0-.53044-.2107-1.03914-.5858-1.41422-.3751-.37507-.8838-.58578-1.4142-.58578ZM14.5 13.006c-.197-.0001-.3922-.039-.5742-.1144-.182-.0755-.3474-.1861-.4867-.3255-.1393-.1393-.2497-.3048-.3251-.4869-.0753-.182-.1141-.3772-.114-.5742.0001-.1971.0389-.3922.1144-.5742.0755-.182.1861-.3474.3254-.4867.1394-.1393.3049-.2497.4869-.3251.1821-.0753.3773-.1141.5743-.114.398.0001.7796.1583 1.0609.4398.2813.2815.4392.6632.4391 1.0612-.0001.3979-.1583.7795-.4398 1.0609-.2815.2813-.6632.4392-1.0612.4391Z"/>
</svg>