<svg viewBox="0 0 23 23" fill="none" xmlns="http://www.w3.org/2000/svg">
<path fill-rule="evenodd" clip-rule="evenodd" d="M1.43817 11.4999C1.43817 11.3093 1.5139 11.1265 1.64869 10.9917C1.78348 10.8569 1.9663 10.7812 2.15692 10.7812H19.1094L14.5855 6.25881C14.5187 6.19198 14.4657 6.11265 14.4295 6.02533C14.3934 5.93802 14.3748 5.84444 14.3748 5.74993C14.3748 5.65542 14.3934 5.56184 14.4295 5.47453C14.4657 5.38722 14.5187 5.30788 14.5855 5.24106C14.6524 5.17423 14.7317 5.12122 14.819 5.08505C14.9063 5.04889 14.9999 5.03027 15.0944 5.03027C15.1889 5.03027 15.2825 5.04889 15.3698 5.08505C15.4571 5.12122 15.5365 5.17423 15.6033 5.24106L21.3533 10.9911C21.4202 11.0578 21.4733 11.1371 21.5096 11.2245C21.5458 11.3118 21.5645 11.4054 21.5645 11.4999C21.5645 11.5945 21.5458 11.6881 21.5096 11.7754C21.4733 11.8627 21.4202 11.942 21.3533 12.0088L15.6033 17.7588C15.5365 17.8256 15.4571 17.8786 15.3698 17.9148C15.2825 17.951 15.1889 17.9696 15.0944 17.9696C14.9999 17.9696 14.9063 17.951 14.819 17.9148C14.7317 17.8786 14.6524 17.8256 14.5855 17.7588C14.5187 17.692 14.4657 17.6126 14.4295 17.5253C14.3934 17.438 14.3748 17.3444 14.3748 17.2499C14.3748 17.1554 14.3934 17.0618 14.4295 16.9745C14.4657 16.8872 14.5187 16.8079 14.5855 16.7411L19.1094 12.2187H2.15692C1.9663 12.2187 1.78348 12.143 1.64869 12.0082C1.5139 11.8734 1.43817 11.6906 1.43817 11.4999Z" fill="currentColor" />
</svg>
