<svg viewBox="0 0 130 130" fill="none" xmlns="http://www.w3.org/2000/svg">
<path fill-rule="evenodd" clip-rule="evenodd" d="M33.1348 20.0281C15.4131 29.3254 1.1441 36.9621 0.825195 37.3202C0.310527 37.8975 0.253906 38.2225 0.253906 40.6011C0.253906 44.5837 0.795234 45.2931 3.99014 45.498L5.83984 45.6168L5.84035 47.8052C5.84061 50.3565 6.26311 51.4498 7.59129 52.3369C8.37205 52.8585 8.7524 52.9133 11.5903 52.9133H14.7266V55.1934C14.7266 58.5914 15.5457 60.1529 17.5985 60.6681L18.2812 60.8395V73.7727V86.7059L18.9046 87.329C19.2474 87.6718 19.8237 87.9524 20.1855 87.9524C20.5474 87.9524 21.1237 87.6718 21.4665 87.329L22.0898 86.7059V73.745V60.7844H25.1367H28.1836V80.2082V99.632H25.1367H22.0898L22.0817 97.0295C22.0764 95.2976 21.9634 94.2817 21.7438 93.9925C21.2606 93.3568 20.2881 93.0569 19.5739 93.3235C18.4813 93.7313 18.298 94.2563 18.2894 97.0021L18.2812 99.5769L17.5985 99.7483C15.5457 100.264 14.7266 101.825 14.7266 105.223V107.503H11.5692C8.14531 107.503 7.36227 107.683 6.26234 108.725C5.14947 109.779 4.98012 110.252 4.83361 112.706C4.71225 114.739 4.64191 114.997 4.18945 115.064C2.88996 115.258 2.48523 115.437 1.61713 116.199C0.270918 117.381 0 118.244 0 121.346C0 124.221 0.273457 125.16 1.32463 125.896C1.83346 126.252 8.2225 126.292 65 126.292C121.777 126.292 128.167 126.252 128.675 125.896C129.727 125.16 130 124.221 130 121.346C130 118.244 129.729 117.381 128.383 116.199C127.515 115.437 127.11 115.258 125.811 115.064C125.358 114.997 125.288 114.739 125.166 112.706C125.02 110.252 124.851 109.779 123.738 108.725C122.638 107.683 121.855 107.503 118.431 107.503H115.273V105.223C115.273 101.825 114.454 100.264 112.402 99.7483L111.719 99.5769V80.2082V60.8395L112.402 60.6681C114.454 60.1529 115.273 58.5914 115.273 55.1934V52.9133H118.41C121.248 52.9133 121.628 52.8585 122.409 52.3369C123.737 51.4498 124.159 50.3565 124.16 47.8052L124.16 45.6168L126.01 45.498C129.205 45.2931 129.746 44.5837 129.746 40.6011C129.746 38.2228 129.689 37.8975 129.175 37.3191C128.296 36.3317 84.6005 12.8032 83.638 12.7994C82.7539 12.7956 82.1346 13.3512 81.8787 14.3767C81.74 14.9322 81.8485 15.2082 82.4302 15.778C82.8285 16.1682 92.7796 21.6841 104.544 28.0353L125.933 39.5832L125.935 40.6623L125.938 41.7414H65H4.0625L4.06758 40.6623L4.07266 39.5832L34.5607 23.5871C51.3292 14.7893 65.2526 7.49404 65.502 7.37521C65.8412 7.21373 67.0975 7.77715 70.4922 9.61263C72.9876 10.9616 75.3167 12.1245 75.6681 12.1969C77.3033 12.5326 78.3801 10.2124 77.124 9.05963C76.8097 8.77119 74.4961 7.42015 71.9824 6.05718C68.3153 4.0691 67.1612 3.55926 66.1426 3.47826C64.8873 3.37847 64.5168 3.56408 33.1348 20.0281ZM120.352 47.3274V49.1047H65H9.64844V47.3274V45.55H65H120.352V47.3274ZM31.6855 55.008L31.7596 56.9758H25.1474H18.5352V55.1139C18.5352 54.0896 18.6134 53.1738 18.7086 53.0783C18.804 52.9829 21.7463 52.9351 25.2467 52.9725L31.6113 53.0403L31.6855 55.008ZM41.3867 55.3335C41.3867 56.8161 41.5223 58.0785 41.7369 58.5917C42.1497 59.5799 43.2479 60.5092 44.2363 60.707L44.9414 60.8479V80.2199V99.5917L44.1916 99.7565C43.1552 99.984 42.1533 100.828 41.7369 101.825C41.5223 102.338 41.3867 103.6 41.3867 105.083V107.503H38.4668H35.5469V105.223C35.5469 101.825 34.7278 100.264 32.6749 99.7483L31.9922 99.5769V80.2082V60.8395L32.6749 60.6681C34.7278 60.1529 35.5469 58.5914 35.5469 55.1934V52.9133H38.4668H41.3867V55.3335ZM58.1445 54.9445V56.9758H51.6699H45.1953V54.9445V52.9133H51.6699H58.1445V54.9445ZM68.0469 55.8812C68.1685 58.6011 68.2056 58.7554 68.9206 59.5006C69.3314 59.9287 70.0456 60.4155 70.5075 60.5825L71.3477 60.8865V80.2082V99.53L70.5075 99.8339C70.0456 100.001 69.3314 100.488 68.9206 100.916C68.2056 101.661 68.1685 101.815 68.0469 104.535L67.9199 107.376H65H62.0801L61.9531 104.535C61.8315 101.815 61.7944 101.661 61.0794 100.916C60.6686 100.488 59.9544 100.001 59.4925 99.8339L58.6523 99.53V80.2082V60.8865L59.5235 60.5714C60.0029 60.3979 60.7455 59.8569 61.1739 59.3689C61.9356 58.5015 61.9531 58.4231 61.9531 55.8667C61.9531 54.4286 62.0329 53.172 62.1304 53.0748C62.2276 52.9773 63.5703 52.9298 65.1137 52.9689L67.9199 53.0403L68.0469 55.8812ZM84.8047 54.9445V56.9758H78.3301H71.8555V54.9445V52.9133H78.3301H84.8047V54.9445ZM94.4531 55.1934C94.4531 58.5914 95.2722 60.1529 97.3251 60.6681L98.0078 60.8395V80.2082V99.5769L97.3251 99.7483C95.2722 100.264 94.4531 101.825 94.4531 105.223V107.503H91.5332H88.6133V105.083C88.6133 103.6 88.4777 102.338 88.2631 101.825C87.8467 100.828 86.8448 99.984 85.8084 99.7565L85.0586 99.5917V80.2199V60.8479L85.7637 60.707C86.7522 60.5092 87.8503 59.5799 88.2631 58.5917C88.4777 58.0785 88.6133 56.8161 88.6133 55.3335V52.9133H91.5332H94.4531V55.1934ZM111.412 55.008L111.486 56.9758H104.874H98.2617V55.1139C98.2617 54.0896 98.3399 53.1738 98.4351 53.0783C98.5306 52.9829 101.473 52.9351 104.973 52.9725L111.338 53.0403L111.412 55.008ZM54.8438 80.2082V99.632H51.7969H48.75V80.2082V60.7844H51.7969H54.8438V80.2082ZM81.25 80.2082V99.632H78.2031H75.1562V80.2082V60.7844H78.2031H81.25V80.2082ZM107.91 80.2082V99.632H104.863H101.816V80.2082V60.7844H104.863H107.91V80.2082ZM31.6855 105.408L31.6113 107.376H25.1367H18.6621L18.588 105.408L18.5138 103.441H25.1367H31.7596L31.6855 105.408ZM58.1445 105.472V107.503H51.6699H45.1953V105.472V103.441H51.6699H58.1445V105.472ZM84.8047 105.472V107.503H78.3301H71.8555V105.472V103.441H78.3301H84.8047V105.472ZM111.412 105.408L111.338 107.376H104.863H98.3887L98.3145 105.408L98.2404 103.441H104.863H111.486L111.412 105.408ZM121.315 113.153L121.39 114.866H65.0117H8.63281V113.258C8.63281 112.374 8.70924 111.574 8.80268 111.48C8.89611 111.387 34.2327 111.339 65.1064 111.375L121.24 111.439L121.315 113.153ZM126.14 120.77L126.215 122.484H65.0117H3.80859V120.876C3.80859 119.991 3.88502 119.191 3.97846 119.098C4.07189 119.004 31.5793 118.957 65.1064 118.992L126.064 119.056L126.14 120.77Z" fill="#1ADCE2"/>
</svg>
