<svg width="130" height="130" viewBox="0 0 130 130" fill="none" xmlns="http://www.w3.org/2000/svg">
<path fill-rule="evenodd" clip-rule="evenodd" d="M36.0798 0.352215C35.0852 1.04893 34.99 1.93202 35.669 4.16538C36.1981 5.90641 36.2717 6.57647 36.1839 8.86214C36.0958 11.162 35.9841 11.7199 35.3704 12.9246C34.2141 15.1948 33.2563 16.4486 30.425 19.3992C27.6889 22.2506 26.8274 23.5869 26.196 25.9592C25.5117 28.5287 25.9233 31.5344 27.3091 34.091C28.1696 35.6787 31.6689 39.4132 32.6937 39.8377C33.3051 40.0908 33.6121 40.0903 34.2293 39.8346C35.2312 39.4198 35.5027 38.87 35.6222 37.014C35.8007 34.2429 36.5655 33.0558 40.918 28.7938C46.1091 23.7106 46.8825 22.6995 47.9474 19.6041C50.7332 11.5073 46.8845 3.13706 39.1528 0.477137C37.4082 -0.123097 36.7943 -0.148234 36.0798 0.352215ZM58.111 0.628973C57.6839 0.98825 57.2061 1.71087 57.0491 2.23468C56.7973 3.0746 56.8572 3.45927 57.557 5.49686C58.6284 8.61788 58.9524 11.3636 58.5954 14.3016C57.9635 19.5021 55.56 24.4543 51.448 29.0289C50.704 29.8566 46.9518 33.2244 43.1097 36.5135C33.0715 45.106 28.896 49.4165 25.1313 55.0731C23.3182 57.7975 20.5996 63.1409 19.5119 66.118C18.3213 69.3779 17.0607 74.5599 16.6946 77.6997C16.2454 81.5535 16.4861 88.4602 17.1925 91.9834C18.8751 100.375 23.1641 108.423 29.1847 114.484C36.8984 122.25 46.8619 127.216 58.8486 129.27C62.6605 129.923 71.228 130.056 74.9716 129.52C79.9337 128.809 85.0662 127.34 89.0573 125.487C101.823 119.561 110.848 107.891 113.759 93.5467C114.247 91.1397 114.327 89.9456 114.327 85.034C114.327 78.7778 114.036 76.4771 112.648 71.7865C110.668 65.0927 107.499 59.4606 102.387 53.5496C97.8283 48.279 96.5272 46.2128 95.9207 43.2799C95.5665 41.5681 95.7376 38.6332 96.3432 36.0301C97.0566 32.9627 97.0561 32.5739 96.3366 31.8544C95.3519 30.8697 94.335 30.9939 92.0986 32.3723C86.9108 35.5698 84.3105 39.2113 82.5835 45.6981C82.0995 47.5163 81.5519 49.2934 81.3662 49.6474L81.0291 50.2907L80.0975 48.9369C78.5629 46.7064 78.0424 44.9397 78.0535 41.9969C78.0609 39.9839 78.2 39.0247 78.7246 37.3664C79.6999 34.284 80.0129 31.6286 79.852 27.8048C79.6151 22.1701 78.0043 17.3421 74.7002 12.364C71.8049 8.00165 66.4074 3.00807 62.2382 0.834891C60.2336 -0.209933 59.1708 -0.263 58.111 0.628973ZM43.3679 9.4969C44.7113 12.2594 44.8281 15.2382 43.7229 18.5654C43.1363 20.3316 42.0407 21.6679 37.5232 26.1278C34.4078 29.2033 33.3541 30.418 32.7011 31.6873L31.8652 33.3113L31.2708 32.3264C30.0548 30.3119 29.9761 27.4354 31.0783 25.3028C31.3129 24.8488 32.5652 23.4186 33.8612 22.1247C37.7713 18.2204 40.0659 14.2221 40.5688 10.4371C40.7227 9.27829 40.772 7.79294 40.6783 7.13634L40.5079 5.94222L41.5675 6.95784C42.1502 7.51643 42.9604 8.65901 43.3679 9.4969ZM66.629 9.45831C69.2163 11.8671 71.3867 14.8368 72.9665 18.1297C75.0051 22.3793 75.4617 24.4096 75.4495 29.1746C75.4401 32.8799 75.385 33.3169 74.5072 36.6428C73.5073 40.4318 73.3568 42.3707 73.8532 45.0605C74.4255 48.1628 76.4671 51.8568 79.1128 54.5774C81.2967 56.823 82.3763 56.6615 84.0955 53.8312C85.2226 51.9759 86.0673 49.755 86.7661 46.8105C87.4455 43.9474 88.8082 41.1666 90.354 39.4886L91.5517 38.1883L91.4258 40.3465C91.2678 43.0511 91.7716 45.5557 92.9771 48.0625C94.0593 50.3121 95.261 51.9592 98.8345 56.0887C104.566 62.7131 107.746 68.8955 109.388 76.6102C110.147 80.175 110.338 87.0262 109.784 90.7835C108.18 101.648 102.682 111.028 94.1743 117.413C81.0009 127.3 60.856 128.371 44.249 120.067C39.4953 117.69 36.5307 115.538 32.552 111.573C27.8212 106.859 25.0232 102.464 22.9381 96.4743C21.2679 91.6762 20.9132 89.3971 20.9008 83.3836C20.8911 78.7775 20.9701 77.654 21.4807 75.1317C22.5649 69.776 24.6736 64.2873 27.465 59.555C31.286 53.0779 35.5611 48.5441 46.6611 39.1971C52.3549 34.4023 54.6431 32.1641 56.9072 29.1746C60.2286 24.7887 62.1227 20.3496 62.8501 15.2451C63.1965 12.8167 63.2142 11.9529 62.9634 9.7861C62.7994 8.37007 62.5873 6.93423 62.4926 6.59475C62.3258 5.99782 62.3596 6.00595 63.5408 6.84866C64.2121 7.32778 65.6017 8.5021 66.629 9.45831ZM32.1392 60.2698C31.1908 61.2181 28.6337 66.3036 28.6337 67.2413C28.6337 69.0029 30.9613 69.9949 32.1046 68.7205C32.9291 67.8014 35.7431 62.2464 35.7431 61.5378C35.7431 59.8666 33.3754 59.0332 32.1392 60.2698ZM65.1962 60.9868C64.4591 61.3585 63.9615 62.6131 63.9409 64.1502C63.9282 65.1082 63.8599 65.2293 63.3326 65.2293C63.0058 65.2293 61.8345 65.4571 60.73 65.7356C55.8949 66.9546 51.8179 69.9324 50.0291 73.5519C49.1156 75.4006 49.0732 75.5991 49.0732 78.0384C49.0732 80.3644 49.1428 80.7369 49.8567 82.241C51.793 86.3188 56.2361 89.4053 61.8264 90.556L63.9267 90.9884V99.5638C63.9267 109.288 64.1778 108.416 61.5715 107.741C58.3331 106.901 55.0961 104.654 53.9832 102.473C53.7077 101.933 53.3779 100.85 53.2505 100.067C52.9907 98.4705 52.4859 97.8151 51.3403 97.5861C50.7274 97.4635 50.3907 97.5747 49.7542 98.1102C49.0468 98.7053 48.9462 98.9463 48.9462 100.045C48.9462 103.272 51.1311 106.885 54.4877 109.208C56.7643 110.783 61.2744 112.456 63.2447 112.456C63.8632 112.456 63.927 112.545 63.9282 113.408C63.9325 116.463 65.8069 118.006 67.619 116.447C68.1872 115.958 68.3142 115.6 68.4297 114.162C68.562 112.511 68.5887 112.456 69.2529 112.456C70.5199 112.456 73.7739 111.479 75.7306 110.512C82.3423 107.242 85.1779 100.823 82.4639 95.2702C80.4758 91.2024 75.1847 87.7551 69.7031 86.9561L68.497 86.7801V78.1346V69.4891L69.4492 69.6569C72.2551 70.151 74.912 71.3985 76.6796 73.0522C78.1889 74.4636 78.8625 75.7017 79.1715 77.6306C79.5308 79.8739 80.7752 80.7011 82.4707 79.8244C83.3683 79.3602 83.5925 78.6056 83.3967 76.7077C83.0298 73.1517 79.9365 69.306 75.8143 67.2801C73.7841 66.2823 70.332 65.2293 69.0912 65.2293C68.5557 65.2293 68.497 65.1158 68.497 64.0786C68.497 61.4459 67.0228 60.0651 65.1962 60.9868ZM63.9267 78.063V86.5806L62.9746 86.4122C58.7996 85.6744 55.041 83.213 53.7506 80.3715C51.906 76.3088 55.4935 71.5696 61.6415 69.9477C64.1727 69.2799 63.9267 68.4057 63.9267 78.063ZM26.6088 74.3065C25.4673 75.3508 24.9836 78.6836 25.1628 84.2723C25.3652 90.5816 26.6908 95.4856 29.5899 100.649C32.6325 106.069 34.0841 107.183 35.9335 105.518C36.9012 104.647 36.697 103.575 35.138 101.339C31.5458 96.1886 29.7359 90.7753 29.4747 84.3992C29.3647 81.7162 29.434 80.1776 29.7573 78.1247C30.2171 75.2038 30.1419 74.7437 29.0831 74.002C28.2559 73.4226 27.4693 73.5196 26.6088 74.3065ZM71.2768 91.8065C75.8748 93.0709 79.1649 96.3326 79.1585 99.6199C79.1519 103.084 75.6638 106.501 70.8726 107.737C68.2426 108.415 68.497 109.284 68.497 99.6288V91.1181L69.1953 91.272C69.5792 91.3568 70.5158 91.5972 71.2768 91.8065Z" fill="#1ADCE2"/>
</svg>
