<svg viewBox="0 0 130 130" fill="none" xmlns="http://www.w3.org/2000/svg">
<path fill-rule="evenodd" clip-rule="evenodd" d="M59.9826 5.60942C57.3988 6.07737 54.1861 7.26616 51.7357 8.66162C49.3266 10.0332 49.1486 10.197 48.942 11.2312C48.8114 11.8829 48.9049 12.1602 49.4325 12.6878C50.3389 13.5943 50.9892 13.511 53.301 12.1922C55.4574 10.9623 57.1995 10.2435 59.6286 9.58178C61.8734 8.97037 67.9278 8.99703 70.2713 9.62875C78.5172 11.8514 84.3365 17.4991 86.8385 25.7076C87.4476 27.7054 87.5184 28.3378 87.5164 31.7475C87.5139 35.9637 87.131 37.9253 85.6913 41.1007C84.9144 42.814 82.8824 46.0932 82.5975 46.0932C82.5119 46.0932 81.8822 45.2076 81.1982 44.1255C79.8413 41.9787 76.3595 38.2039 74.4283 36.7863L73.2101 35.8918L73.7285 35.1639C75.872 32.1535 76.2026 27.7823 74.5514 24.2814C73.7011 22.4784 71.469 20.2375 69.631 19.3414C64.2253 16.7061 57.6644 19.0068 55.1281 24.4269C53.644 27.5982 53.8804 31.7437 55.7096 34.6268L56.4604 35.81L55.5054 36.5606C53.3675 38.2409 49.6544 42.2486 48.4651 44.1595L47.2195 46.161L46.6416 45.4892C45.5099 44.1737 44.0279 41.3617 43.2801 39.1108C40.9706 32.1609 41.9524 24.9515 46.0251 18.9542C47.1903 17.2383 47.3479 16.1661 46.5524 15.3706C45.7679 14.586 44.6126 14.7112 43.7089 15.6786C41.8255 17.6948 39.5952 22.5485 38.7872 26.3883C37.3351 33.2918 38.7984 40.7564 42.7553 46.6313C45.0788 50.0806 49.3835 53.8557 53.154 55.7503C54.975 56.6656 58.3146 57.7135 60.451 58.0403C61.5349 58.2058 62.5645 58.3815 62.739 58.43C62.9835 58.4983 63.0558 60.1955 63.0543 65.8266L63.0523 73.1343L55.4354 78.0458L47.8184 82.9574L46.003 81.0132C40.6501 75.2815 34.2855 72.5061 26.4938 72.5061C17.8689 72.5061 10.3817 76.237 5.10631 83.1636C3.39193 85.4147 1.49602 89.3855 0.678437 92.437C0.0769336 94.683 0 95.4308 0 99.0327C0 102.609 0.0792188 103.39 0.661172 105.56C3.07861 114.572 9.65732 121.536 18.4648 124.406C19.5647 124.765 20.7731 125.058 21.1499 125.058C22.6012 125.058 23.5325 122.881 22.4864 121.934C22.2374 121.709 20.9521 121.171 19.63 120.74C16.366 119.674 11.8077 117.093 11.7772 116.293C11.7584 115.803 14.0103 112.235 15.2664 110.764C16.7543 109.021 18.7238 107.299 20.654 106.053C23.7296 104.068 23.9022 103.434 21.9332 101.352C20.2513 99.5735 19.6511 98.1961 19.644 96.0991C19.6229 89.8002 27.4257 86.8335 31.6601 91.5308C32.9872 93.0027 33.4323 94.1503 33.4379 96.1128C33.444 98.24 32.8057 99.6791 31.0995 101.385C29.1081 103.377 29.2602 103.955 32.302 105.958C35.862 108.302 38.9337 111.654 40.6943 115.116C41.2334 116.176 41.2377 116.239 40.8043 116.718C40.0524 117.549 36.7565 119.485 34.8055 120.242C33.7952 120.634 31.9973 121.141 30.8103 121.369C29.6232 121.596 28.3971 121.835 28.0853 121.9C27.7738 121.965 27.3363 122.372 27.1131 122.803C26.7777 123.452 26.761 123.715 27.0164 124.332C27.4539 125.388 28.0894 125.646 29.7619 125.446C38.4899 124.401 46.3912 118.767 50.423 110.712C51.9713 107.619 53.151 102.569 53.151 99.0327C53.151 95.524 51.9672 90.4281 50.4529 87.4193L49.8476 86.216L53.0877 84.1063C62.7346 77.8252 64.8393 76.5348 65.1445 76.7146C65.3692 76.8469 77.6488 84.7258 79.7527 86.0875C79.7888 86.1109 79.4072 87.0199 78.9044 88.1079C77.2817 91.6204 76.7038 94.404 76.6898 98.7788C76.6812 101.432 76.8031 103.134 77.0913 104.388C79.4216 114.529 86.5059 121.958 96.5001 124.742C98.7756 125.376 99.3464 125.432 103.3 125.416C106.866 125.401 107.956 125.304 109.566 124.862C119.254 122.201 126.476 115.045 128.988 105.616C129.582 103.389 129.66 102.621 129.66 99.0327C129.66 95.4435 129.582 94.6744 128.986 92.4311C128.203 89.4805 126.494 85.79 124.835 83.4647C123.344 81.3755 120.285 78.3142 118.845 77.47C117.89 76.9106 117.613 76.8537 116.959 77.0817C116.229 77.3364 115.615 78.202 115.615 78.9774C115.615 79.1757 117.016 80.7413 118.729 82.4567C121.061 84.7931 122.122 86.0733 122.956 87.5592C125.902 92.8082 126.727 98.8758 125.274 104.619C124.712 106.843 122.965 110.595 121.692 112.313L120.883 113.406L119.617 111.424C117.628 108.312 114.825 105.339 112.04 103.389C111.5 103.01 111.488 102.952 111.875 102.524C112.61 101.712 113.617 99.1988 113.84 97.6169C114.484 93.0639 111.972 88.4314 107.763 86.4064C106.358 85.7311 105.725 85.5868 103.771 85.497C100.175 85.3319 97.7641 86.2975 95.3202 88.8813C93.5081 90.7972 92.7195 92.6404 92.5651 95.3186C92.4117 97.978 92.7852 99.6929 93.9326 101.598L94.8246 103.08L94.1142 103.595C90.6481 106.11 88.2388 108.828 85.7614 113.017C85.5197 113.426 85.3607 113.293 84.3969 111.873C78.0259 102.492 79.3851 90.1026 87.6322 82.3795C90.7436 79.4662 94.4089 77.5174 98.442 76.6331C101.22 76.0237 105.828 76.0991 108.591 76.7991C111.094 77.4334 111.859 77.3593 112.472 76.4231C113.096 75.4712 112.686 74.2723 111.548 73.7226C108.933 72.4586 101.697 71.9866 97.9332 72.8341C91.8204 74.2108 86.5902 77.3285 82.8108 81.8481L81.8937 82.9447L74.4428 78.1421L66.9919 73.3394L66.9246 65.8466L66.8576 58.3539L68.3211 58.1985C73.6079 57.6379 79.3678 54.8253 83.4697 50.8019C95.0813 39.4117 93.8402 20.3096 80.8534 10.537C75.0377 6.16039 67.1828 4.30612 59.9826 5.60942ZM67.8498 22.7181C69.4312 23.525 70.348 24.4414 71.0889 25.9557C72.4618 28.7616 71.8661 31.7069 69.3984 34.3163C67.5035 36.3199 67.7021 36.958 70.8505 38.9839C72.1924 39.8472 73.8088 41.2124 75.0844 42.5599C77.2129 44.808 79.7228 48.6044 79.4869 49.2191C79.3091 49.6822 76.799 51.3334 74.7398 52.3416C68.4884 55.403 61.0193 55.3695 54.8044 52.2525C53.1756 51.4357 50.1071 49.456 50.1071 49.2219C50.1071 49.1675 50.4065 48.5272 50.7724 47.7987C52.3664 44.6244 55.6166 41.0687 58.714 39.1108C61.002 37.6646 61.5329 37.1138 61.5329 36.1876C61.5329 35.5775 61.2762 35.1659 60.3962 34.3651C57.6459 31.8621 57.1558 28.0654 59.184 24.9761C60.9174 22.3363 65.0107 21.2696 67.8498 22.7181ZM33.0954 77.1833C38.0829 78.7847 42.4673 81.9913 45.3012 86.1099C46.4935 87.843 48.017 91.2154 48.6157 93.4468C49.3977 96.3621 49.4013 101.744 48.623 104.619C47.9995 106.922 46.2526 110.678 45.0356 112.331L44.218 113.442L43.5645 112.331C41.7719 109.285 38.5998 105.744 35.9737 103.856L34.9715 103.136L35.9463 101.211C36.4823 100.153 37.0437 98.5724 37.1935 97.6997C37.9526 93.2794 35.3438 88.4557 31.0863 86.4082C29.6781 85.7308 29.0466 85.5868 27.0915 85.497C23.7948 85.3456 21.6607 86.0924 19.2994 88.2229C15.4395 91.7057 14.6588 97.7345 17.5096 102.043L18.1792 103.055L17.453 103.583C14.4089 105.796 11.2841 109.2 9.66977 112.06L8.88443 113.452L8.304 112.777C7.17209 111.461 5.68902 108.65 4.9367 106.394C3.88807 103.25 3.54732 100.809 3.73242 97.7632C4.09576 91.7788 6.59674 86.4562 10.9662 82.3683C13.1958 80.2827 14.8441 79.2148 17.78 77.9537C20.9013 76.613 22.7497 76.3071 27.1286 76.4051C30.4352 76.4792 31.2216 76.5818 33.0954 77.1833ZM106.093 89.8634C108.628 91.0636 110.13 93.4874 110.089 96.3111C110.061 98.3162 109.383 99.7812 107.711 101.453C105.778 103.386 105.987 104.065 109.15 106.127C112.599 108.375 115.637 111.7 117.389 115.146L117.965 116.279L117.107 117.005C115.958 117.978 113.27 119.518 111.552 120.187C106.642 122.101 100.897 122.259 96.0581 120.613C93.8166 119.85 90.6285 118.181 89.3598 117.104L88.3683 116.263L89.1894 114.723C90.9789 111.365 94.1962 108.018 97.8979 105.663C100.367 104.093 100.447 103.358 98.3978 101.097C96.7523 99.281 96.3168 98.2037 96.3206 95.9564C96.3249 93.2942 97.8941 90.9095 100.381 89.7852C102.018 89.0445 104.434 89.0778 106.093 89.8634Z" fill="#1ADCE2"/>
</svg>
