<svg width="130" height="130" viewBox="0 0 130 130" fill="none" xmlns="http://www.w3.org/2000/svg">
<path fill-rule="evenodd" clip-rule="evenodd" d="M61.8173 0.446422C59.8173 1.09922 57.8312 2.68765 56.7349 4.51171C55.6479 6.32029 55.3216 7.5365 55.3424 9.70486C55.3648 12.0157 56.1151 14.003 57.5809 15.6333L58.7097 16.8889V18.9463V21.0037H51.8822C46.7419 21.0037 44.5359 21.1022 42.9549 21.4021C38.6062 22.227 35.5106 23.8261 31.9407 27.0921C27.6146 31.0497 27.1456 31.1599 14.6413 31.1599C4.99537 31.1599 4.95322 31.1622 4.094 31.7363C2.58986 32.741 2.30498 33.6464 2.39715 37.1267C2.46266 39.597 2.56854 40.3082 2.95574 40.8848C3.86777 42.2424 4.3408 42.3318 10.6115 42.3318C15.9722 42.3318 16.3579 42.3623 16.2381 42.7761C16.1675 43.0207 12.8748 50.3616 8.92102 59.0896L1.73242 74.9588L1.77406 77.4542C1.8543 82.2763 3.4374 86.1281 6.64145 89.2958C8.81996 91.4497 10.5816 92.5814 13.3024 93.5754C15.0556 94.2158 15.418 94.2549 19.4812 94.2445C23.514 94.2343 23.92 94.1889 25.6626 93.5533C32.6546 91.0029 37.1277 84.6793 37.1277 77.3455V75.1162L29.869 59.0414C25.8769 50.2004 22.5576 42.8401 22.4928 42.6858C22.4128 42.4953 23.2576 42.3605 25.1174 42.2666C30.4545 41.9972 34.4985 40.1713 38.998 35.9994C42.6134 32.6473 44.2795 32.1862 52.8064 32.1799L58.7097 32.1756V69.6161V107.057L48.2158 107.131L37.7216 107.205L36.4792 107.973C35.7142 108.446 34.9446 109.214 34.4762 109.972C33.7955 111.073 33.7051 111.464 33.6159 113.682L33.5162 116.162L31.0611 116.26C28.9375 116.346 28.4439 116.454 27.4023 117.065C24.9935 118.476 24.3517 120.319 24.4756 125.47C24.555 128.782 24.5901 128.985 25.1588 129.445C25.7428 129.917 26.7546 129.929 64.8035 129.929C102.852 129.929 103.864 129.917 104.448 129.445C105.017 128.985 105.052 128.782 105.131 125.47C105.255 120.319 104.613 118.476 102.205 117.065C101.163 116.454 100.67 116.346 98.5459 116.26L96.0908 116.162L95.9911 113.682C95.9019 111.464 95.8115 111.073 95.1308 109.972C94.6624 109.214 93.8928 108.446 93.1277 107.973L91.8854 107.205L81.3912 107.131L70.8972 107.057V79.6339V52.211L70.2739 51.588C69.4797 50.7935 68.5062 50.7935 67.712 51.588L67.0887 52.211V79.6446V107.078H64.8035H62.5183V69.6267V32.1756H64.788H67.0579L67.1366 37.0226C67.2138 41.7656 67.2285 41.8804 67.8151 42.3547C68.6304 43.0143 69.5267 42.9638 70.2739 42.2163C70.8909 41.5995 70.8972 41.5452 70.8972 36.8843V32.1756H77.1055C80.7351 32.1756 83.8726 32.2941 84.6592 32.461C86.5277 32.8576 88.2741 33.7922 89.7922 35.2082C92.3244 37.5703 94.0609 38.7962 96.6162 40.0261C99.5864 41.4558 101.831 42.0665 104.961 42.297L107.159 42.4588L99.8192 58.7938L92.4793 75.1289V77.3518C92.4793 82.5117 94.9069 87.6251 98.7845 90.6324C100.751 92.1579 101.684 92.6845 103.905 93.5244C105.721 94.211 106.009 94.2445 110.126 94.2501C114.182 94.2554 114.554 94.2145 116.305 93.5754C119.025 92.5814 120.787 91.4497 122.966 89.2958C126.17 86.1279 127.753 82.2761 127.833 77.4542L127.874 74.9588L120.587 58.8885C116.579 50.0501 113.3 42.7089 113.3 42.5751C113.3 42.4273 115.544 42.3318 119.025 42.3318C125.264 42.3318 125.74 42.2414 126.651 40.8848C127.038 40.3082 127.144 39.597 127.21 37.1267C127.302 33.6464 127.017 32.741 125.513 31.7363C124.654 31.1622 124.612 31.1599 114.966 31.1599C102.461 31.1599 101.992 31.0497 97.6663 27.0921C94.0964 23.8261 91.0008 22.227 86.6521 21.4021C85.0711 21.1022 82.8651 21.0037 77.7248 21.0037H70.8972V18.9374C70.8972 16.8721 70.8978 16.8703 71.9355 15.7448C75.3878 11.9994 75.0024 5.85234 71.095 2.33929C68.7101 0.195055 64.9424 -0.573773 61.8173 0.446422ZM66.9063 4.08033C70.5626 5.61265 71.7199 10.1746 69.1996 13.1189C67.9504 14.5783 66.6918 15.1638 64.8035 15.1638C62.9152 15.1638 61.6566 14.5783 60.4074 13.1189C57.9054 10.1959 59.0269 5.67156 62.6453 4.09074C63.6439 3.65453 65.877 3.6492 66.9063 4.08033ZM67.0887 19.9246V21.0037H64.8035H62.5183V19.9246V18.8455H64.8035H67.0887V19.9246ZM88.3792 25.6796C90.9708 26.5845 93.0945 27.9183 95.2722 30.0087C97.399 32.0501 99.3137 33.2628 101.791 34.137L103.778 34.8383L113.617 34.9195L123.456 35.0008V36.7621V38.5232H113.594C104.679 38.5232 103.548 38.476 101.814 38.0327C98.474 37.1783 95.925 35.6978 92.609 32.6859C91.505 31.6832 89.9674 30.5427 89.1919 30.1512C86.0481 28.5645 86.9352 28.6209 65.0648 28.6209C48.2191 28.6209 44.8795 28.6798 43.6559 28.9984C41.16 29.6484 38.884 30.9842 36.4315 33.2384C33.7894 35.6668 32.0943 36.7568 29.4686 37.716L27.6062 38.3963L16.8787 38.4724L6.15115 38.5486V36.7748V35.0008L15.99 34.9195L25.8289 34.8383L27.8165 34.137C30.2819 33.2669 32.1974 32.057 34.3347 30.0202C36.3863 28.0651 37.9829 26.9766 40.004 26.1544C43.2555 24.8321 43.0841 24.8407 65.4383 24.8918L86.2586 24.9392L88.3792 25.6796ZM25.9264 59.4047C29.4338 67.1887 32.3035 73.6156 32.3035 73.687C32.3035 73.758 26.5335 73.8162 19.4812 73.8162C11.7432 73.8162 6.65896 73.7225 6.65896 73.5801C6.65896 73.4501 9.29959 67.4802 12.5272 60.3135C15.7549 53.1467 18.6141 46.7813 18.8813 46.1678C19.1484 45.5546 19.4081 45.0976 19.4584 45.1522C19.5084 45.207 22.4192 51.6205 25.9264 59.4047ZM116.596 59.2166C119.99 66.7576 122.82 73.1276 122.887 73.3719C123 73.7908 122.271 73.8162 110.128 73.8162C97.968 73.8162 97.2586 73.7913 97.4167 73.3719C98.3219 70.9704 110.132 45.1631 110.258 45.3104C110.35 45.4178 113.202 51.6756 116.596 59.2166ZM33.3191 78.3332C33.3191 80.9893 31.7002 84.5691 29.5072 86.7621C26.81 89.4594 23.6268 90.6578 19.2273 90.6327C14.025 90.6027 10.2368 88.6474 7.64717 84.6554C6.32711 82.6204 5.05022 78.3791 5.52578 77.6093C5.6149 77.4653 11.1501 77.3709 19.4962 77.3709H33.3191V78.3332ZM124.017 78.6404C123.689 83.7383 119.861 88.5095 114.823 90.0967C112.629 90.7878 108.26 90.8431 106.063 90.2079C101.452 88.8741 98.0281 85.4883 96.6928 80.9428C96.4702 80.1844 96.2879 79.0695 96.2879 78.4652V77.3666L110.189 77.4321L124.091 77.4978L124.017 78.6404ZM91.602 111.51C92.1606 112.068 92.2254 112.345 92.2254 114.176V116.219H72.2823H52.339L51.7159 116.842C51.3731 117.185 51.0926 117.761 51.0926 118.123C51.0926 118.485 51.3731 119.061 51.7159 119.404L52.339 120.027H76.1897C99.2878 120.027 100.059 120.042 100.64 120.512C101.185 120.954 101.247 121.227 101.326 123.559L101.413 126.121H64.8274H28.241V123.697C28.241 121.462 28.2895 121.225 28.8643 120.65L29.4874 120.027H35.3268C39.126 120.027 41.3862 119.927 41.7958 119.74C43.0841 119.153 43.1986 117.14 41.9809 116.488C41.7039 116.34 40.556 116.219 39.4296 116.219H37.3816V114.176C37.3816 112.345 37.4464 112.068 38.005 111.51L38.628 110.887H64.8035H90.979L91.602 111.51Z" fill="#1ADCE2"/>
</svg>
