<svg width="32" height="32" viewBox="0 0 32 32" fill="none" xmlns="http://www.w3.org/2000/svg">
<path d="M19.7599 5.68018C19.4951 6.15443 19.2591 6.6442 19.0532 7.14684C17.0302 6.82691 14.9695 6.82691 12.9466 7.14684C12.7407 6.6442 12.5047 6.15443 12.2399 5.68018C10.3343 6.00578 8.48176 6.58889 6.73322 7.41351C3.60648 11.9259 2.18847 17.4041 2.73322 22.8668C4.77087 24.3987 7.05783 25.5669 9.49322 26.3202C10.0478 25.5876 10.5427 24.8118 10.9732 24.0002C10.1787 23.7072 9.41495 23.3365 8.69322 22.8935C8.89117 22.7618 9.07842 22.6147 9.25322 22.4535C11.3578 23.4673 13.6638 23.9937 15.9999 23.9937C18.3359 23.9937 20.6419 23.4673 22.7466 22.4535C22.9332 22.6135 23.1199 22.7602 23.3066 22.8935C22.5809 23.333 21.818 23.7078 21.0266 24.0135C21.4392 24.8436 21.9209 25.6375 22.4666 26.3868C24.8989 25.6362 27.1819 24.4676 29.2132 22.9335C29.7711 17.4698 28.3519 11.9871 25.2132 7.48018C23.4843 6.63849 21.6501 6.03307 19.7599 5.68018ZM11.5732 19.7468C10.906 19.6989 10.2833 19.3944 9.83578 18.8972C9.38829 18.4 9.15082 17.7487 9.17322 17.0802C9.14744 16.4107 9.38374 15.7576 9.83191 15.2597C10.2801 14.7617 10.9048 14.4581 11.5732 14.4135C12.2417 14.4581 12.8664 14.7617 13.3145 15.2597C13.7627 15.7576 13.999 16.4107 13.9732 17.0802C13.999 17.7496 13.7627 18.4027 13.3145 18.9007C12.8664 19.3987 12.2417 19.7022 11.5732 19.7468ZM20.4266 19.7468C19.7593 19.6989 19.1366 19.3944 18.6891 18.8972C18.2416 18.4 18.0042 17.7487 18.0266 17.0802C18.0008 16.4107 18.2371 15.7576 18.6852 15.2597C19.1334 14.7617 19.7581 14.4581 20.4266 14.4135C21.0963 14.4548 21.723 14.7574 22.1718 15.2561C22.6207 15.7548 22.8558 16.4098 22.8266 17.0802C22.8558 17.7505 22.6207 18.4055 22.1718 18.9042C21.723 19.403 21.0963 19.7055 20.4266 19.7468Z" fill="white"/>
</svg>
