<svg width="512" height="512" viewBox="0 0 512 512" fill="none" xmlns="http://www.w3.org/2000/svg">
<g filter="url(#filter0_d_1349_11675)">
<path fill-rule="evenodd" clip-rule="evenodd" d="M54 154C54 141.85 63.8497 132 76 132H436.011C448.162 132 458.011 141.85 458.011 154V211.318C458.011 213.887 455.857 215.897 453.288 215.897C430.352 215.897 411.758 233.733 411.758 255.735C411.758 277.738 430.352 295.574 453.288 295.574C455.846 295.574 458.011 297.555 458.011 300.112V357C458.011 369.15 448.162 379 436.011 379H76C63.8497 379 54 369.15 54 357V300.12C54 297.558 56.1698 295.574 58.7318 295.574C81.6686 295.574 100.262 277.738 100.262 255.735C100.262 233.733 81.6686 215.897 58.7318 215.897C56.1586 215.897 54 213.883 54 211.31V154Z" fill="url(#paint0_radial_1349_11675)"/>
</g>
<path d="M81.9766 172.507H273.066L291.972 153.826H365.572" stroke="#1ADCE2"/>
<path d="M369.17 150.5C371.007 150.5 372.496 151.989 372.496 153.826C372.496 155.663 371.007 157.152 369.17 157.152C367.333 157.152 365.844 155.663 365.844 153.826C365.844 151.989 367.333 150.5 369.17 150.5Z" stroke="#1ADCE2"/>
<path d="M78.8263 169.406C80.6633 169.406 82.1526 170.895 82.1526 172.732C82.1526 174.569 80.6633 176.059 78.8263 176.059C76.9892 176.059 75.5 174.569 75.5 172.732C75.5 170.895 76.9892 169.406 78.8263 169.406Z" stroke="#1ADCE2"/>
<path d="M89 163.801V152.199H94.2935C95.3883 152.199 96.3316 152.37 97.1236 152.713C97.9156 153.044 98.5271 153.525 98.958 154.155C99.3889 154.785 99.6044 155.536 99.6044 156.409C99.6044 157.271 99.3889 158.017 98.958 158.646C98.5271 159.265 97.9156 159.74 97.1236 160.072C96.3316 160.403 95.3883 160.569 94.2935 160.569H90.5723L91.8302 159.392V163.801H89ZM96.7742 163.801L93.7169 159.591H96.7393L99.8315 163.801H96.7742ZM91.8302 159.691L90.5723 158.431H94.1362C95.0097 158.431 95.662 158.254 96.0929 157.901C96.5238 157.536 96.7393 157.039 96.7393 156.409C96.7393 155.768 96.5238 155.271 96.0929 154.917C95.662 154.564 95.0097 154.387 94.1362 154.387H90.5723L91.8302 153.11V159.691Z" fill="white"/>
<path d="M103.82 163.801L109.271 152.199H112.066L117.534 163.801H114.564L110.092 153.558H111.21L106.72 163.801H103.82ZM106.545 161.315L107.296 159.276H113.586L114.354 161.315H106.545Z" fill="white"/>
<path d="M125.004 157.42H130.874V159.575H125.004V157.42ZM125.213 163.801H122.383V152.199H131.625V154.354H125.213V163.801Z" fill="white"/>
<path d="M139.746 157.42H145.616V159.575H139.746V157.42ZM139.955 163.801H137.125V152.199H146.367V154.354H139.955V163.801Z" fill="white"/>
<path d="M151.859 163.801V152.199H154.689V161.613H160.821V163.801H151.859Z" fill="white"/>
<path d="M168.587 156.873H174.475V158.961H168.587V156.873ZM168.797 161.646H175.453V163.801H165.984V152.199H175.226V154.354H168.797V161.646Z" fill="white"/>
<path d="M192.351 163.801V154.387H188.438V152.199H199.094V154.387H195.182V163.801H192.351Z" fill="white"/>
<path d="M204.203 163.801V152.199H207.033V163.801H204.203Z" fill="white"/>
<path d="M219.363 164C218.42 164 217.541 163.856 216.725 163.569C215.922 163.271 215.223 162.851 214.629 162.309C214.035 161.768 213.569 161.133 213.231 160.403C212.905 159.674 212.742 158.873 212.742 158C212.742 157.127 212.905 156.326 213.231 155.597C213.569 154.867 214.035 154.232 214.629 153.691C215.235 153.149 215.939 152.735 216.743 152.448C217.546 152.149 218.426 152 219.381 152C220.441 152 221.396 152.177 222.246 152.53C223.108 152.873 223.83 153.381 224.412 154.055L222.595 155.646C222.176 155.193 221.71 154.856 221.198 154.635C220.685 154.403 220.126 154.287 219.521 154.287C218.95 154.287 218.426 154.376 217.948 154.552C217.471 154.729 217.057 154.983 216.708 155.315C216.358 155.646 216.085 156.039 215.887 156.492C215.7 156.945 215.607 157.448 215.607 158C215.607 158.552 215.7 159.055 215.887 159.508C216.085 159.961 216.358 160.354 216.708 160.685C217.057 161.017 217.471 161.271 217.948 161.448C218.426 161.624 218.95 161.713 219.521 161.713C220.126 161.713 220.685 161.602 221.198 161.381C221.71 161.149 222.176 160.801 222.595 160.337L224.412 161.928C223.83 162.602 223.108 163.116 222.246 163.47C221.396 163.823 220.435 164 219.363 164Z" fill="white"/>
<path d="M232.439 161.149L232.282 158.05L238.134 152.199H241.279L236.003 157.586L234.431 159.177L232.439 161.149ZM229.906 163.801V152.199H232.719V163.801H229.906ZM238.274 163.801L233.924 158.746L235.776 156.84L241.576 163.801H238.274Z" fill="white"/>
<path d="M249.025 156.873H254.913V158.961H249.025V156.873ZM249.235 161.646H255.891V163.801H246.422V152.199H255.664V154.354H249.235V161.646Z" fill="white"/>
<path d="M264.258 163.801V154.387H260.344V152.199H271.001V154.387H267.088V163.801H264.258Z" fill="white"/>
<path d="M149.061 246.502L147.036 244.551L135 257.008L147.472 269.025L150.43 265.963C150.668 266.48 151.005 266.962 151.44 267.381C153.318 269.191 156.311 269.137 158.124 267.261C159.937 265.385 159.883 262.396 158.005 260.586C157.57 260.167 157.076 259.849 156.55 259.629L159.508 256.568L157.483 254.617C155.193 255.922 152.22 255.631 150.228 253.712C148.235 251.791 147.837 248.834 149.061 246.502Z" fill="white"/>
<path d="M149.922 241.518L152.972 244.487C152.457 244.726 151.977 245.064 151.559 245.5C149.756 247.385 149.809 250.388 151.679 252.208C153.548 254.027 156.525 253.973 158.329 252.088C158.746 251.652 159.064 251.156 159.282 250.628L162.332 253.597L164.368 251.468C163.3 249.227 163.657 246.454 165.467 244.561C167.277 242.669 170.013 242.21 172.271 243.207L174.307 241.079L161.897 229L149.922 241.518Z" fill="white"/>
<path d="M174.47 246.94C174.253 246.564 173.983 246.21 173.654 245.896C171.775 244.086 168.782 244.139 166.969 246.016C165.157 247.892 165.21 250.88 167.088 252.69C167.417 253.007 167.779 253.265 168.162 253.468L165.297 256.433L167.61 258.662C169.901 257.357 172.874 257.648 174.865 259.567C176.856 261.486 177.254 264.44 176.03 266.775L177.769 268.451L189.805 255.994L177.333 243.977L174.47 246.94Z" fill="white"/>
<path d="M166.774 261.19C166.356 261.627 166.038 262.123 165.819 262.65L162.478 259.402L160.532 261.435C161.833 263.734 161.543 266.718 159.629 268.716C157.714 270.715 154.767 271.114 152.438 269.886L150.492 271.918L162.918 283.999L174.907 271.48L172.14 268.791C172.656 268.552 173.137 268.214 173.555 267.777C175.36 265.892 175.307 262.888 173.435 261.068C171.561 259.251 168.58 259.305 166.774 261.19Z" fill="white"/>
<path d="M201.102 274.57C201.377 274.57 201.633 274.294 201.869 273.741C202.144 273.189 202.282 272.281 202.282 271.018V250.412C202.282 249.149 202.144 248.261 201.869 247.748C201.633 247.195 201.377 246.899 201.102 246.859H208.3V271.018C208.3 272.281 208.418 273.189 208.654 273.741C208.929 274.294 209.204 274.57 209.48 274.57H201.102ZM204.701 241.175C203.56 241.175 202.675 240.859 202.046 240.228C201.417 239.557 201.102 238.787 201.102 237.919C201.102 237.011 201.397 236.241 201.987 235.609C202.616 234.978 203.521 234.662 204.701 234.662C205.881 234.662 206.766 234.978 207.356 235.609C207.985 236.241 208.3 237.011 208.3 237.919C208.3 238.787 207.985 239.557 207.356 240.228C206.727 240.859 205.842 241.175 204.701 241.175Z" fill="white"/>
<path d="M233.877 275.162C229.59 275.162 225.794 274.965 222.49 274.57C219.187 274.176 216.807 273.781 215.352 273.386V272.202L214.172 265.866C214.722 266.498 215.765 267.169 217.299 267.879C218.872 268.59 220.957 269.202 223.552 269.715C226.148 270.189 229.236 270.425 232.815 270.425C236.041 270.425 238.479 270.208 240.131 269.774C241.823 269.3 242.963 268.669 243.553 267.879C244.183 267.05 244.497 266.103 244.497 265.037C244.497 263.774 243.986 262.768 242.963 262.017C241.941 261.267 240.407 260.675 238.361 260.241C236.355 259.767 233.858 259.353 230.868 258.998C226.974 258.485 223.847 257.814 221.487 256.985C219.128 256.116 217.417 254.971 216.355 253.55C215.293 252.129 214.762 250.333 214.762 248.162C214.762 246.307 215.312 244.649 216.414 243.188C217.554 241.728 219.265 240.583 221.546 239.754C223.828 238.886 226.738 238.451 230.278 238.451C234.369 238.451 237.929 238.649 240.957 239.044C243.986 239.438 246.13 239.833 247.388 240.228V241.412L249.158 246.741C248.332 246.228 247.054 245.695 245.323 245.142C243.632 244.59 241.587 244.136 239.187 243.78C236.788 243.386 234.113 243.188 231.163 243.188C228.725 243.188 226.778 243.366 225.322 243.721C223.906 244.077 222.884 244.609 222.254 245.32C221.664 245.991 221.369 246.82 221.369 247.807C221.369 249.109 221.841 250.156 222.785 250.945C223.769 251.734 225.185 252.346 227.033 252.781C228.921 253.215 231.203 253.59 233.877 253.906C238.125 254.379 241.508 255.05 244.025 255.919C246.543 256.787 248.352 257.952 249.453 259.412C250.555 260.873 251.105 262.767 251.105 265.096C251.105 266.636 250.732 268.037 249.984 269.3C249.276 270.524 248.195 271.59 246.739 272.498C245.284 273.366 243.475 274.037 241.311 274.511C239.187 274.945 236.709 275.162 233.877 275.162Z" fill="white"/>
<path d="M267.451 275.163C263.164 275.163 260.155 274.394 258.424 272.854C256.694 271.275 255.828 269.163 255.828 266.519C255.828 264.663 256.281 263.084 257.185 261.782C258.129 260.44 259.526 259.413 261.374 258.703C263.262 257.992 265.642 257.637 268.513 257.637C270.559 257.637 272.329 257.795 273.823 258.111C275.357 258.387 276.596 258.722 277.54 259.117C278.523 259.512 279.212 259.847 279.605 260.124C279.605 257.795 279.31 255.92 278.72 254.499C278.169 253.078 277.265 252.051 276.006 251.42C274.747 250.749 273.036 250.413 270.873 250.413C268.553 250.413 266.468 250.689 264.619 251.242C262.81 251.755 261.355 252.328 260.253 252.959C259.152 253.551 258.464 253.986 258.188 254.262V253.078L257.598 248.637C257.952 248.479 258.719 248.222 259.899 247.867C261.079 247.472 262.633 247.117 264.56 246.801C266.488 246.446 268.749 246.268 271.345 246.268C274.649 246.268 277.343 246.742 279.428 247.689C281.552 248.597 283.106 250.018 284.089 251.953C285.112 253.847 285.623 256.255 285.623 259.176V271.019C285.623 272.124 285.741 272.933 285.977 273.446C286.252 273.92 286.528 274.295 286.803 274.571H279.605V272.795L279.723 271.67L279.605 271.611C278.976 272.203 278.228 272.716 277.363 273.15C276.498 273.584 275.554 273.959 274.531 274.275C273.508 274.552 272.388 274.769 271.168 274.927C269.988 275.084 268.749 275.163 267.451 275.163ZM269.398 270.959C271.522 270.959 273.351 270.742 274.885 270.308C276.419 269.874 277.579 269.301 278.366 268.591C279.192 267.841 279.605 266.992 279.605 266.045C279.605 264.861 278.818 263.854 277.245 263.025C275.711 262.196 273.312 261.782 270.047 261.782C267.019 261.782 264.875 262.176 263.616 262.966C262.397 263.755 261.787 264.94 261.787 266.519C261.787 268.058 262.377 269.183 263.557 269.894C264.777 270.604 266.724 270.959 269.398 270.959Z" fill="white"/>
<path d="M299.787 274.57C300.062 274.57 300.239 274.314 300.318 273.801C300.436 273.248 300.259 272.32 299.787 271.018C299.59 270.504 299.217 269.597 298.666 268.294C298.115 266.991 297.466 265.491 296.719 263.794C295.972 262.057 295.205 260.32 294.418 258.583C293.631 256.807 292.904 255.208 292.235 253.787C291.566 252.327 291.035 251.241 290.642 250.531C289.973 249.267 289.364 248.359 288.813 247.807C288.262 247.215 287.869 246.899 287.633 246.859H297.25C296.896 246.859 296.66 247.136 296.542 247.688C296.424 248.241 296.66 249.188 297.25 250.531C297.565 251.202 297.997 252.228 298.548 253.61C299.099 254.952 299.708 256.511 300.377 258.287C301.085 260.024 301.793 261.8 302.501 263.616C303.248 265.432 303.917 267.129 304.507 268.708H304.566C305.195 267.09 305.883 265.373 306.631 263.557C307.378 261.702 308.106 259.886 308.814 258.11C309.522 256.333 310.151 254.774 310.702 253.432C311.292 252.05 311.724 251.044 312 250.412C312.55 249.149 312.767 248.241 312.649 247.688C312.531 247.136 312.314 246.859 312 246.859H321.263C321.027 246.859 320.653 247.136 320.142 247.688C319.67 248.202 319.119 249.09 318.49 250.353C318.136 251.024 317.624 252.05 316.956 253.432C316.287 254.813 315.54 256.373 314.714 258.11C313.927 259.807 313.14 261.504 312.354 263.202C311.606 264.899 310.938 266.458 310.348 267.879C309.797 269.261 309.423 270.307 309.227 271.018C308.873 272.32 308.735 273.248 308.814 273.801C308.892 274.314 309.03 274.57 309.227 274.57H299.787Z" fill="white"/>
<path d="M337.021 275.163C333.913 275.163 331.356 274.808 329.35 274.098C327.344 273.348 325.771 272.321 324.63 271.019C323.489 269.716 322.684 268.196 322.212 266.459C321.779 264.722 321.562 262.828 321.562 260.775C321.562 256.314 322.822 252.782 325.339 250.176C327.896 247.571 331.672 246.268 336.667 246.268C339.577 246.268 341.918 246.663 343.688 247.453C345.497 248.242 346.854 249.288 347.759 250.591C348.703 251.893 349.332 253.314 349.647 254.854C350.001 256.354 350.177 257.834 350.177 259.295V262.078C350.177 261.959 349.627 261.841 348.526 261.722C347.464 261.565 345.654 261.486 343.098 261.486H327.581C327.581 264.407 328.446 266.716 330.177 268.413C331.908 270.111 334.484 270.959 337.906 270.959C340.856 270.959 343.275 270.604 345.163 269.894C347.09 269.144 348.367 268.413 348.997 267.703V268.887L349.587 272.795C348.721 273.308 347.188 273.841 344.986 274.394C342.822 274.907 340.167 275.163 337.021 275.163ZM329.94 257.578H344.277C344.277 256.551 344.061 255.486 343.629 254.38C343.196 253.275 342.429 252.347 341.328 251.597C340.226 250.808 338.673 250.413 336.667 250.413C334.975 250.413 333.5 250.709 332.242 251.301C330.983 251.854 330 252.584 329.292 253.492C328.623 254.4 328.289 255.367 328.289 256.393C328.289 256.788 328.407 257.084 328.643 257.282C328.879 257.479 329.311 257.578 329.94 257.578Z" fill="white"/>
<path d="M355.227 274.571C355.503 274.571 355.758 274.295 355.994 273.742C356.27 273.19 356.407 272.282 356.407 271.019V251.005C356.407 249.742 356.27 248.854 355.994 248.341C355.758 247.788 355.503 247.492 355.227 247.453C356.958 247.453 358.453 247.334 359.711 247.097C361.009 246.821 361.914 246.545 362.425 246.268V249.229L362.307 250.235L362.425 250.354C363.015 249.564 363.723 248.874 364.549 248.282C365.414 247.65 366.398 247.157 367.499 246.801C368.6 246.446 369.859 246.268 371.275 246.268C373.124 246.268 374.717 246.545 376.054 247.097C377.431 247.61 378.414 248.143 379.004 248.696L377.824 253.67V255.446C377.313 254.814 376.565 254.163 375.582 253.492C374.638 252.782 373.556 252.189 372.337 251.716C371.118 251.242 369.82 251.005 368.443 251.005C366.87 251.005 365.473 251.637 364.254 252.9C363.035 254.163 362.425 256.255 362.425 259.176V271.019C362.425 272.282 362.543 273.19 362.779 273.742C363.054 274.295 363.33 274.571 363.605 274.571H355.227Z" fill="white"/>
<path d="M81.8281 338.967H192.438L208.743 357.255H432" stroke="#1ADCE2"/>
<path d="M435.832 360.499C437.624 360.499 439.077 359.046 439.077 357.254C439.077 355.461 437.624 354.008 435.832 354.008C434.039 354.008 432.586 355.461 432.586 357.254C432.586 359.046 434.039 360.499 435.832 360.499Z" stroke="#1ADCE2"/>
<path d="M78.7458 341.992C80.5383 341.992 81.9915 340.538 81.9915 338.746C81.9915 336.953 80.5383 335.5 78.7458 335.5C76.9532 335.5 75.5 336.953 75.5 338.746C75.5 340.538 76.9532 341.992 78.7458 341.992Z" stroke="#1ADCE2"/>
<path d="M98 356.81C98.0914 356.81 98.1762 356.721 98.2545 356.544C98.3459 356.366 98.3915 356.075 98.3915 355.67V349.056C98.3915 348.65 98.3459 348.365 98.2545 348.2C98.1762 348.023 98.0914 347.928 98 347.915H100.388V355.67C100.388 356.075 100.428 356.366 100.506 356.544C100.597 356.721 100.689 356.81 100.78 356.81H98ZM99.1942 346.091C98.8157 346.091 98.5221 345.989 98.3132 345.787C98.1044 345.571 98 345.324 98 345.045C98 344.754 98.0979 344.507 98.2937 344.304C98.5025 344.101 98.8027 344 99.1942 344C99.5858 344 99.8794 344.101 100.075 344.304C100.284 344.507 100.388 344.754 100.388 345.045C100.388 345.324 100.284 345.571 100.075 345.787C99.8664 345.989 99.5727 346.091 99.1942 346.091Z" fill="white"/>
<path d="M108.875 357.001C107.452 357.001 106.193 356.938 105.097 356.811C104 356.684 103.211 356.558 102.728 356.431V356.051L102.336 354.017C102.519 354.22 102.865 354.435 103.374 354.663C103.896 354.891 104.588 355.088 105.449 355.252C106.31 355.405 107.335 355.481 108.523 355.481C109.593 355.481 110.402 355.411 110.95 355.271C111.511 355.119 111.89 354.917 112.086 354.663C112.295 354.397 112.399 354.093 112.399 353.751C112.399 353.346 112.229 353.022 111.89 352.782C111.551 352.541 111.042 352.351 110.363 352.212C109.697 352.059 108.868 351.926 107.877 351.812C106.584 351.648 105.547 351.432 104.764 351.166C103.981 350.887 103.413 350.52 103.061 350.064C102.708 349.608 102.532 349.031 102.532 348.334C102.532 347.739 102.715 347.207 103.08 346.738C103.459 346.269 104.026 345.902 104.783 345.636C105.54 345.357 106.506 345.217 107.681 345.217C109.038 345.217 110.219 345.281 111.224 345.407C112.229 345.534 112.941 345.661 113.358 345.788V346.168L113.946 347.878C113.671 347.713 113.247 347.542 112.673 347.365C112.112 347.188 111.433 347.042 110.637 346.928C109.841 346.801 108.953 346.738 107.974 346.738C107.165 346.738 106.519 346.795 106.036 346.909C105.566 347.023 105.227 347.194 105.018 347.422C104.822 347.637 104.725 347.904 104.725 348.22C104.725 348.638 104.881 348.974 105.194 349.228C105.521 349.481 105.991 349.677 106.604 349.817C107.23 349.956 107.987 350.077 108.875 350.178C110.285 350.33 111.407 350.545 112.242 350.824C113.078 351.103 113.678 351.477 114.043 351.945C114.409 352.414 114.592 353.022 114.592 353.77C114.592 354.264 114.468 354.714 114.22 355.119C113.985 355.512 113.626 355.854 113.143 356.146C112.66 356.424 112.06 356.64 111.342 356.792C110.637 356.931 109.815 357.001 108.875 357.001Z" fill="white"/>
<path d="M120.013 357C118.59 357 117.592 356.753 117.017 356.259C116.443 355.752 116.156 355.074 116.156 354.225C116.156 353.63 116.306 353.123 116.606 352.705C116.919 352.274 117.383 351.944 117.996 351.716C118.623 351.488 119.412 351.374 120.365 351.374C121.044 351.374 121.631 351.425 122.127 351.526C122.636 351.615 123.047 351.723 123.36 351.849C123.687 351.976 123.915 352.084 124.046 352.173C124.046 351.425 123.948 350.823 123.752 350.367C123.569 349.911 123.269 349.581 122.851 349.379C122.434 349.163 121.866 349.056 121.148 349.056C120.378 349.056 119.686 349.144 119.073 349.322C118.472 349.486 117.99 349.67 117.624 349.873C117.259 350.063 117.03 350.202 116.939 350.291V349.911L116.743 348.485C116.861 348.435 117.115 348.352 117.507 348.238C117.898 348.112 118.414 347.998 119.053 347.896C119.693 347.782 120.443 347.725 121.305 347.725C122.401 347.725 123.295 347.877 123.987 348.181C124.692 348.473 125.207 348.929 125.533 349.55C125.873 350.158 126.042 350.931 126.042 351.868V355.67C126.042 356.024 126.082 356.284 126.16 356.449C126.251 356.601 126.343 356.721 126.434 356.81H124.046V356.24L124.085 355.879L124.046 355.86C123.837 356.05 123.589 356.214 123.302 356.354C123.014 356.493 122.701 356.614 122.362 356.715C122.023 356.804 121.651 356.873 121.246 356.924C120.854 356.975 120.443 357 120.013 357ZM120.659 355.651C121.363 355.651 121.97 355.581 122.479 355.442C122.988 355.302 123.373 355.118 123.634 354.89C123.908 354.65 124.046 354.377 124.046 354.073C124.046 353.693 123.784 353.37 123.262 353.104C122.753 352.838 121.957 352.705 120.874 352.705C119.869 352.705 119.158 352.831 118.74 353.085C118.335 353.338 118.133 353.718 118.133 354.225C118.133 354.719 118.329 355.08 118.72 355.308C119.125 355.537 119.771 355.651 120.659 355.651Z" fill="white"/>
<path d="M130.744 356.809C130.835 356.809 130.894 356.727 130.92 356.562C130.959 356.384 130.901 356.087 130.744 355.669C130.679 355.504 130.555 355.212 130.372 354.794C130.189 354.376 129.974 353.895 129.726 353.35C129.478 352.792 129.223 352.235 128.962 351.677C128.701 351.107 128.46 350.594 128.238 350.138C128.016 349.669 127.84 349.321 127.709 349.093C127.488 348.687 127.285 348.396 127.103 348.218C126.92 348.028 126.789 347.927 126.711 347.914H129.902C129.785 347.914 129.706 348.003 129.667 348.18C129.628 348.358 129.706 348.662 129.902 349.093C130.007 349.308 130.15 349.637 130.333 350.081C130.516 350.512 130.718 351.012 130.94 351.582C131.175 352.14 131.41 352.71 131.645 353.293C131.892 353.876 132.114 354.421 132.31 354.927H132.33C132.539 354.408 132.767 353.857 133.015 353.274C133.263 352.678 133.504 352.095 133.739 351.525C133.974 350.955 134.183 350.455 134.366 350.024C134.562 349.58 134.705 349.257 134.796 349.055C134.979 348.649 135.051 348.358 135.012 348.18C134.973 348.003 134.901 347.914 134.796 347.914H137.87C137.792 347.914 137.668 348.003 137.498 348.18C137.342 348.345 137.159 348.63 136.95 349.036C136.833 349.251 136.663 349.58 136.441 350.024C136.219 350.467 135.971 350.968 135.697 351.525C135.436 352.07 135.175 352.615 134.914 353.16C134.666 353.705 134.444 354.205 134.248 354.661C134.066 355.105 133.942 355.441 133.876 355.669C133.759 356.087 133.713 356.384 133.739 356.562C133.765 356.727 133.811 356.809 133.876 356.809H130.744Z" fill="white"/>
<path d="M143.098 357C142.067 357 141.219 356.886 140.553 356.658C139.887 356.417 139.365 356.088 138.987 355.67C138.608 355.251 138.341 354.764 138.184 354.206C138.041 353.649 137.969 353.04 137.969 352.382C137.969 350.95 138.386 349.816 139.222 348.98C140.07 348.143 141.323 347.725 142.981 347.725C143.946 347.725 144.723 347.852 145.31 348.105C145.911 348.359 146.361 348.694 146.661 349.113C146.974 349.531 147.183 349.987 147.288 350.481C147.405 350.962 147.464 351.438 147.464 351.906V352.8C147.464 352.762 147.281 352.724 146.916 352.686C146.563 352.635 145.963 352.61 145.115 352.61H139.966C139.966 353.547 140.253 354.288 140.827 354.833C141.401 355.378 142.256 355.651 143.392 355.651C144.371 355.651 145.173 355.537 145.8 355.308C146.439 355.068 146.863 354.833 147.072 354.605V354.985L147.268 356.24C146.981 356.404 146.472 356.576 145.741 356.753C145.023 356.918 144.142 357 143.098 357ZM140.749 351.355H145.506C145.506 351.026 145.434 350.684 145.291 350.329C145.147 349.974 144.893 349.676 144.527 349.436C144.162 349.182 143.646 349.056 142.981 349.056C142.419 349.056 141.93 349.151 141.512 349.341C141.095 349.518 140.768 349.752 140.533 350.044C140.312 350.335 140.201 350.646 140.201 350.975C140.201 351.102 140.24 351.197 140.318 351.26C140.396 351.324 140.54 351.355 140.749 351.355Z" fill="white"/>
<path d="M149.141 356.81C149.232 356.81 149.317 356.721 149.396 356.544C149.487 356.366 149.533 356.075 149.533 355.67V349.246C149.533 348.84 149.487 348.555 149.396 348.39C149.317 348.213 149.232 348.118 149.141 348.105C149.715 348.105 150.211 348.067 150.629 347.991C151.06 347.903 151.36 347.814 151.529 347.725V348.675L151.49 348.999L151.529 349.037C151.725 348.783 151.96 348.561 152.234 348.371C152.521 348.169 152.848 348.01 153.213 347.896C153.579 347.782 153.996 347.725 154.466 347.725C155.079 347.725 155.608 347.814 156.052 347.991C156.509 348.156 156.835 348.327 157.031 348.504L156.639 350.101V350.671C156.469 350.468 156.222 350.259 155.895 350.044C155.582 349.816 155.223 349.626 154.818 349.474C154.414 349.322 153.983 349.246 153.526 349.246C153.004 349.246 152.541 349.448 152.136 349.854C151.732 350.259 151.529 350.931 151.529 351.868V355.67C151.529 356.075 151.569 356.366 151.647 356.544C151.738 356.721 151.83 356.81 151.921 356.81H149.141Z" fill="white"/>
<path d="M159.592 356.999C159.214 356.999 158.92 356.898 158.711 356.695C158.503 356.48 158.398 356.232 158.398 355.954C158.398 355.662 158.496 355.415 158.692 355.212C158.901 355.01 159.201 354.908 159.592 354.908C159.984 354.908 160.278 355.01 160.473 355.212C160.682 355.415 160.787 355.662 160.787 355.954C160.787 356.232 160.682 356.48 160.473 356.695C160.265 356.898 159.971 356.999 159.592 356.999Z" fill="white"/>
<path d="M162.656 356.81C162.747 356.81 162.832 356.721 162.91 356.544C163.002 356.366 163.047 356.075 163.047 355.67V349.056C163.047 348.65 163.002 348.365 162.91 348.2C162.832 348.023 162.747 347.928 162.656 347.915H165.044V355.67C165.044 356.075 165.083 356.366 165.162 356.544C165.253 356.721 165.344 356.81 165.436 356.81H162.656ZM163.85 346.091C163.472 346.091 163.178 345.989 162.969 345.787C162.76 345.571 162.656 345.324 162.656 345.045C162.656 344.754 162.754 344.507 162.949 344.304C163.158 344.101 163.458 344 163.85 344C164.242 344 164.535 344.101 164.731 344.304C164.94 344.507 165.044 344.754 165.044 345.045C165.044 345.324 164.94 345.571 164.731 345.787C164.522 345.989 164.229 346.091 163.85 346.091Z" fill="white"/>
<path d="M171.949 357C170.644 357 169.619 356.797 168.875 356.392C168.145 355.986 167.629 355.435 167.329 354.738C167.042 354.041 166.898 353.256 166.898 352.382C166.898 351.495 167.048 350.703 167.348 350.006C167.662 349.309 168.184 348.758 168.915 348.352C169.645 347.934 170.657 347.725 171.949 347.725C173.241 347.725 174.253 347.934 174.984 348.352C175.714 348.758 176.23 349.309 176.53 350.006C176.843 350.703 177 351.495 177 352.382C177 353.256 176.85 354.041 176.55 354.738C176.263 355.435 175.754 355.986 175.023 356.392C174.292 356.797 173.267 357 171.949 357ZM171.949 355.651C172.758 355.651 173.385 355.524 173.828 355.27C174.272 355.017 174.579 354.65 174.749 354.168C174.918 353.674 175.003 353.078 175.003 352.382C175.003 351.685 174.912 351.089 174.729 350.595C174.559 350.101 174.253 349.721 173.809 349.455C173.378 349.189 172.758 349.056 171.949 349.056C171.153 349.056 170.533 349.195 170.089 349.474C169.645 349.74 169.332 350.126 169.149 350.633C168.98 351.127 168.895 351.716 168.895 352.401C168.895 353.072 168.98 353.655 169.149 354.149C169.319 354.631 169.626 355.004 170.07 355.27C170.513 355.524 171.14 355.651 171.949 355.651Z" fill="white"/>
<path d="M226.172 350H219V327H226.172V350ZM233.344 349.984H229.701V327H233.344V349.984ZM244.045 349.984H240.516V327H244.045V349.984ZM261.917 349.984H258.388V327H261.917V349.984ZM279.79 349.984H272.732V327H279.79V349.984ZM294.134 349.984H290.605V327H294.134V349.984ZM301.306 349.984H297.777V327H301.306V349.984ZM308.478 349.984H304.949V327H308.478V349.984ZM326.35 349.984H319.179V327H326.35V349.984ZM344.223 349.984H337.051V327H344.223V349.984ZM358.567 349.984H351.395V327H358.567V349.984ZM372.911 349.984H365.739V327H372.911V349.984ZM383.612 349.984H376.44V327H383.612V349.984ZM405.127 349.984H394.426V327H405.127V349.984ZM412.299 349.984H408.656V327H412.299V349.984ZM423 350H415.828V327H423V350Z" fill="#1ADCE2"/>
<path d="M314.047 327V350" stroke="#1ADCE2"/>
<path d="M392.758 327V350" stroke="#1ADCE2"/>
<path d="M257.227 327V350" stroke="#1ADCE2"/>
<path d="M239.531 327V350" stroke="#1ADCE2"/>
<path d="M360.156 327V350" stroke="#1ADCE2"/>
<path d="M329.523 327V350" stroke="#1ADCE2" stroke-width="4"/>
<path d="M247.547 327V350" stroke="#1ADCE2" stroke-width="4"/>
<path d="M289 327V350" stroke="#1ADCE2" stroke-width="4"/>
<path d="M271.766 327V350" stroke="#1ADCE2" stroke-width="4"/>
<path d="M223.776 319.877L220 309.123H221.662L225.131 319.047H224.292L227.891 309.123H229.375L232.893 319.047H232.086L235.604 309.123H237.136L233.361 319.877H231.666L228.375 310.675H228.81L225.502 319.877H223.776Z" fill="white"/>
<path d="M244.352 319.877V309.123H245.965V319.877H244.352Z" fill="white"/>
<path d="M254.594 319.877V309.123H255.917L263.388 317.957H262.694V309.123H264.308V319.877H262.985L255.514 311.043H256.208V319.877H254.594Z" fill="white"/>
<path d="M282.508 319.877V309.123H287.574C288.876 309.123 289.876 309.374 290.576 309.876C291.275 310.367 291.624 311.043 291.624 311.904C291.624 312.487 291.485 312.979 291.205 313.378C290.936 313.778 290.57 314.085 290.108 314.3C289.645 314.515 289.145 314.623 288.607 314.623L288.897 314.162C289.543 314.162 290.113 314.27 290.608 314.485C291.103 314.7 291.495 315.017 291.786 315.437C292.076 315.847 292.222 316.359 292.222 316.973C292.222 317.895 291.856 318.612 291.124 319.124C290.404 319.626 289.328 319.877 287.897 319.877H282.508ZM284.121 318.633H287.833C288.725 318.633 289.408 318.489 289.882 318.203C290.355 317.916 290.592 317.465 290.592 316.851C290.592 316.226 290.355 315.77 289.882 315.483C289.408 315.196 288.725 315.053 287.833 315.053H283.976V313.809H287.429C288.247 313.809 288.881 313.665 289.333 313.378C289.785 313.092 290.011 312.662 290.011 312.088C290.011 311.514 289.785 311.084 289.333 310.797C288.881 310.511 288.247 310.367 287.429 310.367H284.121V318.633Z" fill="white"/>
<path d="M299.969 319.877V309.123H301.583V319.877H299.969Z" fill="white"/>
<path d="M315.308 320C314.436 320 313.635 319.867 312.903 319.601C312.172 319.324 311.537 318.94 310.999 318.448C310.461 317.946 310.042 317.363 309.741 316.697C309.439 316.031 309.289 315.299 309.289 314.5C309.289 313.701 309.439 312.969 309.741 312.303C310.042 311.637 310.461 311.059 310.999 310.567C311.548 310.065 312.188 309.681 312.919 309.415C313.651 309.138 314.458 309 315.34 309C316.233 309 317.05 309.138 317.793 309.415C318.535 309.691 319.164 310.106 319.68 310.659L318.68 311.612C318.217 311.182 317.712 310.869 317.163 310.675C316.625 310.47 316.039 310.367 315.404 310.367C314.759 310.367 314.157 310.47 313.597 310.675C313.049 310.879 312.57 311.166 312.161 311.535C311.763 311.904 311.451 312.344 311.225 312.856C311.01 313.358 310.902 313.906 310.902 314.5C310.902 315.084 311.01 315.632 311.225 316.144C311.451 316.646 311.763 317.086 312.161 317.465C312.57 317.834 313.049 318.121 313.597 318.325C314.146 318.53 314.743 318.633 315.388 318.633C315.991 318.633 316.566 318.546 317.115 318.372C317.674 318.187 318.191 317.885 318.664 317.465L319.584 318.633C319.024 319.083 318.368 319.426 317.615 319.662C316.873 319.887 316.104 320 315.308 320ZM318.035 318.433V314.439H319.584V318.633L318.035 318.433Z" fill="white"/>
<path d="M337.492 319.877V309.123H341.897C342.887 309.123 343.731 309.271 344.43 309.568C345.13 309.865 345.667 310.296 346.044 310.859C346.42 311.422 346.609 312.093 346.609 312.872C346.609 313.65 346.42 314.321 346.044 314.884C345.667 315.437 345.13 315.867 344.43 316.175C343.731 316.472 342.887 316.62 341.897 316.62H338.379L339.105 315.898V319.877H337.492ZM339.105 316.052L338.379 315.284H341.849C342.881 315.284 343.661 315.074 344.188 314.654C344.726 314.234 344.995 313.64 344.995 312.872C344.995 312.103 344.726 311.509 344.188 311.089C343.661 310.669 342.881 310.459 341.849 310.459H338.379L339.105 309.691V316.052Z" fill="white"/>
<path d="M354.227 319.877V309.123H358.632C359.621 309.123 360.466 309.271 361.165 309.568C361.864 309.865 362.402 310.296 362.779 310.859C363.155 311.422 363.343 312.093 363.343 312.872C363.343 313.65 363.155 314.321 362.779 314.884C362.402 315.437 361.864 315.862 361.165 316.159C360.466 316.456 359.621 316.605 358.632 316.605H355.114L355.84 315.898V319.877H354.227ZM361.778 319.877L358.906 315.975H360.633L363.537 319.877H361.778ZM355.84 316.052L355.114 315.299H358.583C359.616 315.299 360.396 315.089 360.923 314.669C361.461 314.239 361.73 313.64 361.73 312.872C361.73 312.103 361.461 311.509 360.923 311.089C360.396 310.669 359.616 310.459 358.583 310.459H355.114L355.84 309.691V316.052Z" fill="white"/>
<path d="M371.195 319.877V309.123H372.808V319.877H371.195Z" fill="white"/>
<path d="M380.43 319.877V318.832L388.03 309.86L388.207 310.459H380.543V309.123H389.659V310.168L382.092 319.14L381.898 318.541H389.869V319.877H380.43Z" fill="white"/>
<path d="M398.75 313.763H404.559V315.068H398.75V313.763ZM398.895 318.541H405.478V319.877H397.281V309.123H405.252V310.459H398.895V318.541Z" fill="white"/>
<path d="M416.629 320C415.769 320 414.946 319.877 414.16 319.631C413.375 319.375 412.756 319.047 412.305 318.648L412.902 317.45C413.332 317.808 413.881 318.105 414.548 318.341C415.215 318.576 415.908 318.694 416.629 318.694C417.285 318.694 417.818 318.622 418.227 318.479C418.635 318.336 418.937 318.141 419.13 317.895C419.324 317.639 419.421 317.352 419.421 317.035C419.421 316.666 419.292 316.369 419.033 316.144C418.786 315.919 418.458 315.739 418.049 315.606C417.651 315.463 417.21 315.34 416.726 315.237C416.242 315.135 415.752 315.017 415.258 314.884C414.773 314.741 414.327 314.561 413.918 314.346C413.52 314.131 413.198 313.845 412.95 313.486C412.703 313.117 412.579 312.646 412.579 312.073C412.579 311.52 412.73 311.013 413.031 310.552C413.343 310.081 413.816 309.707 414.451 309.43C415.096 309.143 415.914 309 416.903 309C417.56 309 418.21 309.082 418.856 309.246C419.501 309.41 420.061 309.645 420.534 309.953L420.002 311.182C419.517 310.874 419.007 310.654 418.469 310.521C417.931 310.378 417.409 310.306 416.903 310.306C416.269 310.306 415.747 310.383 415.338 310.536C414.929 310.69 414.628 310.895 414.435 311.151C414.252 311.407 414.16 311.694 414.16 312.011C414.16 312.39 414.284 312.692 414.531 312.918C414.79 313.143 415.118 313.322 415.516 313.455C415.925 313.588 416.371 313.711 416.855 313.824C417.339 313.926 417.823 314.044 418.307 314.177C418.802 314.311 419.249 314.485 419.647 314.7C420.055 314.915 420.383 315.202 420.631 315.56C420.878 315.919 421.002 316.379 421.002 316.943C421.002 317.486 420.846 317.993 420.534 318.464C420.222 318.925 419.738 319.298 419.082 319.585C418.436 319.862 417.619 320 416.629 320Z" fill="white"/>
<path fill-rule="evenodd" clip-rule="evenodd" d="M198 322.312V320.2L193.028 326.615H194.665L198 322.312ZM125.112 303H126.749L108.448 326.615H106.811L125.112 303ZM114.023 326.615H112.194L130.496 303H132.324L114.023 326.615ZM169.858 303H168.207L149.906 326.615H151.557L169.858 303ZM155.303 326.615H157.132L175.433 303H173.605L155.303 326.615ZM82.0102 303H83.6472L65.3456 326.615H63.7086L82.0102 303ZM70.9138 326.615H69.0921L87.3937 303H89.2153L70.9138 326.615ZM198 315.366V313.236L187.631 326.615H189.282L198 315.366ZM119.715 303H121.366L103.064 326.615H101.413L119.715 303ZM164.461 303H162.824L144.522 326.615H146.159L164.461 303ZM76.6199 303H78.2638L59.9622 326.615H58.3183L76.6199 303ZM198 308.402V306.289L182.248 326.615H183.885L198 308.402ZM114.332 303H115.969L97.667 326.615H96.03L114.332 303ZM159.077 303H157.44L139.139 326.615H140.776L159.077 303ZM71.2295 303H72.8735L54.5719 326.615H54V325.232L71.2295 303ZM178.501 326.615H176.851L195.152 303H196.803L178.501 326.615ZM108.948 303H110.585L92.2835 326.615H90.6465L108.948 303ZM153.694 303H152.043L133.742 326.615H135.392L153.694 303ZM65.8392 303H67.4831L54 320.398V318.276L65.8392 303ZM191.406 303H189.769L171.467 326.615H173.104L191.406 303ZM103.558 303H105.202L86.9001 326.615H85.2562L103.558 303ZM148.297 303H146.66L128.358 326.615H129.995L148.297 303ZM60.4558 303H62.0928L54 313.442V311.33L60.4558 303ZM186.022 303H184.57L166.268 326.615H167.721L186.022 303ZM98.352 303H99.811L81.5098 326.615H80.0505L98.352 303ZM142.913 303H141.454L123.153 326.615H124.612L142.913 303ZM55.257 303H56.7094L54 306.496V304.622L55.257 303ZM180.823 303H179.18L160.878 326.615H162.522L180.823 303ZM92.9618 303H94.6057L76.3041 326.615H74.6602L92.9618 303ZM137.708 303H136.071L117.769 326.615H119.406L137.708 303Z" fill="url(#paint1_linear_1349_11675)"/>
<path d="M400.331 147H398.898V148.43H400.331V147Z" fill="#1ADCE2"/>
<path d="M401.761 147H400.328V148.43H401.761V147Z" fill="#1ADCE2"/>
<path d="M404.62 147H403.188V148.43H404.62V147Z" fill="#1ADCE2"/>
<path d="M406.057 147H404.625V148.43H406.057V147Z" fill="#1ADCE2"/>
<path d="M410.354 147H408.922V148.43H410.354V147Z" fill="#1ADCE2"/>
<path d="M411.784 147H410.352V148.43H411.784V147Z" fill="#1ADCE2"/>
<path d="M413.229 147H411.797V148.43H413.229V147Z" fill="#1ADCE2"/>
<path d="M421.815 147H420.383V148.43H421.815V147Z" fill="#1ADCE2"/>
<path d="M426.12 147H424.688V148.43H426.12V147Z" fill="#1ADCE2"/>
<path d="M398.886 148.43H397.453V149.86H398.886V148.43Z" fill="#1ADCE2"/>
<path d="M403.175 148.43H401.742V149.86H403.175V148.43Z" fill="#1ADCE2"/>
<path d="M404.62 148.43H403.188V149.86H404.62V148.43Z" fill="#1ADCE2"/>
<path d="M406.057 148.43H404.625V149.86H406.057V148.43Z" fill="#1ADCE2"/>
<path d="M410.354 148.43H408.922V149.86H410.354V148.43Z" fill="#1ADCE2"/>
<path d="M411.784 148.43H410.352V149.86H411.784V148.43Z" fill="#1ADCE2"/>
<path d="M416.073 148.43H414.641V149.86H416.073V148.43Z" fill="#1ADCE2"/>
<path d="M417.518 148.43H416.086V149.86H417.518V148.43Z" fill="#1ADCE2"/>
<path d="M418.964 148.43H417.531V149.86H418.964V148.43Z" fill="#1ADCE2"/>
<path d="M421.815 148.43H420.383V149.86H421.815V148.43Z" fill="#1ADCE2"/>
<path d="M427.534 148.43H426.102V149.86H427.534V148.43Z" fill="#1ADCE2"/>
<path d="M398.886 149.861H397.453V151.291H398.886V149.861Z" fill="#1ADCE2"/>
<path d="M400.331 149.861H398.898V151.291H400.331V149.861Z" fill="#1ADCE2"/>
<path d="M403.175 149.861H401.742V151.291H403.175V149.861Z" fill="#1ADCE2"/>
<path d="M406.057 149.861H404.625V151.291H406.057V149.861Z" fill="#1ADCE2"/>
<path d="M413.229 149.861H411.797V151.291H413.229V149.861Z" fill="#1ADCE2"/>
<path d="M414.628 149.861H413.195V151.291H414.628V149.861Z" fill="#1ADCE2"/>
<path d="M417.518 149.861H416.086V151.291H417.518V149.861Z" fill="#1ADCE2"/>
<path d="M418.964 149.861H417.531V151.291H418.964V149.861Z" fill="#1ADCE2"/>
<path d="M420.362 149.861H418.93V151.291H420.362V149.861Z" fill="#1ADCE2"/>
<path d="M424.682 149.861H423.25V151.291H424.682V149.861Z" fill="#1ADCE2"/>
<path d="M426.12 149.861H424.688V151.291H426.12V149.861Z" fill="#1ADCE2"/>
<path d="M427.534 149.861H426.102V151.291H427.534V149.861Z" fill="#1ADCE2"/>
<path d="M398.886 151.291H397.453V152.721H398.886V151.291Z" fill="#1ADCE2"/>
<path d="M408.925 151.291H407.492V152.721H408.925V151.291Z" fill="#1ADCE2"/>
<path d="M410.354 151.291H408.922V152.721H410.354V151.291Z" fill="#1ADCE2"/>
<path d="M411.784 151.291H410.352V152.721H411.784V151.291Z" fill="#1ADCE2"/>
<path d="M414.628 151.291H413.195V152.721H414.628V151.291Z" fill="#1ADCE2"/>
<path d="M417.518 151.291H416.086V152.721H417.518V151.291Z" fill="#1ADCE2"/>
<path d="M420.362 151.291H418.93V152.721H420.362V151.291Z" fill="#1ADCE2"/>
<path d="M421.815 151.291H420.383V152.721H421.815V151.291Z" fill="#1ADCE2"/>
<path d="M423.237 151.291H421.805V152.721H423.237V151.291Z" fill="#1ADCE2"/>
<path d="M426.12 151.291H424.688V152.721H426.12V151.291Z" fill="#1ADCE2"/>
<path d="M427.534 151.291H426.102V152.721H427.534V151.291Z" fill="#1ADCE2"/>
<path d="M401.761 152.721H400.328V154.151H401.761V152.721Z" fill="#1ADCE2"/>
<path d="M404.62 152.721H403.188V154.151H404.62V152.721Z" fill="#1ADCE2"/>
<path d="M408.925 152.721H407.492V154.151H408.925V152.721Z" fill="#1ADCE2"/>
<path d="M410.354 152.721H408.922V154.151H410.354V152.721Z" fill="#1ADCE2"/>
<path d="M413.229 152.721H411.797V154.151H413.229V152.721Z" fill="#1ADCE2"/>
<path d="M414.628 152.721H413.195V154.151H414.628V152.721Z" fill="#1ADCE2"/>
<path d="M416.073 152.721H414.641V154.151H416.073V152.721Z" fill="#1ADCE2"/>
<path d="M418.964 152.721H417.531V154.151H418.964V152.721Z" fill="#1ADCE2"/>
<path d="M420.362 152.721H418.93V154.151H420.362V152.721Z" fill="#1ADCE2"/>
<path d="M423.237 152.721H421.805V154.151H423.237V152.721Z" fill="#1ADCE2"/>
<path d="M427.534 152.721H426.102V154.151H427.534V152.721Z" fill="#1ADCE2"/>
<path d="M400.331 154.148H398.898V155.578H400.331V154.148Z" fill="#1ADCE2"/>
<path d="M406.057 154.148H404.625V155.578H406.057V154.148Z" fill="#1ADCE2"/>
<path d="M407.487 154.148H406.055V155.578H407.487V154.148Z" fill="#1ADCE2"/>
<path d="M408.925 154.148H407.492V155.578H408.925V154.148Z" fill="#1ADCE2"/>
<path d="M416.073 154.148H414.641V155.578H416.073V154.148Z" fill="#1ADCE2"/>
<path d="M418.964 154.148H417.531V155.578H418.964V154.148Z" fill="#1ADCE2"/>
<path d="M423.237 154.148H421.805V155.578H423.237V154.148Z" fill="#1ADCE2"/>
<path d="M424.682 154.148H423.25V155.578H424.682V154.148Z" fill="#1ADCE2"/>
<path d="M398.886 155.578H397.453V157.008H398.886V155.578Z" fill="#1ADCE2"/>
<path d="M401.761 155.578H400.328V157.008H401.761V155.578Z" fill="#1ADCE2"/>
<path d="M404.62 155.578H403.188V157.008H404.62V155.578Z" fill="#1ADCE2"/>
<path d="M407.487 155.578H406.055V157.008H407.487V155.578Z" fill="#1ADCE2"/>
<path d="M410.354 155.578H408.922V157.008H410.354V155.578Z" fill="#1ADCE2"/>
<path d="M413.229 155.578H411.797V157.008H413.229V155.578Z" fill="#1ADCE2"/>
<path d="M416.073 155.578H414.641V157.008H416.073V155.578Z" fill="#1ADCE2"/>
<path d="M418.964 155.578H417.531V157.008H418.964V155.578Z" fill="#1ADCE2"/>
<path d="M421.815 155.578H420.383V157.008H421.815V155.578Z" fill="#1ADCE2"/>
<path d="M424.682 155.578H423.25V157.008H424.682V155.578Z" fill="#1ADCE2"/>
<path d="M427.534 155.578H426.102V157.008H427.534V155.578Z" fill="#1ADCE2"/>
<path d="M398.886 157.008H397.453V158.438H398.886V157.008Z" fill="#1ADCE2"/>
<path d="M400.331 157.008H398.898V158.438H400.331V157.008Z" fill="#1ADCE2"/>
<path d="M404.62 157.008H403.188V158.438H404.62V157.008Z" fill="#1ADCE2"/>
<path d="M406.057 157.008H404.625V158.438H406.057V157.008Z" fill="#1ADCE2"/>
<path d="M408.925 157.008H407.492V158.438H408.925V157.008Z" fill="#1ADCE2"/>
<path d="M418.964 157.008H417.531V158.438H418.964V157.008Z" fill="#1ADCE2"/>
<path d="M420.362 157.008H418.93V158.438H420.362V157.008Z" fill="#1ADCE2"/>
<path d="M421.815 157.008H420.383V158.438H421.815V157.008Z" fill="#1ADCE2"/>
<path d="M424.682 157.008H423.25V158.438H424.682V157.008Z" fill="#1ADCE2"/>
<path d="M426.12 157.008H424.688V158.438H426.12V157.008Z" fill="#1ADCE2"/>
<path d="M427.534 157.008H426.102V158.438H427.534V157.008Z" fill="#1ADCE2"/>
<path d="M387.432 158.439H386V159.869H387.432V158.439Z" fill="#1ADCE2"/>
<path d="M396.018 158.439H394.586V159.869H396.018V158.439Z" fill="#1ADCE2"/>
<path d="M398.886 158.439H397.453V159.869H398.886V158.439Z" fill="#1ADCE2"/>
<path d="M400.331 158.439H398.898V159.869H400.331V158.439Z" fill="#1ADCE2"/>
<path d="M403.175 158.439H401.742V159.869H403.175V158.439Z" fill="#1ADCE2"/>
<path d="M407.487 158.439H406.055V159.869H407.487V158.439Z" fill="#1ADCE2"/>
<path d="M408.925 158.439H407.492V159.869H408.925V158.439Z" fill="#1ADCE2"/>
<path d="M411.784 158.439H410.352V159.869H411.784V158.439Z" fill="#1ADCE2"/>
<path d="M418.964 158.439H417.531V159.869H418.964V158.439Z" fill="#1ADCE2"/>
<path d="M421.815 158.439H420.383V159.869H421.815V158.439Z" fill="#1ADCE2"/>
<path d="M423.237 158.439H421.805V159.869H423.237V158.439Z" fill="#1ADCE2"/>
<path d="M424.682 158.439H423.25V159.869H424.682V158.439Z" fill="#1ADCE2"/>
<path d="M428.987 158.439H427.555V159.869H428.987V158.439Z" fill="#1ADCE2"/>
<path d="M430.409 158.439H428.977V159.869H430.409V158.439Z" fill="#1ADCE2"/>
<path d="M434.714 158.439H433.281V159.869H434.714V158.439Z" fill="#1ADCE2"/>
<path d="M436.143 158.439H434.711V159.869H436.143V158.439Z" fill="#1ADCE2"/>
<path d="M437.589 158.439H436.156V159.869H437.589V158.439Z" fill="#1ADCE2"/>
<path d="M387.432 159.869H386V161.299H387.432V159.869Z" fill="#1ADCE2"/>
<path d="M388.878 159.869H387.445V161.299H388.878V159.869Z" fill="#1ADCE2"/>
<path d="M393.167 159.869H391.734V161.299H393.167V159.869Z" fill="#1ADCE2"/>
<path d="M394.612 159.869H393.18V161.299H394.612V159.869Z" fill="#1ADCE2"/>
<path d="M397.479 159.869H396.047V161.299H397.479V159.869Z" fill="#1ADCE2"/>
<path d="M398.886 159.869H397.453V161.299H398.886V159.869Z" fill="#1ADCE2"/>
<path d="M400.331 159.869H398.898V161.299H400.331V159.869Z" fill="#1ADCE2"/>
<path d="M407.487 159.869H406.055V161.299H407.487V159.869Z" fill="#1ADCE2"/>
<path d="M414.628 159.869H413.195V161.299H414.628V159.869Z" fill="#1ADCE2"/>
<path d="M418.964 159.869H417.531V161.299H418.964V159.869Z" fill="#1ADCE2"/>
<path d="M420.362 159.869H418.93V161.299H420.362V159.869Z" fill="#1ADCE2"/>
<path d="M423.237 159.869H421.805V161.299H423.237V159.869Z" fill="#1ADCE2"/>
<path d="M424.682 159.869H423.25V161.299H424.682V159.869Z" fill="#1ADCE2"/>
<path d="M426.12 159.869H424.688V161.299H426.12V159.869Z" fill="#1ADCE2"/>
<path d="M431.846 159.869H430.414V161.299H431.846V159.869Z" fill="#1ADCE2"/>
<path d="M433.284 159.869H431.852V161.299H433.284V159.869Z" fill="#1ADCE2"/>
<path d="M437.589 159.869H436.156V161.299H437.589V159.869Z" fill="#1ADCE2"/>
<path d="M387.432 161.303H386V162.733H387.432V161.303Z" fill="#1ADCE2"/>
<path d="M391.729 161.303H390.297V162.733H391.729V161.303Z" fill="#1ADCE2"/>
<path d="M396.018 161.303H394.586V162.733H396.018V161.303Z" fill="#1ADCE2"/>
<path d="M397.479 161.303H396.047V162.733H397.479V161.303Z" fill="#1ADCE2"/>
<path d="M398.886 161.303H397.453V162.733H398.886V161.303Z" fill="#1ADCE2"/>
<path d="M400.331 161.303H398.898V162.733H400.331V161.303Z" fill="#1ADCE2"/>
<path d="M401.761 161.303H400.328V162.733H401.761V161.303Z" fill="#1ADCE2"/>
<path d="M403.175 161.303H401.742V162.733H403.175V161.303Z" fill="#1ADCE2"/>
<path d="M404.62 161.303H403.188V162.733H404.62V161.303Z" fill="#1ADCE2"/>
<path d="M406.057 161.303H404.625V162.733H406.057V161.303Z" fill="#1ADCE2"/>
<path d="M416.073 161.303H414.641V162.733H416.073V161.303Z" fill="#1ADCE2"/>
<path d="M417.518 161.303H416.086V162.733H417.518V161.303Z" fill="#1ADCE2"/>
<path d="M418.964 161.303H417.531V162.733H418.964V161.303Z" fill="#1ADCE2"/>
<path d="M423.237 161.303H421.805V162.733H423.237V161.303Z" fill="#1ADCE2"/>
<path d="M424.682 161.303H423.25V162.733H424.682V161.303Z" fill="#1ADCE2"/>
<path d="M426.12 161.303H424.688V162.733H426.12V161.303Z" fill="#1ADCE2"/>
<path d="M431.846 161.303H430.414V162.733H431.846V161.303Z" fill="#1ADCE2"/>
<path d="M433.284 161.303H431.852V162.733H433.284V161.303Z" fill="#1ADCE2"/>
<path d="M437.589 161.303H436.156V162.733H437.589V161.303Z" fill="#1ADCE2"/>
<path d="M438.987 161.303H437.555V162.733H438.987V161.303Z" fill="#1ADCE2"/>
<path d="M388.878 162.73H387.445V164.16H388.878V162.73Z" fill="#1ADCE2"/>
<path d="M391.729 162.73H390.297V164.16H391.729V162.73Z" fill="#1ADCE2"/>
<path d="M393.167 162.73H391.734V164.16H393.167V162.73Z" fill="#1ADCE2"/>
<path d="M394.612 162.73H393.18V164.16H394.612V162.73Z" fill="#1ADCE2"/>
<path d="M397.479 162.73H396.047V164.16H397.479V162.73Z" fill="#1ADCE2"/>
<path d="M401.761 162.73H400.328V164.16H401.761V162.73Z" fill="#1ADCE2"/>
<path d="M404.62 162.73H403.188V164.16H404.62V162.73Z" fill="#1ADCE2"/>
<path d="M406.057 162.73H404.625V164.16H406.057V162.73Z" fill="#1ADCE2"/>
<path d="M408.925 162.73H407.492V164.16H408.925V162.73Z" fill="#1ADCE2"/>
<path d="M410.354 162.73H408.922V164.16H410.354V162.73Z" fill="#1ADCE2"/>
<path d="M414.628 162.73H413.195V164.16H414.628V162.73Z" fill="#1ADCE2"/>
<path d="M418.964 162.73H417.531V164.16H418.964V162.73Z" fill="#1ADCE2"/>
<path d="M420.362 162.73H418.93V164.16H420.362V162.73Z" fill="#1ADCE2"/>
<path d="M424.682 162.73H423.25V164.16H424.682V162.73Z" fill="#1ADCE2"/>
<path d="M427.534 162.73H426.102V164.16H427.534V162.73Z" fill="#1ADCE2"/>
<path d="M428.987 162.73H427.555V164.16H428.987V162.73Z" fill="#1ADCE2"/>
<path d="M430.409 162.73H428.977V164.16H430.409V162.73Z" fill="#1ADCE2"/>
<path d="M434.714 162.73H433.281V164.16H434.714V162.73Z" fill="#1ADCE2"/>
<path d="M438.987 162.73H437.555V164.16H438.987V162.73Z" fill="#1ADCE2"/>
<path d="M387.432 164.16H386V165.59H387.432V164.16Z" fill="#1ADCE2"/>
<path d="M388.878 164.16H387.445V165.59H388.878V164.16Z" fill="#1ADCE2"/>
<path d="M391.729 164.16H390.297V165.59H391.729V164.16Z" fill="#1ADCE2"/>
<path d="M394.612 164.16H393.18V165.59H394.612V164.16Z" fill="#1ADCE2"/>
<path d="M396.018 164.16H394.586V165.59H396.018V164.16Z" fill="#1ADCE2"/>
<path d="M398.886 164.16H397.453V165.59H398.886V164.16Z" fill="#1ADCE2"/>
<path d="M401.761 164.16H400.328V165.59H401.761V164.16Z" fill="#1ADCE2"/>
<path d="M404.62 164.16H403.188V165.59H404.62V164.16Z" fill="#1ADCE2"/>
<path d="M407.487 164.16H406.055V165.59H407.487V164.16Z" fill="#1ADCE2"/>
<path d="M410.354 164.16H408.922V165.59H410.354V164.16Z" fill="#1ADCE2"/>
<path d="M414.628 164.16H413.195V165.59H414.628V164.16Z" fill="#1ADCE2"/>
<path d="M416.073 164.16H414.641V165.59H416.073V164.16Z" fill="#1ADCE2"/>
<path d="M420.362 164.16H418.93V165.59H420.362V164.16Z" fill="#1ADCE2"/>
<path d="M424.682 164.16H423.25V165.59H424.682V164.16Z" fill="#1ADCE2"/>
<path d="M426.12 164.16H424.688V165.59H426.12V164.16Z" fill="#1ADCE2"/>
<path d="M427.534 164.16H426.102V165.59H427.534V164.16Z" fill="#1ADCE2"/>
<path d="M430.409 164.16H428.977V165.59H430.409V164.16Z" fill="#1ADCE2"/>
<path d="M431.846 164.16H430.414V165.59H431.846V164.16Z" fill="#1ADCE2"/>
<path d="M438.987 164.16H437.555V165.59H438.987V164.16Z" fill="#1ADCE2"/>
<path d="M387.432 165.588H386V167.018H387.432V165.588Z" fill="#1ADCE2"/>
<path d="M390.307 165.588H388.875V167.018H390.307V165.588Z" fill="#1ADCE2"/>
<path d="M391.729 165.588H390.297V167.018H391.729V165.588Z" fill="#1ADCE2"/>
<path d="M393.167 165.588H391.734V167.018H393.167V165.588Z" fill="#1ADCE2"/>
<path d="M394.612 165.588H393.18V167.018H394.612V165.588Z" fill="#1ADCE2"/>
<path d="M400.331 165.588H398.898V167.018H400.331V165.588Z" fill="#1ADCE2"/>
<path d="M403.175 165.588H401.742V167.018H403.175V165.588Z" fill="#1ADCE2"/>
<path d="M407.487 165.588H406.055V167.018H407.487V165.588Z" fill="#1ADCE2"/>
<path d="M408.925 165.588H407.492V167.018H408.925V165.588Z" fill="#1ADCE2"/>
<path d="M410.354 165.588H408.922V167.018H410.354V165.588Z" fill="#1ADCE2"/>
<path d="M414.628 165.588H413.195V167.018H414.628V165.588Z" fill="#1ADCE2"/>
<path d="M416.073 165.588H414.641V167.018H416.073V165.588Z" fill="#1ADCE2"/>
<path d="M417.518 165.588H416.086V167.018H417.518V165.588Z" fill="#1ADCE2"/>
<path d="M418.964 165.588H417.531V167.018H418.964V165.588Z" fill="#1ADCE2"/>
<path d="M420.362 165.588H418.93V167.018H420.362V165.588Z" fill="#1ADCE2"/>
<path d="M426.12 165.588H424.688V167.018H426.12V165.588Z" fill="#1ADCE2"/>
<path d="M428.987 165.588H427.555V167.018H428.987V165.588Z" fill="#1ADCE2"/>
<path d="M431.846 165.588H430.414V167.018H431.846V165.588Z" fill="#1ADCE2"/>
<path d="M434.714 165.588H433.281V167.018H434.714V165.588Z" fill="#1ADCE2"/>
<path d="M387.432 167.02H386V168.45H387.432V167.02Z" fill="#1ADCE2"/>
<path d="M388.878 167.02H387.445V168.45H388.878V167.02Z" fill="#1ADCE2"/>
<path d="M390.307 167.02H388.875V168.45H390.307V167.02Z" fill="#1ADCE2"/>
<path d="M396.018 167.02H394.586V168.45H396.018V167.02Z" fill="#1ADCE2"/>
<path d="M397.479 167.02H396.047V168.45H397.479V167.02Z" fill="#1ADCE2"/>
<path d="M398.886 167.02H397.453V168.45H398.886V167.02Z" fill="#1ADCE2"/>
<path d="M401.761 167.02H400.328V168.45H401.761V167.02Z" fill="#1ADCE2"/>
<path d="M406.057 167.02H404.625V168.45H406.057V167.02Z" fill="#1ADCE2"/>
<path d="M407.487 167.02H406.055V168.45H407.487V167.02Z" fill="#1ADCE2"/>
<path d="M408.925 167.02H407.492V168.45H408.925V167.02Z" fill="#1ADCE2"/>
<path d="M410.354 167.02H408.922V168.45H410.354V167.02Z" fill="#1ADCE2"/>
<path d="M416.073 167.02H414.641V168.45H416.073V167.02Z" fill="#1ADCE2"/>
<path d="M418.964 167.02H417.531V168.45H418.964V167.02Z" fill="#1ADCE2"/>
<path d="M423.237 167.02H421.805V168.45H423.237V167.02Z" fill="#1ADCE2"/>
<path d="M426.12 167.02H424.688V168.45H426.12V167.02Z" fill="#1ADCE2"/>
<path d="M428.987 167.02H427.555V168.45H428.987V167.02Z" fill="#1ADCE2"/>
<path d="M431.846 167.02H430.414V168.45H431.846V167.02Z" fill="#1ADCE2"/>
<path d="M433.284 167.02H431.852V168.45H433.284V167.02Z" fill="#1ADCE2"/>
<path d="M434.714 167.02H433.281V168.45H434.714V167.02Z" fill="#1ADCE2"/>
<path d="M437.589 167.02H436.156V168.45H437.589V167.02Z" fill="#1ADCE2"/>
<path d="M438.987 167.02H437.555V168.45H438.987V167.02Z" fill="#1ADCE2"/>
<path d="M388.878 168.447H387.445V169.877H388.878V168.447Z" fill="#1ADCE2"/>
<path d="M393.167 168.447H391.734V169.877H393.167V168.447Z" fill="#1ADCE2"/>
<path d="M400.331 168.447H398.898V169.877H400.331V168.447Z" fill="#1ADCE2"/>
<path d="M401.761 168.447H400.328V169.877H401.761V168.447Z" fill="#1ADCE2"/>
<path d="M404.62 168.447H403.188V169.877H404.62V168.447Z" fill="#1ADCE2"/>
<path d="M406.057 168.447H404.625V169.877H406.057V168.447Z" fill="#1ADCE2"/>
<path d="M408.925 168.447H407.492V169.877H408.925V168.447Z" fill="#1ADCE2"/>
<path d="M413.229 168.447H411.797V169.877H413.229V168.447Z" fill="#1ADCE2"/>
<path d="M414.628 168.447H413.195V169.877H414.628V168.447Z" fill="#1ADCE2"/>
<path d="M416.073 168.447H414.641V169.877H416.073V168.447Z" fill="#1ADCE2"/>
<path d="M418.964 168.447H417.531V169.877H418.964V168.447Z" fill="#1ADCE2"/>
<path d="M420.362 168.447H418.93V169.877H420.362V168.447Z" fill="#1ADCE2"/>
<path d="M426.12 168.447H424.688V169.877H426.12V168.447Z" fill="#1ADCE2"/>
<path d="M427.534 168.447H426.102V169.877H427.534V168.447Z" fill="#1ADCE2"/>
<path d="M428.987 168.447H427.555V169.877H428.987V168.447Z" fill="#1ADCE2"/>
<path d="M431.846 168.447H430.414V169.877H431.846V168.447Z" fill="#1ADCE2"/>
<path d="M434.714 168.447H433.281V169.877H434.714V168.447Z" fill="#1ADCE2"/>
<path d="M436.143 168.447H434.711V169.877H436.143V168.447Z" fill="#1ADCE2"/>
<path d="M438.987 168.447H437.555V169.877H438.987V168.447Z" fill="#1ADCE2"/>
<path d="M390.307 169.881H388.875V171.311H390.307V169.881Z" fill="#1ADCE2"/>
<path d="M394.612 169.881H393.18V171.311H394.612V169.881Z" fill="#1ADCE2"/>
<path d="M396.018 169.881H394.586V171.311H396.018V169.881Z" fill="#1ADCE2"/>
<path d="M397.479 169.881H396.047V171.311H397.479V169.881Z" fill="#1ADCE2"/>
<path d="M401.761 169.881H400.328V171.311H401.761V169.881Z" fill="#1ADCE2"/>
<path d="M403.175 169.881H401.742V171.311H403.175V169.881Z" fill="#1ADCE2"/>
<path d="M407.487 169.881H406.055V171.311H407.487V169.881Z" fill="#1ADCE2"/>
<path d="M418.964 169.881H417.531V171.311H418.964V169.881Z" fill="#1ADCE2"/>
<path d="M420.362 169.881H418.93V171.311H420.362V169.881Z" fill="#1ADCE2"/>
<path d="M421.815 169.881H420.383V171.311H421.815V169.881Z" fill="#1ADCE2"/>
<path d="M423.237 169.881H421.805V171.311H423.237V169.881Z" fill="#1ADCE2"/>
<path d="M424.682 169.881H423.25V171.311H424.682V169.881Z" fill="#1ADCE2"/>
<path d="M426.12 169.881H424.688V171.311H426.12V169.881Z" fill="#1ADCE2"/>
<path d="M427.534 169.881H426.102V171.311H427.534V169.881Z" fill="#1ADCE2"/>
<path d="M428.987 169.881H427.555V171.311H428.987V169.881Z" fill="#1ADCE2"/>
<path d="M430.409 169.881H428.977V171.311H430.409V169.881Z" fill="#1ADCE2"/>
<path d="M433.284 169.881H431.852V171.311H433.284V169.881Z" fill="#1ADCE2"/>
<path d="M436.143 169.881H434.711V171.311H436.143V169.881Z" fill="#1ADCE2"/>
<path d="M437.589 169.881H436.156V171.311H437.589V169.881Z" fill="#1ADCE2"/>
<path d="M438.987 169.881H437.555V171.311H438.987V169.881Z" fill="#1ADCE2"/>
<path d="M390.307 171.311H388.875V172.741H390.307V171.311Z" fill="#1ADCE2"/>
<path d="M393.167 171.311H391.734V172.741H393.167V171.311Z" fill="#1ADCE2"/>
<path d="M397.479 171.311H396.047V172.741H397.479V171.311Z" fill="#1ADCE2"/>
<path d="M400.331 171.311H398.898V172.741H400.331V171.311Z" fill="#1ADCE2"/>
<path d="M404.62 171.311H403.188V172.741H404.62V171.311Z" fill="#1ADCE2"/>
<path d="M407.487 171.311H406.055V172.741H407.487V171.311Z" fill="#1ADCE2"/>
<path d="M414.628 171.311H413.195V172.741H414.628V171.311Z" fill="#1ADCE2"/>
<path d="M416.073 171.311H414.641V172.741H416.073V171.311Z" fill="#1ADCE2"/>
<path d="M420.362 171.311H418.93V172.741H420.362V171.311Z" fill="#1ADCE2"/>
<path d="M423.237 171.311H421.805V172.741H423.237V171.311Z" fill="#1ADCE2"/>
<path d="M426.12 171.311H424.688V172.741H426.12V171.311Z" fill="#1ADCE2"/>
<path d="M427.534 171.311H426.102V172.741H427.534V171.311Z" fill="#1ADCE2"/>
<path d="M431.846 171.311H430.414V172.741H431.846V171.311Z" fill="#1ADCE2"/>
<path d="M434.714 171.311H433.281V172.741H434.714V171.311Z" fill="#1ADCE2"/>
<path d="M437.589 171.311H436.156V172.741H437.589V171.311Z" fill="#1ADCE2"/>
<path d="M390.307 172.738H388.875V174.168H390.307V172.738Z" fill="#1ADCE2"/>
<path d="M393.167 172.738H391.734V174.168H393.167V172.738Z" fill="#1ADCE2"/>
<path d="M394.612 172.738H393.18V174.168H394.612V172.738Z" fill="#1ADCE2"/>
<path d="M396.018 172.738H394.586V174.168H396.018V172.738Z" fill="#1ADCE2"/>
<path d="M397.479 172.738H396.047V174.168H397.479V172.738Z" fill="#1ADCE2"/>
<path d="M398.886 172.738H397.453V174.168H398.886V172.738Z" fill="#1ADCE2"/>
<path d="M400.331 172.738H398.898V174.168H400.331V172.738Z" fill="#1ADCE2"/>
<path d="M404.62 172.738H403.188V174.168H404.62V172.738Z" fill="#1ADCE2"/>
<path d="M408.925 172.738H407.492V174.168H408.925V172.738Z" fill="#1ADCE2"/>
<path d="M410.354 172.738H408.922V174.168H410.354V172.738Z" fill="#1ADCE2"/>
<path d="M413.229 172.738H411.797V174.168H413.229V172.738Z" fill="#1ADCE2"/>
<path d="M414.628 172.738H413.195V174.168H414.628V172.738Z" fill="#1ADCE2"/>
<path d="M418.964 172.738H417.531V174.168H418.964V172.738Z" fill="#1ADCE2"/>
<path d="M420.362 172.738H418.93V174.168H420.362V172.738Z" fill="#1ADCE2"/>
<path d="M426.12 172.738H424.688V174.168H426.12V172.738Z" fill="#1ADCE2"/>
<path d="M428.987 172.738H427.555V174.168H428.987V172.738Z" fill="#1ADCE2"/>
<path d="M430.409 172.738H428.977V174.168H430.409V172.738Z" fill="#1ADCE2"/>
<path d="M431.846 172.738H430.414V174.168H431.846V172.738Z" fill="#1ADCE2"/>
<path d="M436.143 172.738H434.711V174.168H436.143V172.738Z" fill="#1ADCE2"/>
<path d="M438.987 172.738H437.555V174.168H438.987V172.738Z" fill="#1ADCE2"/>
<path d="M387.432 174.172H386V175.602H387.432V174.172Z" fill="#1ADCE2"/>
<path d="M391.729 174.172H390.297V175.602H391.729V174.172Z" fill="#1ADCE2"/>
<path d="M398.886 174.172H397.453V175.602H398.886V174.172Z" fill="#1ADCE2"/>
<path d="M401.761 174.172H400.328V175.602H401.761V174.172Z" fill="#1ADCE2"/>
<path d="M406.057 174.172H404.625V175.602H406.057V174.172Z" fill="#1ADCE2"/>
<path d="M407.487 174.172H406.055V175.602H407.487V174.172Z" fill="#1ADCE2"/>
<path d="M408.925 174.172H407.492V175.602H408.925V174.172Z" fill="#1ADCE2"/>
<path d="M413.229 174.172H411.797V175.602H413.229V174.172Z" fill="#1ADCE2"/>
<path d="M421.815 174.172H420.383V175.602H421.815V174.172Z" fill="#1ADCE2"/>
<path d="M424.682 174.172H423.25V175.602H424.682V174.172Z" fill="#1ADCE2"/>
<path d="M427.534 174.172H426.102V175.602H427.534V174.172Z" fill="#1ADCE2"/>
<path d="M428.987 174.172H427.555V175.602H428.987V174.172Z" fill="#1ADCE2"/>
<path d="M434.714 174.172H433.281V175.602H434.714V174.172Z" fill="#1ADCE2"/>
<path d="M438.987 174.172H437.555V175.602H438.987V174.172Z" fill="#1ADCE2"/>
<path d="M387.432 175.6H386V177.03H387.432V175.6Z" fill="#1ADCE2"/>
<path d="M391.729 175.6H390.297V177.03H391.729V175.6Z" fill="#1ADCE2"/>
<path d="M393.167 175.6H391.734V177.03H393.167V175.6Z" fill="#1ADCE2"/>
<path d="M394.612 175.6H393.18V177.03H394.612V175.6Z" fill="#1ADCE2"/>
<path d="M396.018 175.6H394.586V177.03H396.018V175.6Z" fill="#1ADCE2"/>
<path d="M400.331 175.6H398.898V177.03H400.331V175.6Z" fill="#1ADCE2"/>
<path d="M401.761 175.6H400.328V177.03H401.761V175.6Z" fill="#1ADCE2"/>
<path d="M404.62 175.6H403.188V177.03H404.62V175.6Z" fill="#1ADCE2"/>
<path d="M406.057 175.6H404.625V177.03H406.057V175.6Z" fill="#1ADCE2"/>
<path d="M408.925 175.6H407.492V177.03H408.925V175.6Z" fill="#1ADCE2"/>
<path d="M410.354 175.6H408.922V177.03H410.354V175.6Z" fill="#1ADCE2"/>
<path d="M411.784 175.6H410.352V177.03H411.784V175.6Z" fill="#1ADCE2"/>
<path d="M413.229 175.6H411.797V177.03H413.229V175.6Z" fill="#1ADCE2"/>
<path d="M414.628 175.6H413.195V177.03H414.628V175.6Z" fill="#1ADCE2"/>
<path d="M416.073 175.6H414.641V177.03H416.073V175.6Z" fill="#1ADCE2"/>
<path d="M418.964 175.6H417.531V177.03H418.964V175.6Z" fill="#1ADCE2"/>
<path d="M420.362 175.6H418.93V177.03H420.362V175.6Z" fill="#1ADCE2"/>
<path d="M423.237 175.6H421.805V177.03H423.237V175.6Z" fill="#1ADCE2"/>
<path d="M426.12 175.6H424.688V177.03H426.12V175.6Z" fill="#1ADCE2"/>
<path d="M427.534 175.6H426.102V177.03H427.534V175.6Z" fill="#1ADCE2"/>
<path d="M428.987 175.6H427.555V177.03H428.987V175.6Z" fill="#1ADCE2"/>
<path d="M430.409 175.6H428.977V177.03H430.409V175.6Z" fill="#1ADCE2"/>
<path d="M433.284 175.6H431.852V177.03H433.284V175.6Z" fill="#1ADCE2"/>
<path d="M434.714 175.6H433.281V177.03H434.714V175.6Z" fill="#1ADCE2"/>
<path d="M436.143 175.6H434.711V177.03H436.143V175.6Z" fill="#1ADCE2"/>
<path d="M387.432 177.033H386V178.463H387.432V177.033Z" fill="#1ADCE2"/>
<path d="M390.307 177.033H388.875V178.463H390.307V177.033Z" fill="#1ADCE2"/>
<path d="M391.729 177.033H390.297V178.463H391.729V177.033Z" fill="#1ADCE2"/>
<path d="M393.167 177.033H391.734V178.463H393.167V177.033Z" fill="#1ADCE2"/>
<path d="M394.612 177.033H393.18V178.463H394.612V177.033Z" fill="#1ADCE2"/>
<path d="M398.886 177.033H397.453V178.463H398.886V177.033Z" fill="#1ADCE2"/>
<path d="M400.331 177.033H398.898V178.463H400.331V177.033Z" fill="#1ADCE2"/>
<path d="M401.761 177.033H400.328V178.463H401.761V177.033Z" fill="#1ADCE2"/>
<path d="M404.62 177.033H403.188V178.463H404.62V177.033Z" fill="#1ADCE2"/>
<path d="M406.057 177.033H404.625V178.463H406.057V177.033Z" fill="#1ADCE2"/>
<path d="M407.487 177.033H406.055V178.463H407.487V177.033Z" fill="#1ADCE2"/>
<path d="M411.784 177.033H410.352V178.463H411.784V177.033Z" fill="#1ADCE2"/>
<path d="M413.229 177.033H411.797V178.463H413.229V177.033Z" fill="#1ADCE2"/>
<path d="M414.628 177.033H413.195V178.463H414.628V177.033Z" fill="#1ADCE2"/>
<path d="M418.964 177.033H417.531V178.463H418.964V177.033Z" fill="#1ADCE2"/>
<path d="M426.12 177.033H424.688V178.463H426.12V177.033Z" fill="#1ADCE2"/>
<path d="M433.284 177.033H431.852V178.463H433.284V177.033Z" fill="#1ADCE2"/>
<path d="M436.143 177.033H434.711V178.463H436.143V177.033Z" fill="#1ADCE2"/>
<path d="M387.432 178.457H386V179.887H387.432V178.457Z" fill="#1ADCE2"/>
<path d="M388.878 178.457H387.445V179.887H388.878V178.457Z" fill="#1ADCE2"/>
<path d="M390.307 178.457H388.875V179.887H390.307V178.457Z" fill="#1ADCE2"/>
<path d="M393.167 178.457H391.734V179.887H393.167V178.457Z" fill="#1ADCE2"/>
<path d="M396.018 178.457H394.586V179.887H396.018V178.457Z" fill="#1ADCE2"/>
<path d="M401.761 178.457H400.328V179.887H401.761V178.457Z" fill="#1ADCE2"/>
<path d="M404.62 178.457H403.188V179.887H404.62V178.457Z" fill="#1ADCE2"/>
<path d="M408.925 178.457H407.492V179.887H408.925V178.457Z" fill="#1ADCE2"/>
<path d="M410.354 178.457H408.922V179.887H410.354V178.457Z" fill="#1ADCE2"/>
<path d="M411.784 178.457H410.352V179.887H411.784V178.457Z" fill="#1ADCE2"/>
<path d="M416.073 178.457H414.641V179.887H416.073V178.457Z" fill="#1ADCE2"/>
<path d="M418.964 178.457H417.531V179.887H418.964V178.457Z" fill="#1ADCE2"/>
<path d="M426.12 178.457H424.688V179.887H426.12V178.457Z" fill="#1ADCE2"/>
<path d="M427.534 178.457H426.102V179.887H427.534V178.457Z" fill="#1ADCE2"/>
<path d="M428.987 178.457H427.555V179.887H428.987V178.457Z" fill="#1ADCE2"/>
<path d="M430.409 178.457H428.977V179.887H430.409V178.457Z" fill="#1ADCE2"/>
<path d="M431.846 178.457H430.414V179.887H431.846V178.457Z" fill="#1ADCE2"/>
<path d="M433.284 178.457H431.852V179.887H433.284V178.457Z" fill="#1ADCE2"/>
<path d="M434.714 178.457H433.281V179.887H434.714V178.457Z" fill="#1ADCE2"/>
<path d="M437.589 178.457H436.156V179.887H437.589V178.457Z" fill="#1ADCE2"/>
<path d="M438.987 178.457H437.555V179.887H438.987V178.457Z" fill="#1ADCE2"/>
<path d="M387.432 179.889H386V181.319H387.432V179.889Z" fill="#1ADCE2"/>
<path d="M393.167 179.889H391.734V181.319H393.167V179.889Z" fill="#1ADCE2"/>
<path d="M394.612 179.889H393.18V181.319H394.612V179.889Z" fill="#1ADCE2"/>
<path d="M397.479 179.889H396.047V181.319H397.479V179.889Z" fill="#1ADCE2"/>
<path d="M400.331 179.889H398.898V181.319H400.331V179.889Z" fill="#1ADCE2"/>
<path d="M403.175 179.889H401.742V181.319H403.175V179.889Z" fill="#1ADCE2"/>
<path d="M404.62 179.889H403.188V181.319H404.62V179.889Z" fill="#1ADCE2"/>
<path d="M410.354 179.889H408.922V181.319H410.354V179.889Z" fill="#1ADCE2"/>
<path d="M424.682 179.889H423.25V181.319H424.682V179.889Z" fill="#1ADCE2"/>
<path d="M427.534 179.889H426.102V181.319H427.534V179.889Z" fill="#1ADCE2"/>
<path d="M430.409 179.889H428.977V181.319H430.409V179.889Z" fill="#1ADCE2"/>
<path d="M431.846 179.889H430.414V181.319H431.846V179.889Z" fill="#1ADCE2"/>
<path d="M433.284 179.889H431.852V181.319H433.284V179.889Z" fill="#1ADCE2"/>
<path d="M434.714 179.889H433.281V181.319H434.714V179.889Z" fill="#1ADCE2"/>
<path d="M437.589 179.889H436.156V181.319H437.589V179.889Z" fill="#1ADCE2"/>
<path d="M438.987 179.889H437.555V181.319H438.987V179.889Z" fill="#1ADCE2"/>
<path d="M387.432 181.316H386V182.746H387.432V181.316Z" fill="#1ADCE2"/>
<path d="M388.878 181.316H387.445V182.746H388.878V181.316Z" fill="#1ADCE2"/>
<path d="M391.729 181.316H390.297V182.746H391.729V181.316Z" fill="#1ADCE2"/>
<path d="M393.167 181.316H391.734V182.746H393.167V181.316Z" fill="#1ADCE2"/>
<path d="M396.018 181.316H394.586V182.746H396.018V181.316Z" fill="#1ADCE2"/>
<path d="M397.479 181.316H396.047V182.746H397.479V181.316Z" fill="#1ADCE2"/>
<path d="M400.331 181.316H398.898V182.746H400.331V181.316Z" fill="#1ADCE2"/>
<path d="M403.175 181.316H401.742V182.746H403.175V181.316Z" fill="#1ADCE2"/>
<path d="M404.62 181.316H403.188V182.746H404.62V181.316Z" fill="#1ADCE2"/>
<path d="M413.229 181.316H411.797V182.746H413.229V181.316Z" fill="#1ADCE2"/>
<path d="M416.073 181.316H414.641V182.746H416.073V181.316Z" fill="#1ADCE2"/>
<path d="M421.815 181.316H420.383V182.746H421.815V181.316Z" fill="#1ADCE2"/>
<path d="M426.12 181.316H424.688V182.746H426.12V181.316Z" fill="#1ADCE2"/>
<path d="M430.409 181.316H428.977V182.746H430.409V181.316Z" fill="#1ADCE2"/>
<path d="M438.987 181.316H437.555V182.746H438.987V181.316Z" fill="#1ADCE2"/>
<path d="M387.432 182.75H386V184.18H387.432V182.75Z" fill="#1ADCE2"/>
<path d="M390.307 182.75H388.875V184.18H390.307V182.75Z" fill="#1ADCE2"/>
<path d="M398.886 182.75H397.453V184.18H398.886V182.75Z" fill="#1ADCE2"/>
<path d="M404.62 182.75H403.188V184.18H404.62V182.75Z" fill="#1ADCE2"/>
<path d="M407.487 182.75H406.055V184.18H407.487V182.75Z" fill="#1ADCE2"/>
<path d="M408.925 182.75H407.492V184.18H408.925V182.75Z" fill="#1ADCE2"/>
<path d="M414.628 182.75H413.195V184.18H414.628V182.75Z" fill="#1ADCE2"/>
<path d="M416.073 182.75H414.641V184.18H416.073V182.75Z" fill="#1ADCE2"/>
<path d="M418.964 182.75H417.531V184.18H418.964V182.75Z" fill="#1ADCE2"/>
<path d="M420.362 182.75H418.93V184.18H420.362V182.75Z" fill="#1ADCE2"/>
<path d="M423.237 182.75H421.805V184.18H423.237V182.75Z" fill="#1ADCE2"/>
<path d="M426.12 182.75H424.688V184.18H426.12V182.75Z" fill="#1ADCE2"/>
<path d="M427.534 182.75H426.102V184.18H427.534V182.75Z" fill="#1ADCE2"/>
<path d="M431.846 182.75H430.414V184.18H431.846V182.75Z" fill="#1ADCE2"/>
<path d="M434.714 182.75H433.281V184.18H434.714V182.75Z" fill="#1ADCE2"/>
<path d="M436.143 182.75H434.711V184.18H436.143V182.75Z" fill="#1ADCE2"/>
<path d="M387.432 184.18H386V185.61H387.432V184.18Z" fill="#1ADCE2"/>
<path d="M391.729 184.18H390.297V185.61H391.729V184.18Z" fill="#1ADCE2"/>
<path d="M394.612 184.18H393.18V185.61H394.612V184.18Z" fill="#1ADCE2"/>
<path d="M396.018 184.18H394.586V185.61H396.018V184.18Z" fill="#1ADCE2"/>
<path d="M397.479 184.18H396.047V185.61H397.479V184.18Z" fill="#1ADCE2"/>
<path d="M403.175 184.18H401.742V185.61H403.175V184.18Z" fill="#1ADCE2"/>
<path d="M404.62 184.18H403.188V185.61H404.62V184.18Z" fill="#1ADCE2"/>
<path d="M406.057 184.18H404.625V185.61H406.057V184.18Z" fill="#1ADCE2"/>
<path d="M407.487 184.18H406.055V185.61H407.487V184.18Z" fill="#1ADCE2"/>
<path d="M408.925 184.18H407.492V185.61H408.925V184.18Z" fill="#1ADCE2"/>
<path d="M411.784 184.18H410.352V185.61H411.784V184.18Z" fill="#1ADCE2"/>
<path d="M423.237 184.18H421.805V185.61H423.237V184.18Z" fill="#1ADCE2"/>
<path d="M424.682 184.18H423.25V185.61H424.682V184.18Z" fill="#1ADCE2"/>
<path d="M426.12 184.18H424.688V185.61H426.12V184.18Z" fill="#1ADCE2"/>
<path d="M430.409 184.18H428.977V185.61H430.409V184.18Z" fill="#1ADCE2"/>
<path d="M431.846 184.18H430.414V185.61H431.846V184.18Z" fill="#1ADCE2"/>
<path d="M437.589 184.18H436.156V185.61H437.589V184.18Z" fill="#1ADCE2"/>
<path d="M438.987 184.18H437.555V185.61H438.987V184.18Z" fill="#1ADCE2"/>
<path d="M387.432 185.609H386V187.039H387.432V185.609Z" fill="#1ADCE2"/>
<path d="M390.307 185.609H388.875V187.039H390.307V185.609Z" fill="#1ADCE2"/>
<path d="M391.729 185.609H390.297V187.039H391.729V185.609Z" fill="#1ADCE2"/>
<path d="M394.612 185.609H393.18V187.039H394.612V185.609Z" fill="#1ADCE2"/>
<path d="M397.479 185.609H396.047V187.039H397.479V185.609Z" fill="#1ADCE2"/>
<path d="M398.886 185.609H397.453V187.039H398.886V185.609Z" fill="#1ADCE2"/>
<path d="M401.761 185.609H400.328V187.039H401.761V185.609Z" fill="#1ADCE2"/>
<path d="M404.62 185.609H403.188V187.039H404.62V185.609Z" fill="#1ADCE2"/>
<path d="M406.057 185.609H404.625V187.039H406.057V185.609Z" fill="#1ADCE2"/>
<path d="M408.925 185.609H407.492V187.039H408.925V185.609Z" fill="#1ADCE2"/>
<path d="M410.354 185.609H408.922V187.039H410.354V185.609Z" fill="#1ADCE2"/>
<path d="M413.229 185.609H411.797V187.039H413.229V185.609Z" fill="#1ADCE2"/>
<path d="M421.815 185.609H420.383V187.039H421.815V185.609Z" fill="#1ADCE2"/>
<path d="M426.12 185.609H424.688V187.039H426.12V185.609Z" fill="#1ADCE2"/>
<path d="M428.987 185.609H427.555V187.039H428.987V185.609Z" fill="#1ADCE2"/>
<path d="M430.409 185.609H428.977V187.039H430.409V185.609Z" fill="#1ADCE2"/>
<path d="M433.284 185.609H431.852V187.039H433.284V185.609Z" fill="#1ADCE2"/>
<path d="M436.143 185.609H434.711V187.039H436.143V185.609Z" fill="#1ADCE2"/>
<path d="M437.589 185.609H436.156V187.039H437.589V185.609Z" fill="#1ADCE2"/>
<path d="M387.432 187.041H386V188.471H387.432V187.041Z" fill="#1ADCE2"/>
<path d="M391.729 187.041H390.297V188.471H391.729V187.041Z" fill="#1ADCE2"/>
<path d="M396.018 187.041H394.586V188.471H396.018V187.041Z" fill="#1ADCE2"/>
<path d="M397.479 187.041H396.047V188.471H397.479V187.041Z" fill="#1ADCE2"/>
<path d="M398.886 187.041H397.453V188.471H398.886V187.041Z" fill="#1ADCE2"/>
<path d="M400.331 187.041H398.898V188.471H400.331V187.041Z" fill="#1ADCE2"/>
<path d="M408.925 187.041H407.492V188.471H408.925V187.041Z" fill="#1ADCE2"/>
<path d="M411.784 187.041H410.352V188.471H411.784V187.041Z" fill="#1ADCE2"/>
<path d="M418.964 187.041H417.531V188.471H418.964V187.041Z" fill="#1ADCE2"/>
<path d="M421.815 187.041H420.383V188.471H421.815V187.041Z" fill="#1ADCE2"/>
<path d="M423.237 187.041H421.805V188.471H423.237V187.041Z" fill="#1ADCE2"/>
<path d="M424.682 187.041H423.25V188.471H424.682V187.041Z" fill="#1ADCE2"/>
<path d="M426.12 187.041H424.688V188.471H426.12V187.041Z" fill="#1ADCE2"/>
<path d="M427.534 187.041H426.102V188.471H427.534V187.041Z" fill="#1ADCE2"/>
<path d="M428.987 187.041H427.555V188.471H428.987V187.041Z" fill="#1ADCE2"/>
<path d="M430.409 187.041H428.977V188.471H430.409V187.041Z" fill="#1ADCE2"/>
<path d="M431.846 187.041H430.414V188.471H431.846V187.041Z" fill="#1ADCE2"/>
<path d="M433.284 187.041H431.852V188.471H433.284V187.041Z" fill="#1ADCE2"/>
<path d="M436.143 187.041H434.711V188.471H436.143V187.041Z" fill="#1ADCE2"/>
<path d="M438.987 187.041H437.555V188.471H438.987V187.041Z" fill="#1ADCE2"/>
<path d="M398.886 188.469H397.453V189.899H398.886V188.469Z" fill="#1ADCE2"/>
<path d="M403.175 188.469H401.742V189.899H403.175V188.469Z" fill="#1ADCE2"/>
<path d="M408.925 188.469H407.492V189.899H408.925V188.469Z" fill="#1ADCE2"/>
<path d="M410.354 188.469H408.922V189.899H410.354V188.469Z" fill="#1ADCE2"/>
<path d="M414.628 188.469H413.195V189.899H414.628V188.469Z" fill="#1ADCE2"/>
<path d="M416.073 188.469H414.641V189.899H416.073V188.469Z" fill="#1ADCE2"/>
<path d="M420.362 188.469H418.93V189.899H420.362V188.469Z" fill="#1ADCE2"/>
<path d="M423.237 188.469H421.805V189.899H423.237V188.469Z" fill="#1ADCE2"/>
<path d="M424.682 188.469H423.25V189.899H424.682V188.469Z" fill="#1ADCE2"/>
<path d="M427.534 188.469H426.102V189.899H427.534V188.469Z" fill="#1ADCE2"/>
<path d="M433.284 188.469H431.852V189.899H433.284V188.469Z" fill="#1ADCE2"/>
<path d="M401.761 189.902H400.328V191.332H401.761V189.902Z" fill="#1ADCE2"/>
<path d="M403.175 189.902H401.742V191.332H403.175V189.902Z" fill="#1ADCE2"/>
<path d="M407.487 189.902H406.055V191.332H407.487V189.902Z" fill="#1ADCE2"/>
<path d="M408.925 189.902H407.492V191.332H408.925V189.902Z" fill="#1ADCE2"/>
<path d="M410.354 189.902H408.922V191.332H410.354V189.902Z" fill="#1ADCE2"/>
<path d="M413.229 189.902H411.797V191.332H413.229V189.902Z" fill="#1ADCE2"/>
<path d="M414.628 189.902H413.195V191.332H414.628V189.902Z" fill="#1ADCE2"/>
<path d="M417.518 189.902H416.086V191.332H417.518V189.902Z" fill="#1ADCE2"/>
<path d="M420.362 189.902H418.93V191.332H420.362V189.902Z" fill="#1ADCE2"/>
<path d="M421.815 189.902H420.383V191.332H421.815V189.902Z" fill="#1ADCE2"/>
<path d="M423.237 189.902H421.805V191.332H423.237V189.902Z" fill="#1ADCE2"/>
<path d="M427.534 189.902H426.102V191.332H427.534V189.902Z" fill="#1ADCE2"/>
<path d="M430.409 189.902H428.977V191.332H430.409V189.902Z" fill="#1ADCE2"/>
<path d="M433.284 189.902H431.852V191.332H433.284V189.902Z" fill="#1ADCE2"/>
<path d="M438.987 189.902H437.555V191.332H438.987V189.902Z" fill="#1ADCE2"/>
<path d="M401.761 191.326H400.328V192.756H401.761V191.326Z" fill="#1ADCE2"/>
<path d="M403.175 191.326H401.742V192.756H403.175V191.326Z" fill="#1ADCE2"/>
<path d="M406.057 191.326H404.625V192.756H406.057V191.326Z" fill="#1ADCE2"/>
<path d="M410.354 191.326H408.922V192.756H410.354V191.326Z" fill="#1ADCE2"/>
<path d="M413.229 191.326H411.797V192.756H413.229V191.326Z" fill="#1ADCE2"/>
<path d="M416.073 191.326H414.641V192.756H416.073V191.326Z" fill="#1ADCE2"/>
<path d="M424.682 191.326H423.25V192.756H424.682V191.326Z" fill="#1ADCE2"/>
<path d="M426.12 191.326H424.688V192.756H426.12V191.326Z" fill="#1ADCE2"/>
<path d="M427.534 191.326H426.102V192.756H427.534V191.326Z" fill="#1ADCE2"/>
<path d="M433.284 191.326H431.852V192.756H433.284V191.326Z" fill="#1ADCE2"/>
<path d="M437.589 191.326H436.156V192.756H437.589V191.326Z" fill="#1ADCE2"/>
<path d="M438.987 191.326H437.555V192.756H438.987V191.326Z" fill="#1ADCE2"/>
<path d="M400.331 192.758H398.898V194.188H400.331V192.758Z" fill="#1ADCE2"/>
<path d="M401.761 192.758H400.328V194.188H401.761V192.758Z" fill="#1ADCE2"/>
<path d="M403.175 192.758H401.742V194.188H403.175V192.758Z" fill="#1ADCE2"/>
<path d="M404.62 192.758H403.188V194.188H404.62V192.758Z" fill="#1ADCE2"/>
<path d="M406.057 192.758H404.625V194.188H406.057V192.758Z" fill="#1ADCE2"/>
<path d="M408.925 192.758H407.492V194.188H408.925V192.758Z" fill="#1ADCE2"/>
<path d="M410.354 192.758H408.922V194.188H410.354V192.758Z" fill="#1ADCE2"/>
<path d="M411.784 192.758H410.352V194.188H411.784V192.758Z" fill="#1ADCE2"/>
<path d="M413.229 192.758H411.797V194.188H413.229V192.758Z" fill="#1ADCE2"/>
<path d="M414.628 192.758H413.195V194.188H414.628V192.758Z" fill="#1ADCE2"/>
<path d="M416.073 192.758H414.641V194.188H416.073V192.758Z" fill="#1ADCE2"/>
<path d="M417.518 192.758H416.086V194.188H417.518V192.758Z" fill="#1ADCE2"/>
<path d="M418.964 192.758H417.531V194.188H418.964V192.758Z" fill="#1ADCE2"/>
<path d="M421.815 192.758H420.383V194.188H421.815V192.758Z" fill="#1ADCE2"/>
<path d="M423.237 192.758H421.805V194.188H423.237V192.758Z" fill="#1ADCE2"/>
<path d="M424.682 192.758H423.25V194.188H424.682V192.758Z" fill="#1ADCE2"/>
<path d="M426.12 192.758H424.688V194.188H426.12V192.758Z" fill="#1ADCE2"/>
<path d="M427.534 192.758H426.102V194.188H427.534V192.758Z" fill="#1ADCE2"/>
<path d="M428.987 192.758H427.555V194.188H428.987V192.758Z" fill="#1ADCE2"/>
<path d="M430.409 192.758H428.977V194.188H430.409V192.758Z" fill="#1ADCE2"/>
<path d="M431.846 192.758H430.414V194.188H431.846V192.758Z" fill="#1ADCE2"/>
<path d="M433.284 192.758H431.852V194.188H433.284V192.758Z" fill="#1ADCE2"/>
<path d="M436.143 192.758H434.711V194.188H436.143V192.758Z" fill="#1ADCE2"/>
<path d="M437.589 192.758H436.156V194.188H437.589V192.758Z" fill="#1ADCE2"/>
<path d="M400.331 194.188H398.898V195.617H400.331V194.188Z" fill="#1ADCE2"/>
<path d="M401.761 194.188H400.328V195.617H401.761V194.188Z" fill="#1ADCE2"/>
<path d="M403.175 194.188H401.742V195.617H403.175V194.188Z" fill="#1ADCE2"/>
<path d="M407.487 194.188H406.055V195.617H407.487V194.188Z" fill="#1ADCE2"/>
<path d="M408.925 194.188H407.492V195.617H408.925V194.188Z" fill="#1ADCE2"/>
<path d="M410.354 194.188H408.922V195.617H410.354V194.188Z" fill="#1ADCE2"/>
<path d="M414.628 194.188H413.195V195.617H414.628V194.188Z" fill="#1ADCE2"/>
<path d="M420.362 194.188H418.93V195.617H420.362V194.188Z" fill="#1ADCE2"/>
<path d="M428.987 194.188H427.555V195.617H428.987V194.188Z" fill="#1ADCE2"/>
<path d="M430.409 194.188H428.977V195.617H430.409V194.188Z" fill="#1ADCE2"/>
<path d="M434.714 194.188H433.281V195.617H434.714V194.188Z" fill="#1ADCE2"/>
<path d="M437.589 194.188H436.156V195.617H437.589V194.188Z" fill="#1ADCE2"/>
<path d="M438.987 194.188H437.555V195.617H438.987V194.188Z" fill="#1ADCE2"/>
<path d="M401.761 195.619H400.328V197.049H401.761V195.619Z" fill="#1ADCE2"/>
<path d="M403.175 195.619H401.742V197.049H403.175V195.619Z" fill="#1ADCE2"/>
<path d="M407.487 195.619H406.055V197.049H407.487V195.619Z" fill="#1ADCE2"/>
<path d="M408.925 195.619H407.492V197.049H408.925V195.619Z" fill="#1ADCE2"/>
<path d="M416.073 195.619H414.641V197.049H416.073V195.619Z" fill="#1ADCE2"/>
<path d="M417.518 195.619H416.086V197.049H417.518V195.619Z" fill="#1ADCE2"/>
<path d="M418.964 195.619H417.531V197.049H418.964V195.619Z" fill="#1ADCE2"/>
<path d="M421.815 195.619H420.383V197.049H421.815V195.619Z" fill="#1ADCE2"/>
<path d="M424.682 195.619H423.25V197.049H424.682V195.619Z" fill="#1ADCE2"/>
<path d="M428.987 195.619H427.555V197.049H428.987V195.619Z" fill="#1ADCE2"/>
<path d="M437.589 195.619H436.156V197.049H437.589V195.619Z" fill="#1ADCE2"/>
<path d="M438.987 195.619H437.555V197.049H438.987V195.619Z" fill="#1ADCE2"/>
<path d="M406.057 197.051H404.625V198.481H406.057V197.051Z" fill="#1ADCE2"/>
<path d="M407.487 197.051H406.055V198.481H407.487V197.051Z" fill="#1ADCE2"/>
<path d="M414.628 197.051H413.195V198.481H414.628V197.051Z" fill="#1ADCE2"/>
<path d="M416.073 197.051H414.641V198.481H416.073V197.051Z" fill="#1ADCE2"/>
<path d="M418.964 197.051H417.531V198.481H418.964V197.051Z" fill="#1ADCE2"/>
<path d="M421.815 197.051H420.383V198.481H421.815V197.051Z" fill="#1ADCE2"/>
<path d="M424.682 197.051H423.25V198.481H424.682V197.051Z" fill="#1ADCE2"/>
<path d="M427.534 197.051H426.102V198.481H427.534V197.051Z" fill="#1ADCE2"/>
<path d="M428.987 197.051H427.555V198.481H428.987V197.051Z" fill="#1ADCE2"/>
<path d="M430.409 197.051H428.977V198.481H430.409V197.051Z" fill="#1ADCE2"/>
<path d="M433.284 197.051H431.852V198.481H433.284V197.051Z" fill="#1ADCE2"/>
<path d="M434.714 197.051H433.281V198.481H434.714V197.051Z" fill="#1ADCE2"/>
<path d="M438.987 197.051H437.555V198.481H438.987V197.051Z" fill="#1ADCE2"/>
<path d="M398.886 198.479H397.453V199.908H398.886V198.479Z" fill="#1ADCE2"/>
<path d="M401.761 198.479H400.328V199.908H401.761V198.479Z" fill="#1ADCE2"/>
<path d="M404.62 198.479H403.188V199.908H404.62V198.479Z" fill="#1ADCE2"/>
<path d="M407.487 198.479H406.055V199.908H407.487V198.479Z" fill="#1ADCE2"/>
<path d="M408.925 198.479H407.492V199.908H408.925V198.479Z" fill="#1ADCE2"/>
<path d="M418.964 198.479H417.531V199.908H418.964V198.479Z" fill="#1ADCE2"/>
<path d="M420.362 198.479H418.93V199.908H420.362V198.479Z" fill="#1ADCE2"/>
<path d="M426.12 198.479H424.688V199.908H426.12V198.479Z" fill="#1ADCE2"/>
<path d="M427.534 198.479H426.102V199.908H427.534V198.479Z" fill="#1ADCE2"/>
<path d="M430.409 198.479H428.977V199.908H430.409V198.479Z" fill="#1ADCE2"/>
<path d="M431.846 198.479H430.414V199.908H431.846V198.479Z" fill="#1ADCE2"/>
<path d="M438.987 198.479H437.555V199.908H438.987V198.479Z" fill="#1ADCE2"/>
<path d="M394.523 147H387.504H386V148.501V155.508V157.01H387.504H394.523H396.027V155.508V148.501V147H394.523ZM394.523 155.508H387.504V148.501H394.523V155.508Z" fill="#1ADCE2"/>
<path d="M437.507 147H430.488H428.984V148.501V155.508V157.01H430.488H437.507H439.011V155.508V148.501V147H437.507ZM437.507 155.508H430.488V148.501H437.507V155.508Z" fill="#1ADCE2"/>
<path d="M394.523 189.99H387.504H386V191.492V198.499V200H387.504H394.523H396.027V198.499V191.492V189.99H394.523ZM394.523 198.499H387.504V191.492H394.523V198.499Z" fill="#1ADCE2"/>
<path d="M393.172 149.861H388.875V154.151H393.172V149.861Z" fill="#1ADCE2"/>
<path d="M436.149 149.861H431.852V154.151H436.149V149.861Z" fill="#1ADCE2"/>
<path d="M393.172 192.758H388.875V197.048H393.172V192.758Z" fill="#1ADCE2"/>
<defs>
<filter id="filter0_d_1349_11675" x="7" y="123" width="490.008" height="333" filterUnits="userSpaceOnUse" color-interpolation-filters="sRGB">
<feFlood flood-opacity="0" result="BackgroundImageFix"/>
<feColorMatrix in="SourceAlpha" type="matrix" values="0 0 0 0 0 0 0 0 0 0 0 0 0 0 0 0 0 0 127 0" result="hardAlpha"/>
<feOffset dx="-4" dy="34"/>
<feGaussianBlur stdDeviation="21.5"/>
<feComposite in2="hardAlpha" operator="out"/>
<feColorMatrix type="matrix" values="0 0 0 0 0 0 0 0 0 0 0 0 0 0 0 0 0 0 0.43 0"/>
<feBlend mode="normal" in2="BackgroundImageFix" result="effect1_dropShadow_1349_11675"/>
<feBlend mode="normal" in="SourceGraphic" in2="effect1_dropShadow_1349_11675" result="shape"/>
</filter>
<radialGradient id="paint0_radial_1349_11675" cx="0" cy="0" r="1" gradientUnits="userSpaceOnUse" gradientTransform="translate(-20.2341 113.794) rotate(17.1388) scale(532.841 104.241)">
<stop stop-color="#3C5F60"/>
<stop offset="0.366729" stop-color="#1C5A5C"/>
<stop offset="1" stop-color="#1C4142"/>
</radialGradient>
<linearGradient id="paint1_linear_1349_11675" x1="36.8182" y1="291.481" x2="186.005" y2="367.502" gradientUnits="userSpaceOnUse">
<stop stop-color="#1ADCE2"/>
<stop offset="1" stop-color="white" stop-opacity="0"/>
</linearGradient>
</defs>
</svg>
