<svg width="26" height="26" viewBox="0 0 26 26" fill="none" xmlns="http://www.w3.org/2000/svg">
<path d="M11.3659 12.9866L10.0999 14.3132L9.94756 14.4729L10.1518 14.5557C10.3809 14.6486 10.5968 14.7848 10.7874 14.9649C11.6097 15.7419 11.6422 17.036 10.86 17.8558C10.0773 18.6759 8.7754 18.7106 7.95265 17.9332C7.76209 17.7532 7.61429 17.5457 7.50924 17.323L7.41609 17.1256L7.26514 17.2837L5.99812 18.6114L0.355374 13.2801L5.72316 7.65521L6.48597 8.37593C5.95574 9.50603 6.17746 10.895 7.13523 11.7999C8.09207 12.7039 9.49727 12.8518 10.6034 12.2662L11.3659 12.9866Z" fill="#A5ED5D" stroke="black" stroke-width="0.3"/>
<path d="M12.6065 0.364239L18.2219 5.72335L17.4521 6.53815C16.3588 6.11388 15.0681 6.36297 14.2106 7.27051C13.3531 8.17821 13.1728 9.48635 13.6512 10.5612L12.8818 11.3755L11.5574 10.1116L11.398 9.95949L11.3148 10.1639C11.2216 10.3931 11.0851 10.6093 10.9047 10.8001C10.1267 11.6237 8.83273 11.6581 8.0144 10.8772C7.19565 10.0958 7.16298 8.79391 7.94144 7.96995C8.12175 7.7791 8.3294 7.63099 8.5522 7.52559L8.74979 7.43212L8.59187 7.28141L7.26642 6.01644L12.6065 0.364239Z" fill="#A5ED5D" stroke="black" stroke-width="0.3"/>
<path d="M18.398 8.51899L18.4986 8.68975L18.6357 8.54615L19.8587 7.26459L25.5014 12.596L20.1336 18.2208L19.5051 17.627C20.0353 16.496 19.8138 15.1081 18.857 14.2041C17.9002 13.3001 16.495 13.1522 15.3888 13.7378L14.4909 12.8894L15.7139 11.6078L15.8523 11.4628L15.6744 11.371C15.5068 11.2845 15.349 11.1743 15.2048 11.038C14.3825 10.2611 14.35 8.96688 15.1323 8.14716C15.9149 7.32702 17.2168 7.29232 18.0396 8.06967L18.04 8.07005C18.1836 8.20475 18.3023 8.35669 18.398 8.51899Z" fill="#A5ED5D" stroke="black" stroke-width="0.3"/>
<path d="M14.4417 15.8932L14.601 16.0451L14.6842 15.841C14.7776 15.6117 14.9143 15.3955 15.0948 15.2046C15.874 14.3808 17.1699 14.3461 17.9905 15.1264C18.8102 15.9079 18.8429 17.2099 18.0634 18.034C17.8828 18.2249 17.6749 18.373 17.4518 18.4785L17.2539 18.572L17.4121 18.7227L18.6043 19.8592L13.2579 25.5117L7.63516 20.1516L8.35799 19.3873C9.4893 19.9159 10.8791 19.6922 11.7856 18.7338C12.6921 17.7754 12.8424 16.3696 12.2579 15.2641L12.9805 14.5002L14.4417 15.8932Z" fill="#A5ED5D" stroke="black" stroke-width="0.3"/>
</svg>
